<svg version="1.1" id="Layer_1" xmlns="http://www.w3.org/2000/svg" xmlns:xlink="http://www.w3.org/1999/xlink" x="0px" y="0px"
	 width="100%" viewBox="0 0 224 240" enable-background="new 0 0 224 240" xml:space="preserve">
<path fill="#037CB2" opacity="1.000000" stroke="none" 
	d="
M56.865807,102.727097 
	C59.194500,101.238235 59.777916,99.319389 60.051144,97.029289 
	C61.374767,85.935158 66.306328,77.472542 77.546478,73.824959 
	C78.752716,73.433525 79.408501,72.600403 80.029778,71.549454 
	C89.260666,55.934559 100.809776,54.105549 114.004578,66.176582 
	C115.528427,66.222023 116.249626,64.927711 117.195236,64.078941 
	C127.189423,55.108250 141.028885,57.209000 147.590408,68.994942 
	C149.290268,72.048225 151.240646,73.415230 154.646194,74.194160 
	C165.400894,76.654053 173.247910,86.790054 173.222580,97.908081 
	C173.214493,101.459702 174.151093,104.166206 176.419449,106.938530 
	C183.975433,116.173248 183.194656,128.781967 174.554001,137.195084 
	C171.800232,139.876328 170.313034,142.540527 169.750809,146.496552 
	C168.460953,155.572220 163.662933,162.627670 155.056808,166.518127 
	C152.653366,167.604614 151.073914,169.058334 149.785141,171.415573 
	C145.829987,178.649887 139.595062,182.711807 131.295639,183.211563 
	C124.297607,183.632965 119.329781,179.943924 115.759491,174.803970 
	C113.995567,174.666733 113.499191,175.618835 112.842659,176.345352 
	C103.298302,186.907120 87.742073,185.152908 81.211441,172.541962 
	C79.680305,169.585251 77.849709,168.136169 74.746017,167.182968 
	C63.789577,163.817978 56.745323,154.223587 56.769417,142.885391 
	C56.775795,139.884521 56.037460,137.523895 54.179646,135.128586 
	C45.672375,124.160110 46.585659,112.968124 56.865807,102.727097 
M165.501389,106.971596 
	C164.184647,105.351547 164.497833,103.498077 164.873764,101.710167 
	C166.525955,93.852440 163.289200,88.107071 157.017410,83.815384 
	C151.875061,80.296555 150.689423,80.648064 147.320068,85.793457 
	C146.026718,87.768539 144.641144,90.055962 141.801559,88.681465 
	C138.796402,87.226830 139.469376,84.872963 140.617477,82.312157 
	C143.493149,75.898071 141.346298,70.099998 135.276489,67.282829 
	C129.383728,64.547836 123.200058,66.796440 120.396820,73.109985 
	C119.141495,75.937286 117.869293,78.185188 114.467056,78.152626 
	C111.318123,78.122482 109.954933,75.986366 108.701660,73.430077 
	C106.886581,69.727890 104.300606,66.679207 99.787491,66.272972 
	C94.839088,65.827553 90.839600,67.772606 88.415237,72.010719 
	C86.167999,75.939186 86.589302,80.051529 89.410088,83.711853 
	C91.050819,85.840912 92.505989,88.056030 89.739120,90.154480 
	C87.033714,92.206299 84.980461,90.237228 83.396561,88.251228 
	C81.870338,86.337540 80.720322,84.123817 79.435806,82.090645 
	C72.697197,84.033646 68.220085,89.851837 68.339050,97.539459 
	C68.411072,102.193306 66.861908,105.125175 63.170795,107.970039 
	C54.707039,114.493370 53.978554,124.041046 61.406826,131.233353 
	C64.527405,134.254791 65.648521,137.140457 65.078613,141.309647 
	C64.028854,148.989365 67.729431,154.420013 74.034592,158.326218 
	C77.051682,160.195404 79.571953,160.268417 81.200043,156.374969 
	C82.389183,153.531235 84.641373,151.447266 87.321251,149.980713 
	C90.182533,148.414856 93.420372,144.610611 96.334854,148.974609 
	C99.227722,153.306229 94.382446,154.496841 91.909363,156.194519 
	C88.195572,158.743942 86.477287,162.017365 87.333595,166.422440 
	C88.218803,170.976242 91.349777,173.589951 95.569611,174.937729 
	C99.813759,176.293243 103.371155,175.095215 106.347946,171.767593 
	C108.544762,169.311874 109.475845,166.312531 110.459122,163.307693 
	C111.221619,160.977539 112.729630,159.716904 115.259621,159.760422 
	C117.771149,159.803635 119.271149,161.082962 120.000687,163.417786 
	C120.495758,165.002197 121.019691,166.577805 121.547966,168.151581 
	C123.172485,172.991104 126.434692,175.612396 131.646790,175.340149 
	C136.907257,175.065353 142.282913,170.757309 143.419846,165.961731 
	C144.680771,160.643173 141.863220,157.438919 137.590424,155.040558 
	C137.154739,154.796005 136.711166,154.560837 136.297836,154.281906 
	C134.436340,153.025665 133.403183,151.388031 134.605484,149.207520 
	C135.892136,146.874084 137.961136,146.552246 140.158035,147.798264 
	C143.768997,149.846298 147.606491,151.716492 149.453064,155.795746 
	C151.092804,159.418076 153.322861,158.903198 155.669159,156.706177 
	C159.600418,153.025009 162.099731,148.548187 161.766190,143.036942 
	C161.521011,138.985840 162.601639,136.048264 166.240906,133.839859 
	C169.089752,132.111099 171.268036,129.487045 172.533798,126.270935 
	C175.736237,118.133881 171.609421,112.553894 165.501389,106.971596 
z"/>
<path fill="#037CB2" opacity="1.000000" stroke="none" 
	d="
M102.830368,223.357452 
	C98.359962,223.351639 94.366043,223.398605 90.374542,223.320923 
	C87.658249,223.268066 85.318947,223.615417 83.050552,225.585098 
	C79.878395,228.339493 76.178230,228.155624 73.189491,225.113449 
	C70.559212,222.436111 70.260437,219.057114 72.466393,215.994614 
	C74.942268,212.557388 78.593979,211.664032 82.161507,213.881119 
	C88.270912,217.677902 94.800896,215.359695 101.125557,215.748260 
	C103.663986,215.904205 103.664520,213.616196 103.667709,211.739456 
	C103.677612,205.916504 103.965546,200.074310 103.584671,194.276428 
	C103.259949,189.333252 105.581573,186.950958 109.829079,185.642151 
	C111.876877,187.014236 111.176697,189.019470 111.189064,190.722855 
	C111.249451,199.040787 111.224045,207.359802 111.167473,215.678009 
	C111.120987,222.513626 110.339371,223.238770 102.830368,223.357452 
z"/>
<path fill="#037CB2" opacity="1.000000" stroke="none" 
	d="
M129.373459,26.094269 
	C126.054710,26.039406 125.246101,27.667179 125.274887,30.252581 
	C125.339760,36.078243 125.045418,41.917187 125.340828,47.728180 
	C125.594444,52.716934 122.815933,54.738880 118.919647,56.164841 
	C117.332085,54.745987 117.813080,53.151592 117.804588,51.731533 
	C117.753807,43.241787 117.742424,34.751419 117.786118,26.261610 
	C117.820740,19.533228 118.667442,18.702047 125.189232,18.663307 
	C128.685043,18.642540 132.181046,18.656542 135.676956,18.650536 
	C139.626785,18.643751 143.411514,18.947416 146.860611,15.822334 
	C149.397171,13.524054 152.940170,14.145340 155.466034,16.691673 
	C158.123703,19.370869 158.430527,22.707172 156.454819,25.845413 
	C154.579544,28.824173 151.221695,30.412106 148.267944,28.568737 
	C142.330215,24.863144 136.011154,26.481407 129.373459,26.094269 
z"/>
<path fill="#037CB2" opacity="1.000000" stroke="none" 
	d="
M206.799286,115.090683 
	C202.000961,115.090622 197.667206,114.915405 193.354507,115.141525 
	C188.731247,115.383942 186.625824,113.307381 186.420486,108.254944 
	C191.675690,107.122673 196.964935,107.544167 202.155426,107.703499 
	C206.595062,107.839783 208.143921,106.175369 207.801849,101.881226 
	C207.335602,96.027962 208.685410,90.089180 205.192688,84.474205 
	C203.387390,81.571960 205.218124,78.298157 208.016296,76.226921 
	C210.572647,74.334679 213.366333,74.318024 215.886551,76.245346 
	C218.592545,78.314728 220.776291,81.661125 218.709961,84.441231 
	C213.420547,91.557816 215.754807,99.437408 215.373138,107.017845 
	C215.011154,114.207512 214.600922,114.874695 206.799286,115.090683 
z"/>
<path fill="#037CB2" opacity="1.000000" stroke="none" 
	d="
M16.700947,140.984100 
	C16.707138,125.342224 15.575281,126.845818 30.401180,126.788948 
	C32.397636,126.781296 34.409706,126.941139 36.387436,126.747078 
	C40.838509,126.310333 43.356133,128.147491 43.917629,132.916550 
	C40.707748,135.205505 36.960938,134.031631 33.480778,134.108490 
	C23.417866,134.330688 24.201899,133.187134 24.248125,143.145752 
	C24.269474,147.745407 23.890989,152.231308 26.665249,156.585449 
	C28.572521,159.578888 27.325523,163.125153 24.207500,165.357941 
	C21.498447,167.297852 18.559626,167.512344 15.914876,165.320389 
	C13.130426,163.012665 11.192950,159.531723 13.574289,156.581604 
	C17.397053,151.845779 16.592541,146.684143 16.700947,140.984100 
z"/>
<path fill="#037CB2" opacity="1.000000" stroke="none" 
	d="
M196.895767,156.769531 
	C198.840149,159.194885 200.414001,161.358780 200.026566,164.274887 
	C199.468292,168.476883 195.444244,171.362656 191.352921,170.558868 
	C187.103851,169.724091 184.607361,165.306152 186.034485,160.910767 
	C186.436783,159.671738 187.315414,158.593170 187.923630,157.414200 
	C191.147278,151.165405 188.906784,147.306793 182.117783,147.057449 
	C179.910461,146.976395 176.234589,148.283371 176.266418,144.526886 
	C176.292480,141.449936 179.274078,139.790161 182.340942,139.744308 
	C198.353516,139.504837 196.280014,138.693390 196.353165,151.959198 
	C196.361359,153.445847 196.572388,154.931366 196.895767,156.769531 
z"/>
<path fill="#037CB2" opacity="1.000000" stroke="none" 
	d="
M35.649208,93.962021 
	C35.597919,89.388908 36.051975,85.368164 32.981785,81.706650 
	C30.645063,78.919884 31.887274,75.608109 34.298328,73.141159 
	C36.606308,70.779694 39.449146,70.132774 42.503613,71.758423 
	C45.819187,73.523041 46.300972,76.560585 45.944126,79.901550 
	C45.760159,81.623947 44.593437,82.896210 43.850712,84.370369 
	C40.809116,90.407280 43.104748,94.374184 49.716202,94.739021 
	C51.159035,94.818649 52.985569,94.380157 53.628201,96.162987 
	C54.342552,98.144775 52.655338,99.201180 51.366852,100.167595 
	C47.205910,103.288467 42.490383,102.779655 38.027241,101.389977 
	C34.730103,100.363350 35.879688,96.968163 35.649208,93.962021 
z"/>
<path fill="#037CB2" opacity="1.000000" stroke="none" 
	d="
M120.006088,200.006226 
	C120.063599,196.022385 120.086205,192.530823 120.213272,189.043060 
	C120.234947,188.448349 120.703766,187.869919 121.056549,187.081665 
	C125.386612,187.691238 127.703339,189.562866 127.394287,194.232300 
	C127.120140,198.374298 127.411629,202.550598 127.318466,206.708725 
	C127.242729,210.088989 127.553497,213.064148 130.009628,215.919556 
	C132.406281,218.705795 131.989761,222.339798 129.425034,225.042862 
	C126.895203,227.709198 123.512680,228.263199 120.290009,226.373352 
	C117.057068,224.477509 115.281761,220.882660 117.247925,217.856888 
	C120.877502,212.271271 119.828499,206.384064 120.006088,200.006226 
z"/>
<path fill="#037CB2" opacity="1.000000" stroke="none" 
	d="
M152.199585,205.317902 
	C148.303696,205.144806 144.825790,205.082031 141.347977,205.015610 
	C137.494034,204.942001 135.536469,203.061081 135.666901,199.121597 
	C135.738174,196.969055 135.678513,194.811981 135.759048,192.659988 
	C135.865921,189.803497 138.075165,189.209793 140.237000,188.952103 
	C143.003494,188.622299 142.803070,190.884293 143.026169,192.648468 
	C143.626511,197.395844 148.134598,199.419907 152.574860,196.875946 
	C153.426361,196.388107 154.073441,195.546890 154.919724,195.045868 
	C158.290741,193.050095 161.738602,193.002457 164.466568,195.909882 
	C167.141769,198.761063 167.309525,202.400848 164.942200,205.471985 
	C162.547562,208.578522 159.146759,209.101013 155.574387,207.242264 
	C154.550949,206.709778 153.601151,206.035751 152.199585,205.317902 
z"/>
<path fill="#037CB2" opacity="1.000000" stroke="none" 
	d="
M97.680145,21.963406 
	C97.842262,17.651016 99.995682,15.416007 103.699738,14.781115 
	C106.732857,14.261224 109.359100,15.358951 111.006340,17.969467 
	C113.017906,21.157345 112.688667,24.366613 110.003532,27.042715 
	C108.233330,28.806955 108.333580,30.891836 108.332558,33.040096 
	C108.329262,39.926636 108.331329,46.813179 108.331329,53.946728 
	C103.179688,53.494637 100.700180,51.636162 100.923027,46.991486 
	C101.049980,44.345554 100.700294,41.663471 100.975143,39.040619 
	C101.596344,33.112789 100.191475,27.655558 97.680145,21.963406 
z"/>
<path fill="#037CB2" opacity="1.000000" stroke="none" 
	d="
M92.975098,40.599438 
	C93.115265,43.514141 93.172913,46.000763 93.171875,48.487362 
	C93.170494,51.803402 90.750710,52.774128 88.187378,52.854500 
	C85.453369,52.940228 86.071877,50.427139 85.875954,48.745621 
	C85.376793,44.461590 80.141701,42.635933 75.759583,45.296761 
	C74.635002,45.979614 73.727013,47.092106 72.544044,47.591850 
	C69.318542,48.954460 66.288612,48.437271 63.972618,45.718380 
	C61.659496,43.002865 61.435143,39.883629 63.548801,37.012009 
	C65.572411,34.262726 68.737068,32.448551 71.764290,34.443016 
	C76.359238,37.470371 81.234016,36.885780 86.147774,37.059643 
	C88.798134,37.153419 91.591492,37.055927 92.975098,40.599438 
z"/>
<path fill="#037CB2" opacity="1.000000" stroke="none" 
	d="
M184.806549,71.563377 
	C188.424774,70.165497 191.133545,71.221870 193.158722,73.740036 
	C195.034790,76.072769 195.958954,79.174583 194.065216,81.608261 
	C191.110519,85.405365 191.321915,89.551216 191.291199,93.851929 
	C191.252213,99.311638 185.950485,102.550484 181.304031,99.782455 
	C178.656174,98.205055 178.813049,94.822266 180.849411,93.511375 
	C185.766052,90.346359 184.001297,86.927193 182.141510,83.344345 
	C179.523529,78.300858 180.053741,75.243263 184.806549,71.563377 
z"/>
<path fill="#037CB2" opacity="1.000000" stroke="none" 
	d="
M218.104492,124.155182 
	C220.048019,128.141312 219.486847,131.480499 216.293106,133.839401 
	C213.138916,136.169113 209.580780,135.951599 206.690491,133.267471 
	C204.418167,131.157242 201.840469,131.537354 199.223816,131.386429 
	C195.476257,131.170273 191.646332,132.004349 187.892365,130.725540 
	C187.699585,126.089745 189.401947,123.820786 194.251602,123.996582 
	C199.483963,124.186264 204.677261,124.491531 209.586273,121.305145 
	C212.443878,119.450317 215.692139,121.030388 218.104492,124.155182 
z"/>
<path fill="#037CB2" opacity="1.000000" stroke="none" 
	d="
M96.156281,192.378235 
	C96.856819,197.899109 94.354820,199.653412 89.527664,199.423569 
	C85.436234,199.228790 81.458534,199.119080 77.785446,202.087082 
	C74.814774,204.487518 71.314308,203.240601 68.863205,200.527130 
	C66.333687,197.726868 66.257782,194.400711 68.524422,191.393219 
	C70.834839,188.327637 74.469994,187.611877 77.477592,189.312195 
	C81.822495,191.768539 85.466766,193.343643 90.149384,189.905228 
	C91.622124,188.823776 94.764557,189.322739 96.156281,192.378235 
z"/>
<path fill="#037CB2" opacity="1.000000" stroke="none" 
	d="
M39.315315,168.620590 
	C36.495087,165.005051 36.408455,161.592331 39.061447,158.329895 
	C41.832035,154.922821 40.416973,150.987793 40.627132,147.290344 
	C40.812981,144.020569 41.683651,141.854355 45.396172,141.677078 
	C49.831245,141.465286 51.708359,143.829453 49.621258,147.844437 
	C47.546158,151.836273 47.733822,155.207703 50.188534,158.944839 
	C52.271687,162.116333 52.280064,165.686462 49.367058,168.504562 
	C46.354988,171.418472 42.962795,171.790085 39.315315,168.620590 
z"/>
<path fill="#037CB2" opacity="1.000000" stroke="none" 
	d="
M161.035339,43.090786 
	C161.749084,46.880165 161.806366,50.219807 158.332260,52.254440 
	C155.094818,54.150478 152.067551,53.457119 149.086273,51.287045 
	C146.291183,49.252480 143.058136,49.197941 140.232864,51.080826 
	C137.828033,52.683491 135.660645,52.206146 133.796478,50.820751 
	C131.982468,49.472641 132.503265,47.149467 133.077011,45.272007 
	C133.868927,42.680691 136.179718,42.656132 138.399582,42.644165 
	C142.993927,42.619396 147.384583,42.781483 151.619736,39.766998 
	C155.067200,37.313168 158.587418,39.236580 161.035339,43.090786 
z"/>
<path fill="#037CB2" opacity="1.000000" stroke="none" 
	d="
M23.710514,119.881035 
	C19.424067,121.914925 16.210348,120.915138 13.948228,117.324745 
	C12.029785,114.279831 12.477007,111.171432 14.950469,108.665451 
	C17.814816,105.763443 21.467701,105.790085 24.492325,107.975899 
	C28.638077,110.971909 33.143600,109.364670 37.463825,109.940056 
	C39.380051,110.195251 42.313099,109.234039 41.960217,112.831879 
	C41.698467,115.500549 40.632637,117.292984 37.294254,117.410583 
	C32.825768,117.568001 27.904064,115.760368 23.710514,119.881035 
z"/>
<path fill="#037CB2" opacity="1.000000" stroke="none" 
	d="
M106.897217,98.809982 
	C111.080894,98.238022 113.092911,99.904640 114.345268,103.440384 
	C118.103790,114.051720 122.114395,124.573761 126.026260,135.129639 
	C118.985893,137.640305 116.052475,136.876724 111.801979,131.771393 
	C110.123352,129.755173 100.754051,129.418045 99.881569,131.716843 
	C97.010963,139.280151 91.369186,135.563675 86.481064,136.122009 
	C86.234520,132.163330 88.017624,129.446014 89.087967,126.536774 
	C91.670555,119.517181 94.499886,112.579689 96.820801,105.475502 
	C98.423676,100.569214 100.875847,97.629028 106.897217,98.809982 
M107.605370,121.291214 
	C109.080894,118.100288 107.448669,115.695107 105.823517,112.863937 
	C102.404587,120.115707 102.515495,120.784103 107.605370,121.291214 
z"/>
<path fill="#037CB2" opacity="1.000000" stroke="none" 
	d="
M128.785110,101.301270 
	C131.634018,97.103073 135.609741,98.669022 138.874481,99.198654 
	C142.105698,99.722839 141.035126,103.231613 141.066818,105.553780 
	C141.182480,114.028221 140.893265,122.513046 141.194000,130.978409 
	C141.393784,136.601944 138.071747,136.371338 134.129440,136.458298 
	C130.202927,136.544907 128.427338,135.526947 128.558426,131.181595 
	C128.854019,121.384422 128.695648,111.573570 128.785110,101.301270 
z"/>
</svg>