<svg version="1.1" id="Layer_1" xmlns="http://www.w3.org/2000/svg" xmlns:xlink="http://www.w3.org/1999/xlink" x="0px" y="0px"
	 width="100%" viewBox="0 0 702 788" enable-background="new 0 0 702 788" xml:space="preserve">
<path fill="#FFFFFF" opacity="1.000000" stroke="none" 
	d="
M703.000000,143.000000 
	C703.000000,155.022644 703.000000,167.045288 702.609009,179.533508 
	C698.482849,178.983673 694.747620,177.968246 690.775757,176.664322 
	C688.152283,175.797165 685.793701,175.024826 683.373901,174.671539 
	C668.641602,172.520599 654.172424,173.826492 641.672974,182.176270 
	C632.368774,188.391586 623.923584,196.082779 615.825195,203.874634 
	C597.699158,221.314453 580.028320,239.227249 562.097778,256.487335 
	C562.015808,249.027847 562.029236,242.028351 561.995850,235.029068 
	C561.936768,222.662796 555.235107,216.002350 542.856079,216.001312 
	C489.690552,215.996872 436.525055,215.999420 383.359528,215.999405 
	C381.610748,215.999405 379.861969,215.999405 378.000549,215.999405 
	C378.000549,164.793137 378.007935,114.300529 377.997406,63.807922 
	C377.992126,38.538387 359.819885,20.188627 334.634674,20.179274 
	C242.136673,20.144920 149.638626,20.148125 57.140682,20.227179 
	C53.186527,20.230558 49.120796,20.693560 45.298283,21.682013 
	C25.766920,26.732569 13.882815,42.987358 13.882016,64.353088 
	C13.874651,261.348846 13.877250,458.344635 13.877452,655.340393 
	C13.877476,678.006592 13.749657,700.673706 13.920925,723.338623 
	C14.075439,743.786377 28.659863,760.555176 49.024551,764.398804 
	C49.110088,764.974854 49.112797,765.209229 48.641830,765.405518 
	C32.445442,765.244934 16.722721,765.122498 1.000000,765.000000 
	C1.000000,606.644043 1.000000,448.288055 1.352035,289.303253 
	C3.138964,279.403290 4.802596,270.159119 5.901142,260.848297 
	C6.369521,256.878510 5.129843,253.037338 1.000000,251.000000 
	C1.000000,167.705414 1.000000,84.410828 1.000000,1.000000 
	C227.355942,1.000000 453.711914,1.000000 680.396179,1.303135 
	C679.464294,2.930414 678.231934,4.282414 676.939697,5.574487 
	C659.879272,22.632853 642.786987,39.659538 625.754700,56.745945 
	C618.656128,63.867023 618.819885,74.777039 626.132812,81.326164 
	C630.491150,85.433159 634.701416,89.243050 638.970337,93.391220 
	C643.350891,98.157982 647.672729,102.586456 652.136963,107.314583 
	C655.861206,111.062569 659.443054,114.510902 663.164307,118.262772 
	C667.875610,123.019859 672.447449,127.473404 677.165649,132.233124 
	C678.688782,133.697693 680.240662,134.702682 681.412720,136.040436 
	C687.243225,142.695114 694.238220,145.534882 703.000000,143.000000 
z"/>
<path fill="#FFFFFF" opacity="1.000000" stroke="none" 
	d="
M703.000000,710.000000 
	C703.000000,736.318909 703.000000,762.637756 703.000000,788.960571 
	C469.000000,788.964478 235.000000,788.964478 1.000000,788.964478 
	C1.000000,782.932251 1.000000,776.935486 1.448495,770.320312 
	C4.061855,769.681885 6.226721,769.644409 8.391586,769.644348 
	C228.254654,769.641724 448.117706,769.641907 667.980774,769.641907 
	C669.146729,769.641907 670.401611,769.916504 671.456909,769.574707 
	C672.895630,769.108765 674.182190,768.172729 675.533997,767.438232 
	C674.096313,766.744934 672.661133,765.452759 671.220581,765.446716 
	C642.905396,765.327698 614.589539,765.363464 586.273865,765.345764 
	C584.452087,765.344604 582.630493,765.165222 580.797974,764.595764 
	C580.787170,755.842529 580.787170,747.562378 580.787170,738.989929 
	C571.213806,738.989929 562.126770,738.989929 552.743896,738.610352 
	C553.984741,722.805237 555.521545,707.379700 557.393433,692.036682 
	C579.592163,706.143066 601.907288,709.643005 625.293335,695.155151 
	C627.724915,697.200195 629.863708,699.095459 632.157471,701.291504 
	C647.623840,713.367310 664.712402,718.574219 683.935364,714.996704 
	C690.377075,713.797791 696.649902,711.691467 703.000000,710.000000 
z"/>
<path fill="#D7E6EF" opacity="1.000000" stroke="none" 
	d="
M703.000000,321.000000 
	C703.000000,335.354218 703.000000,349.708466 702.648193,364.567352 
	C694.465149,372.281860 686.456177,379.309967 678.847839,386.747833 
	C669.474548,395.911102 660.524597,405.506012 651.222778,414.744232 
	C643.766479,422.149597 636.011414,429.253113 628.470764,436.574890 
	C610.878418,453.656647 593.280273,470.733185 575.789856,487.919067 
	C562.201416,501.270996 548.793274,514.806213 535.237122,528.191345 
	C534.005371,529.407532 532.278442,530.122375 530.505493,530.893555 
	C526.104858,526.411621 521.980103,522.106018 517.660889,517.546631 
	C514.644409,515.545532 511.822479,513.798157 509.031921,511.702637 
	C513.668274,506.445740 518.129700,501.391846 522.911255,496.661682 
	C530.421387,489.232391 538.266296,482.141144 545.761169,474.697021 
	C576.264587,444.400269 606.676208,414.011078 637.154907,383.689392 
	C642.053955,378.815582 647.211609,374.200958 652.089783,369.307129 
	C658.352722,363.024292 664.365234,356.491394 670.648865,350.229980 
	C677.307373,343.595001 684.047302,337.032532 690.967163,330.672821 
	C694.747925,327.198090 698.974487,324.208435 703.000000,321.000000 
z"/>
<path fill="#D5ECF1" opacity="1.000000" stroke="none" 
	d="
M703.000000,267.000000 
	C703.000000,273.687653 703.000000,280.375275 702.655273,287.565308 
	C695.253723,294.498505 688.007385,300.734924 681.175354,307.396271 
	C660.016113,328.026886 638.999695,348.804199 617.955444,369.552551 
	C591.983521,395.159332 566.054993,420.810211 540.077698,446.411499 
	C521.869324,464.356262 503.563232,482.202362 485.428772,500.221313 
	C482.908966,502.725037 481.124451,505.968750 478.617432,508.979309 
	C467.942841,510.846741 458.631195,514.904114 449.844513,521.008789 
	C443.333038,514.977539 437.185425,508.982300 431.333435,502.835754 
	C432.537506,501.508911 433.331299,500.218994 434.372070,499.175446 
	C446.157379,487.358643 457.925934,475.524231 469.808807,463.805908 
	C481.540100,452.237091 493.422394,440.821442 505.152222,429.251160 
	C506.107330,428.309021 506.397736,426.693115 507.456055,425.291443 
	C521.592468,425.075073 535.269897,424.957520 549.305847,424.870667 
	C557.055969,422.127594 561.551514,417.144104 561.908875,408.527863 
	C562.042419,406.404358 562.104614,404.701385 562.501709,402.955994 
	C563.643799,402.355560 564.549133,401.898651 565.243652,401.224579 
	C577.928894,388.914001 590.689392,376.678619 603.231995,364.223907 
	C625.709656,341.903625 648.005615,319.400330 670.475220,297.071899 
	C679.827820,287.777954 689.408691,278.712677 698.950317,269.611084 
	C700.091797,268.522217 701.640198,267.859985 703.000000,267.000000 
z"/>
<path fill="#D7E1ED" opacity="1.000000" stroke="none" 
	d="
M530.781494,531.070007 
	C532.278442,530.122375 534.005371,529.407532 535.237122,528.191345 
	C548.793274,514.806213 562.201416,501.270996 575.789856,487.919067 
	C593.280273,470.733185 610.878418,453.656647 628.470764,436.574890 
	C636.011414,429.253113 643.766479,422.149597 651.222778,414.744232 
	C660.524597,405.506012 669.474548,395.911102 678.847839,386.747833 
	C686.456177,379.309967 694.465149,372.281860 702.648193,365.036011 
	C703.000000,379.020905 703.000000,393.041779 702.655090,407.565247 
	C700.897278,409.188080 699.372314,410.193573 698.088501,411.446228 
	C682.225281,426.923950 666.288147,442.328278 650.581970,457.964355 
	C615.323669,493.065308 580.217468,528.319153 544.936951,563.397644 
	C541.971863,566.345642 538.161743,568.443665 534.785095,570.524719 
	C538.595825,556.568359 537.182007,543.560913 530.781494,531.070007 
z"/>
<path fill="#D7EAF1" opacity="1.000000" stroke="none" 
	d="
M478.999542,508.869934 
	C481.124451,505.968750 482.908966,502.725037 485.428772,500.221313 
	C503.563232,482.202362 521.869324,464.356262 540.077698,446.411499 
	C566.054993,420.810211 591.983521,395.159332 617.955444,369.552551 
	C638.999695,348.804199 660.016113,328.026886 681.175354,307.396271 
	C688.007385,300.734924 695.253723,294.498505 702.655273,288.033875 
	C703.000000,298.687561 703.000000,309.375122 703.000000,320.531342 
	C698.974487,324.208435 694.747925,327.198090 690.967163,330.672821 
	C684.047302,337.032532 677.307373,343.595001 670.648865,350.229980 
	C664.365234,356.491394 658.352722,363.024292 652.089783,369.307129 
	C647.211609,374.200958 642.053955,378.815582 637.154907,383.689392 
	C606.676208,414.011078 576.264587,444.400269 545.761169,474.697021 
	C538.266296,482.141144 530.421387,489.232391 522.911255,496.661682 
	C518.129700,501.391846 513.668274,506.445740 508.662781,511.605103 
	C498.757996,508.410858 489.005707,507.396240 478.999542,508.869934 
z"/>
<path fill="#D8DEEC" opacity="1.000000" stroke="none" 
	d="
M534.744202,570.936646 
	C538.161743,568.443665 541.971863,566.345642 544.936951,563.397644 
	C580.217468,528.319153 615.323669,493.065308 650.581970,457.964355 
	C666.288147,442.328278 682.225281,426.923950 698.088501,411.446228 
	C699.372314,410.193573 700.897278,409.188080 702.655090,408.033875 
	C703.000000,420.354218 703.000000,432.708466 702.655396,445.565186 
	C701.369080,446.716949 700.312439,447.247711 699.502930,448.033112 
	C686.654480,460.498322 673.775085,472.932739 661.027100,485.500305 
	C637.384521,508.808319 613.810913,532.186340 590.231689,555.558533 
	C574.499878,571.152222 558.841248,586.819946 543.062134,602.365417 
	C540.727417,604.665588 539.242737,606.937256 540.299133,610.240540 
	C540.230896,610.216125 540.151184,610.102600 539.830200,609.957336 
	C533.604919,604.482788 527.700500,599.153564 521.956665,593.526245 
	C526.326172,585.797668 530.535217,578.367188 534.744202,570.936646 
z"/>
<path fill="#D6F5F6" opacity="1.000000" stroke="none" 
	d="
M691.012329,176.952820 
	C694.747620,177.968246 698.482849,178.983673 702.609009,179.999542 
	C703.000000,190.354233 703.000000,200.708450 702.655334,211.565170 
	C701.369324,212.716553 700.304688,213.240753 699.504395,214.032288 
	C665.340820,247.821243 631.190125,281.623230 597.064514,315.450531 
	C587.070251,325.357422 577.197571,335.387390 567.153442,345.243042 
	C565.847717,346.524292 563.846619,347.097015 562.095215,347.534363 
	C562.071167,332.712982 562.119568,318.355194 562.508911,303.955963 
	C564.617432,302.725372 566.629089,301.783051 568.116760,300.311127 
	C608.026672,260.824585 647.890320,221.291397 687.714905,181.718857 
	C689.062317,180.379990 689.924194,178.552521 691.012329,176.952820 
z"/>
<path fill="#D8DAEA" opacity="1.000000" stroke="none" 
	d="
M540.367371,610.264893 
	C539.242737,606.937256 540.727417,604.665588 543.062134,602.365417 
	C558.841248,586.819946 574.499878,571.152222 590.231689,555.558533 
	C613.810913,532.186340 637.384521,508.808319 661.027100,485.500305 
	C673.775085,472.932739 686.654480,460.498322 699.502930,448.033112 
	C700.312439,447.247711 701.369080,446.716949 702.655396,446.033875 
	C703.000000,461.020905 703.000000,476.041779 702.652039,491.566040 
	C701.482544,492.600983 700.546997,493.014435 699.856567,493.681610 
	C688.469360,504.685577 677.067871,515.675415 665.764709,526.765381 
	C657.366394,535.005249 649.147095,543.427429 640.770691,551.689880 
	C631.271667,561.059753 621.646179,570.301514 612.152405,579.676697 
	C605.699951,586.048645 599.379517,592.554199 592.578735,598.997803 
	C589.076538,598.490051 586.008789,597.875793 582.912292,597.497681 
	C569.285522,595.833496 556.851257,598.674927 545.714844,607.637939 
	C543.719238,608.633423 542.043274,609.449158 540.367371,610.264893 
z"/>
<path fill="#D9D6E8" opacity="1.000000" stroke="none" 
	d="
M593.000000,599.000000 
	C599.379517,592.554199 605.699951,586.048645 612.152405,579.676697 
	C621.646179,570.301514 631.271667,561.059753 640.770691,551.689880 
	C649.147095,543.427429 657.366394,535.005249 665.764709,526.765381 
	C677.067871,515.675415 688.469360,504.685577 699.856567,493.681610 
	C700.546997,493.014435 701.482544,492.600983 702.652039,492.034729 
	C703.000000,514.687561 703.000000,537.375122 702.633179,560.535522 
	C700.994263,561.688538 699.487854,562.125916 698.489746,563.089844 
	C693.403503,568.001587 688.498413,573.100342 683.437805,578.039307 
	C672.363708,588.847107 661.176697,599.539673 650.150513,610.395874 
	C644.296631,616.159546 638.682434,622.166687 632.666382,627.901367 
	C631.191406,626.576965 629.835327,625.545105 628.857178,624.231873 
	C622.930908,616.275574 615.730469,609.800415 606.850952,605.334961 
	C602.318359,603.055603 597.622192,601.101257 593.000000,599.000000 
z"/>
<path fill="#D9D0E5" opacity="1.000000" stroke="none" 
	d="
M632.960022,628.063904 
	C638.682434,622.166687 644.296631,616.159546 650.150513,610.395874 
	C661.176697,599.539673 672.363708,588.847107 683.437805,578.039307 
	C688.498413,573.100342 693.403503,568.001587 698.489746,563.089844 
	C699.487854,562.125916 700.994263,561.688538 702.633179,561.004150 
	C703.000000,584.020874 703.000000,607.041809 702.637085,630.537476 
	C701.788147,631.101990 701.129761,631.018616 700.841309,631.306335 
	C692.477600,639.648010 684.203979,648.080444 675.804626,656.385864 
	C665.392883,666.681152 654.797180,676.791626 644.453796,687.154419 
	C640.076477,691.539978 636.139587,696.365234 632.002563,700.990662 
	C629.863708,699.095459 627.724915,697.200195 625.306641,694.901855 
	C625.041565,694.330261 625.055847,694.161743 625.410095,693.962402 
	C639.431091,684.685242 646.260071,661.566895 639.971191,645.894531 
	C637.592896,639.967529 635.294739,634.008423 632.960022,628.063904 
z"/>
<path fill="#D6F1F4" opacity="1.000000" stroke="none" 
	d="
M562.167664,347.997955 
	C563.846619,347.097015 565.847717,346.524292 567.153442,345.243042 
	C577.197571,335.387390 587.070251,325.357422 597.064514,315.450531 
	C631.190125,281.623230 665.340820,247.821243 699.504395,214.032288 
	C700.304688,213.240753 701.369324,212.716553 702.655334,212.033829 
	C703.000000,222.354233 703.000000,232.708450 702.655334,243.565186 
	C701.253174,244.832565 700.069214,245.470673 699.156433,246.380692 
	C667.172180,278.266479 635.248596,310.213287 603.233276,342.067871 
	C590.753174,354.485382 578.087463,366.716675 565.459534,378.984711 
	C564.559509,379.859100 563.274048,380.336761 562.094910,380.535309 
	C562.070557,369.380463 562.119141,358.689209 562.167664,347.997955 
z"/>
<path fill="#DACBE3" opacity="1.000000" stroke="none" 
	d="
M632.157471,701.291504 
	C636.139587,696.365234 640.076477,691.539978 644.453796,687.154419 
	C654.797180,676.791626 665.392883,666.681152 675.804626,656.385864 
	C684.203979,648.080444 692.477600,639.648010 700.841309,631.306335 
	C701.129761,631.018616 701.788147,631.101990 702.637085,631.006165 
	C703.000000,657.020874 703.000000,683.041809 703.000000,709.531311 
	C696.649902,711.691467 690.377075,713.797791 683.935364,714.996704 
	C664.712402,718.574219 647.623840,713.367310 632.157471,701.291504 
z"/>
<path fill="#D6EFF3" opacity="1.000000" stroke="none" 
	d="
M562.167786,380.998901 
	C563.274048,380.336761 564.559509,379.859100 565.459534,378.984711 
	C578.087463,366.716675 590.753174,354.485382 603.233276,342.067871 
	C635.248596,310.213287 667.172180,278.266479 699.156433,246.380692 
	C700.069214,245.470673 701.253174,244.832565 702.655334,244.033844 
	C703.000000,251.354248 703.000000,258.708496 703.000000,266.531372 
	C701.640198,267.859985 700.091797,268.522217 698.950317,269.611084 
	C689.408691,278.712677 679.827820,287.777954 670.475220,297.071899 
	C648.005615,319.400330 625.709656,341.903625 603.231995,364.223907 
	C590.689392,376.678619 577.928894,388.914001 565.243652,401.224579 
	C564.549133,401.898651 563.643799,402.355560 562.429321,402.492401 
	C562.070679,395.047150 562.119202,388.023010 562.167786,380.998901 
z"/>
<path fill="#444448" opacity="1.000000" stroke="none" 
	d="
M580.808777,765.068848 
	C582.630493,765.165222 584.452087,765.344604 586.273865,765.345764 
	C614.589539,765.363464 642.905396,765.327698 671.220581,765.446716 
	C672.661133,765.452759 674.096313,766.744934 675.533997,767.438232 
	C674.182190,768.172729 672.895630,769.108765 671.456909,769.574707 
	C670.401611,769.916504 669.146729,769.641907 667.980774,769.641907 
	C448.117706,769.641907 228.254654,769.641724 8.391586,769.644348 
	C6.226721,769.644409 4.061855,769.681885 1.448495,769.850952 
	C1.000000,768.611084 1.000000,767.222229 1.000000,765.416626 
	C16.722721,765.122498 32.445442,765.244934 48.986294,765.606201 
	C50.634762,765.885071 51.465103,765.960144 52.295441,765.960205 
	C147.730484,765.965027 243.165512,765.966553 338.600555,765.942322 
	C340.065491,765.941956 341.530334,765.620728 343.462585,765.411011 
	C391.684082,765.367859 439.438293,765.370667 487.192444,765.333191 
	C489.324860,765.331482 491.457001,764.963562 494.079895,764.829712 
	C523.316650,764.951782 552.062683,765.010315 580.808777,765.068848 
z"/>
<path fill="#D6EFF4" opacity="1.000000" stroke="none" 
	d="
M638.911743,93.052933 
	C634.701416,89.243050 630.491150,85.433159 626.170776,80.978485 
	C627.291382,78.804916 628.385803,77.138321 629.772888,75.767891 
	C652.801880,53.014874 675.857605,30.288794 698.955750,7.605981 
	C700.076294,6.505595 701.641724,5.858286 703.000000,4.999994 
	C703.000000,13.687563 703.000000,22.375126 702.634766,31.535259 
	C700.644409,33.040482 698.768921,33.820507 697.432800,35.144741 
	C683.352173,49.100166 669.381714,63.166656 655.326965,77.148415 
	C649.926147,82.521210 644.387573,87.755539 638.911743,93.052933 
z"/>
<path fill="#D6F9F8" opacity="1.000000" stroke="none" 
	d="
M703.000000,4.499995 
	C701.641724,5.858286 700.076294,6.505595 698.955750,7.605981 
	C675.857605,30.288794 652.801880,53.014874 629.772888,75.767891 
	C628.385803,77.138321 627.291382,78.804916 626.022827,80.681381 
	C618.819885,74.777039 618.656128,63.867023 625.754700,56.745945 
	C642.786987,39.659538 659.879272,22.632853 676.939697,5.574487 
	C678.231934,4.282414 679.464294,2.930414 680.862244,1.303135 
	C687.500000,1.000000 694.017761,1.283444 700.492371,0.878413 
	C703.650085,0.680882 702.951904,2.345620 703.000000,4.499995 
z"/>
<path fill="#D7E5EF" opacity="1.000000" stroke="none" 
	d="
M638.970337,93.391220 
	C644.387573,87.755539 649.926147,82.521210 655.326965,77.148415 
	C669.381714,63.166656 683.352173,49.100166 697.432800,35.144741 
	C698.768921,33.820507 700.644409,33.040482 702.634766,32.003914 
	C703.000000,40.020901 703.000000,48.041798 702.634766,56.535282 
	C700.769775,57.915241 699.018372,58.568886 697.808655,59.768661 
	C683.343506,74.114410 668.942261,88.524803 654.585876,102.979408 
	C653.484375,104.088440 652.847473,105.658943 651.994629,107.014938 
	C647.672729,102.586456 643.350891,98.157982 638.970337,93.391220 
z"/>
<path fill="#D8DEEC" opacity="1.000000" stroke="none" 
	d="
M652.136963,107.314590 
	C652.847473,105.658943 653.484375,104.088440 654.585876,102.979408 
	C668.942261,88.524803 683.343506,74.114410 697.808655,59.768661 
	C699.018372,58.568886 700.769775,57.915241 702.634766,57.003933 
	C703.000000,64.354256 703.000000,71.708504 702.655334,79.565216 
	C700.782776,81.302757 699.141846,82.422409 697.744812,83.791069 
	C686.145996,95.154419 674.592224,106.563812 663.024841,117.959244 
	C659.443054,114.510902 655.861206,111.062569 652.136963,107.314590 
z"/>
<path fill="#D9D6E8" opacity="1.000000" stroke="none" 
	d="
M663.164307,118.262787 
	C674.592224,106.563812 686.145996,95.154419 697.744812,83.791069 
	C699.141846,82.422409 700.782776,81.302757 702.655334,80.033844 
	C703.000000,88.687561 703.000000,97.375130 702.655029,106.565125 
	C696.201477,112.722748 690.022339,118.304489 684.017700,124.068008 
	C681.494812,126.489578 679.341003,129.295685 677.019348,131.926971 
	C672.447449,127.473404 667.875610,123.019859 663.164307,118.262787 
z"/>
<path fill="#D9D0E5" opacity="1.000000" stroke="none" 
	d="
M677.165649,132.233124 
	C679.341003,129.295685 681.494812,126.489578 684.017700,124.068008 
	C690.022339,118.304489 696.201477,112.722748 702.655029,107.033783 
	C703.000000,118.687561 703.000000,130.375122 703.000000,142.531342 
	C694.238220,145.534882 687.243225,142.695114 681.412720,136.040436 
	C680.240662,134.702682 678.688782,133.697693 677.165649,132.233124 
z"/>
<path fill="#0ea5e9" opacity="1.000000" stroke="none" 
	d="
M1.000000,251.468658 
	C5.129843,253.037338 6.369521,256.878510 5.901142,260.848297 
	C4.802596,270.159119 3.138964,279.403290 1.352035,288.837219 
	C1.000000,276.645782 1.000000,264.291534 1.000000,251.468658 
z"/>
<path fill="#0ea5e9" opacity="1.000000" stroke="none" 
	d="
M562.094910,380.535309 
	C562.119202,388.023010 562.070679,395.047150 562.094482,402.534851 
	C562.104614,404.701385 562.042419,406.404358 561.681763,408.522583 
	C561.383362,408.937866 560.932190,408.991364 560.889648,408.524902 
	C560.847168,354.838593 560.847168,301.618774 560.847168,248.433502 
	C479.156067,248.433502 398.266113,248.433502 317.124908,248.433502 
	C317.124908,302.799164 317.124908,356.896271 316.911285,410.930054 
	C316.697662,410.866699 316.256714,410.930908 316.140259,410.479340 
	C315.959808,408.196930 315.840240,406.366058 315.839905,404.535217 
	C315.830017,348.545990 315.830414,292.556763 315.838806,236.567551 
	C315.839050,234.903549 315.856873,233.231461 316.012695,231.576904 
	C316.866974,222.505325 323.818085,216.091064 332.891418,216.007660 
	C337.890076,215.961700 342.889435,215.999435 347.888489,215.999435 
	C353.470062,215.999435 359.051636,215.999420 364.565491,215.999420 
	C364.693787,214.738922 364.786774,214.251602 364.786835,213.764252 
	C364.795685,163.607239 364.877350,113.450050 364.757050,63.293335 
	C364.714233,45.441166 352.301849,33.340714 334.323669,33.332767 
	C242.341385,33.292118 150.359055,33.297554 58.376762,33.326801 
	C38.877987,33.333000 27.053308,45.324650 27.052860,64.935211 
	C27.047878,283.059906 27.049803,501.184570 27.049845,719.309265 
	C27.049847,721.083435 27.049845,722.857666 27.049845,724.734253 
	C139.858963,724.734253 252.070038,724.734253 364.398010,724.734253 
	C364.398010,624.775391 364.398010,525.082153 364.398010,424.830414 
	C352.347900,424.830414 340.698730,424.830414 329.073792,424.487732 
	C329.073273,423.917358 329.048492,423.689667 329.480652,423.565918 
	C330.432800,423.722046 330.928009,423.820099 331.423187,423.819977 
	C403.939362,423.798157 476.455566,423.769226 548.944031,424.015015 
	C548.926575,424.472900 548.936890,424.656433 548.947266,424.839966 
	C535.269897,424.957520 521.592468,425.075073 506.995789,425.199158 
	C496.112701,425.193420 486.148834,425.154602 476.185089,425.173920 
	C451.115784,425.222565 426.046570,425.297485 400.517273,425.277191 
	C392.789490,425.192535 385.521698,425.192535 378.001068,425.192535 
	C378.001068,427.781189 378.001099,429.764526 378.001099,431.747864 
	C378.001068,528.561584 378.016052,625.375366 377.989258,722.189087 
	C377.983429,743.326721 363.783875,760.241272 342.574524,763.952881 
	C338.115784,763.952454 334.122070,764.109680 330.128326,764.110718 
	C267.859528,764.126221 205.590744,764.128479 143.321945,764.118713 
	C111.861870,764.113770 80.401794,764.078613 48.941723,764.057129 
	C28.659863,760.555176 14.075439,743.786377 13.920925,723.338623 
	C13.749657,700.673706 13.877476,678.006592 13.877452,655.340393 
	C13.877250,458.344635 13.874651,261.348846 13.882016,64.353088 
	C13.882815,42.987358 25.766920,26.732569 45.298283,21.682013 
	C49.120796,20.693560 53.186527,20.230558 57.140682,20.227179 
	C149.638626,20.148125 242.136673,20.144920 334.634674,20.179274 
	C359.819885,20.188627 377.992126,38.538387 377.997406,63.807922 
	C378.007935,114.300529 378.000549,164.793137 378.000549,215.999405 
	C379.861969,215.999405 381.610748,215.999405 383.359528,215.999405 
	C436.525055,215.999420 489.690552,215.996872 542.856079,216.001312 
	C555.235107,216.002350 561.936768,222.662796 561.995850,235.029068 
	C562.029236,242.028351 562.015808,249.027847 562.020386,256.954742 
	C562.067444,273.253967 562.117737,288.625702 562.167969,303.997437 
	C562.119568,318.355194 562.071167,332.712982 562.095215,347.534363 
	C562.119141,358.689209 562.070557,369.380463 562.094910,380.535309 
M536.207886,238.959778 
	C539.064270,240.054504 542.058350,242.307755 544.746765,241.988434 
	C549.475891,241.426712 551.924988,235.957962 550.568787,231.221085 
	C549.260071,226.649994 545.472717,223.993500 541.444214,224.821091 
	C536.759644,225.783463 534.068848,230.137894 534.968933,235.419861 
	C535.132263,236.378647 535.590637,237.287186 536.207886,238.959778 
z"/>
<path fill="#D6FBF9" opacity="1.000000" stroke="none" 
	d="
M562.508972,303.955963 
	C562.117737,288.625702 562.067444,273.253967 562.094666,257.414825 
	C580.028320,239.227249 597.699158,221.314453 615.825195,203.874634 
	C623.923584,196.082779 632.368774,188.391586 641.672974,182.176270 
	C654.172424,173.826492 668.641602,172.520599 683.373901,174.671539 
	C685.793701,175.024826 688.152283,175.797165 690.775757,176.664307 
	C689.924194,178.552521 689.062317,180.379990 687.714905,181.718857 
	C647.890320,221.291397 608.026672,260.824585 568.116760,300.311127 
	C566.629089,301.783051 564.617432,302.725372 562.508972,303.955963 
z"/>
<path fill="#858688" opacity="1.000000" stroke="none" 
	d="
M49.024551,764.398804 
	C80.401794,764.078613 111.861870,764.113770 143.321945,764.118713 
	C205.590744,764.128479 267.859528,764.126221 330.128326,764.110718 
	C334.122070,764.109680 338.115784,763.952454 342.495300,764.303589 
	C342.919098,764.975891 342.957153,765.212585 342.995239,765.449219 
	C341.530334,765.620728 340.065491,765.941956 338.600555,765.942322 
	C243.165512,765.966553 147.730484,765.965027 52.295441,765.960205 
	C51.465103,765.960144 50.634762,765.885071 49.459961,765.644287 
	C49.112797,765.209229 49.110088,764.974854 49.024551,764.398804 
z"/>
<path fill="#57585B" opacity="1.000000" stroke="none" 
	d="
M580.797974,764.595825 
	C552.062683,765.010315 523.316650,764.951782 494.088806,764.376953 
	C493.607086,755.655334 493.607086,747.449951 493.607086,738.730164 
	C496.602539,738.730164 499.037262,738.802002 501.466339,738.715515 
	C507.001923,738.518494 512.534729,738.243835 518.377808,738.144653 
	C519.332031,738.497742 519.977234,738.706909 521.046021,738.837219 
	C530.875183,738.800781 540.280762,738.843201 550.104309,738.924805 
	C551.361450,738.972656 552.200562,738.981262 553.039734,738.989929 
	C562.126770,738.989929 571.213806,738.989929 580.787170,738.989929 
	C580.787170,747.562378 580.787170,755.842529 580.797974,764.595825 
z"/>
<path fill="#7BC8A7" opacity="1.000000" stroke="none" 
	d="
M625.070190,693.993164 
	C625.055847,694.161743 625.041565,694.330261 625.013916,694.752075 
	C601.907288,709.643005 579.592163,706.143066 557.229370,691.766602 
	C556.157776,691.247131 555.585449,691.080200 554.885010,690.609253 
	C549.527832,684.359985 543.635071,678.868469 539.199463,672.380737 
	C527.835876,655.759583 525.074158,631.236084 539.352478,613.431641 
	C539.998230,612.626404 539.901855,611.225830 540.151184,610.102600 
	C540.151184,610.102600 540.230896,610.216125 540.299133,610.240479 
	C542.043274,609.449158 543.719238,608.633423 545.693359,608.051025 
	C545.643433,609.026733 545.388916,609.832520 544.933655,610.501892 
	C536.382324,623.074524 535.352295,636.536133 539.716553,650.844421 
	C543.362183,662.796448 549.997742,672.661865 559.276733,680.883850 
	C571.106506,691.365967 584.744812,697.982361 600.673584,697.777954 
	C608.820618,697.673401 616.938904,695.326599 625.070190,693.993164 
z"/>
<path fill="#444448" opacity="1.000000" stroke="none" 
	d="
M555.013062,690.913208 
	C555.585449,691.080200 556.157776,691.247131 556.894287,691.684082 
	C555.521545,707.379700 553.984741,722.805237 552.743896,738.610352 
	C552.200562,738.981262 551.361450,738.972656 550.217651,738.504028 
	C551.613037,722.333740 553.313049,706.623474 555.013062,690.913208 
z"/>
<path fill="#78C7A5" opacity="1.000000" stroke="none" 
	d="
M478.617432,508.979309 
	C489.005707,507.396240 498.757996,508.410858 508.631439,511.953247 
	C511.822479,513.798157 514.644409,515.545532 517.729004,517.920654 
	C518.671143,519.870239 519.193726,521.305298 520.054138,522.496216 
	C528.770020,534.560852 529.670227,548.084167 526.896851,562.004883 
	C524.985596,571.597717 520.200012,580.028564 513.760620,587.399292 
	C501.417297,601.527954 485.982941,610.078308 467.134125,610.787964 
	C459.173340,611.087585 451.123077,609.010071 442.793823,607.881775 
	C441.159760,606.753052 439.734131,605.872131 438.547485,604.740662 
	C420.604553,587.631775 419.975830,561.650696 432.108185,542.049072 
	C436.912537,534.286926 444.103851,528.002258 450.208344,521.044861 
	C458.631195,514.904114 467.942841,510.846741 478.617432,508.979309 
z"/>
<path fill="#5ABA91" opacity="1.000000" stroke="none" 
	d="
M443.113464,608.013062 
	C451.123077,609.010071 459.173340,611.087585 467.134125,610.787964 
	C485.982941,610.078308 501.417297,601.527954 513.760620,587.399292 
	C520.200012,580.028564 524.985596,571.597717 526.896851,562.004883 
	C529.670227,548.084167 528.770020,534.560852 520.054138,522.496216 
	C519.193726,521.305298 518.671143,519.870239 517.923584,518.174500 
	C521.980103,522.106018 526.104858,526.411621 530.505493,530.893555 
	C537.182007,543.560913 538.595825,556.568359 534.785095,570.524719 
	C530.535217,578.367188 526.326172,585.797668 521.684692,593.714172 
	C516.151794,598.755676 511.051483,603.311218 505.645447,607.860962 
	C504.878876,608.231445 504.417999,608.607544 503.594421,608.998657 
	C495.754089,611.539307 488.446167,615.059509 480.761383,616.370667 
	C467.342041,618.660278 454.368073,616.615417 443.113464,608.013062 
z"/>
<path fill="#FFFFFF" opacity="1.000000" stroke="none" 
	d="
M442.793823,607.881775 
	C454.368073,616.615417 467.342041,618.660278 480.761383,616.370667 
	C488.446167,615.059509 495.754089,611.539307 503.662415,609.430115 
	C505.885803,626.008118 507.706116,642.166565 509.464813,658.331726 
	C512.353821,684.885742 515.202820,711.444153 518.068665,738.000671 
	C512.534729,738.243835 507.001923,738.518494 501.466339,738.715515 
	C499.037262,738.802002 496.602539,738.730164 493.607086,738.730164 
	C493.607086,747.449951 493.607086,755.655334 493.598175,764.313477 
	C491.457001,764.963562 489.324860,765.331482 487.192444,765.333191 
	C439.438293,765.370667 391.684082,765.367859 343.462585,765.411011 
	C342.957153,765.212585 342.919098,764.975891 342.960327,764.388550 
	C363.783875,760.241272 377.983429,743.326721 377.989258,722.189087 
	C378.016052,625.375366 378.001068,528.561584 378.001099,431.747864 
	C378.001099,429.764526 378.001068,427.781189 378.001068,425.192535 
	C385.521698,425.192535 392.789490,425.192535 400.514954,425.680237 
	C400.804779,427.470612 400.728516,428.792877 400.454498,430.072784 
	C398.313568,440.072083 398.187378,450.069397 400.524506,460.044586 
	C404.848846,478.501465 417.535797,491.039124 431.037811,502.987061 
	C437.185425,508.982300 443.333038,514.977539 449.844513,521.008789 
	C444.103851,528.002258 436.912537,534.286926 432.108185,542.049072 
	C419.975830,561.650696 420.604553,587.631775 438.547485,604.740662 
	C439.734131,605.872131 441.159760,606.753052 442.793823,607.881775 
z"/>
<path fill="#D6F5F6" opacity="1.000000" stroke="none" 
	d="
M431.333435,502.835754 
	C417.535797,491.039124 404.848846,478.501465 400.524506,460.044586 
	C398.187378,450.069397 398.313568,440.072083 400.454498,430.072784 
	C400.728516,428.792877 400.804779,427.470612 400.974976,425.764893 
	C426.046570,425.297485 451.115784,425.222565 476.185089,425.173920 
	C486.148834,425.154602 496.112701,425.193420 506.536774,425.298035 
	C506.397736,426.693115 506.107330,428.309021 505.152222,429.251160 
	C493.422394,440.821442 481.540100,452.237091 469.808807,463.805908 
	C457.925934,475.524231 446.157379,487.358643 434.372070,499.175446 
	C433.331299,500.218994 432.537506,501.508911 431.333435,502.835754 
z"/>
<path fill="#57585B" opacity="1.000000" stroke="none" 
	d="
M560.932190,408.991364 
	C560.932190,408.991364 561.383362,408.937866 561.610474,408.943115 
	C561.551514,417.144104 557.055969,422.127594 549.305847,424.870667 
	C548.936890,424.656433 548.926575,424.472900 549.194946,423.801910 
	C556.206238,420.870667 559.331055,415.540527 560.932190,408.991364 
z"/>
<path fill="#FDFDFD" opacity="1.000000" stroke="none" 
	d="
M505.951172,607.866699 
	C511.051483,603.311218 516.151794,598.755676 521.524170,594.012207 
	C527.700500,599.153564 533.604919,604.482788 539.830200,609.957336 
	C539.901855,611.225830 539.998230,612.626404 539.352478,613.431641 
	C525.074158,631.236084 527.835876,655.759583 539.199463,672.380737 
	C543.635071,678.868469 549.527832,684.359985 554.885010,690.609253 
	C553.313049,706.623474 551.613037,722.333740 549.799683,738.464844 
	C540.280762,738.843201 530.875183,738.800781 520.900879,738.403259 
	C515.538452,694.654358 510.744812,651.260559 505.951172,607.866699 
z"/>
<path fill="#BCE3D2" opacity="1.000000" stroke="none" 
	d="
M625.410095,693.962402 
	C616.938904,695.326599 608.820618,697.673401 600.673584,697.777954 
	C584.744812,697.982361 571.106506,691.365967 559.276733,680.883850 
	C549.997742,672.661865 543.362183,662.796448 539.716553,650.844421 
	C535.352295,636.536133 536.382324,623.074524 544.933655,610.501892 
	C545.388916,609.832520 545.643433,609.026733 546.013000,607.871399 
	C556.851257,598.674927 569.285522,595.833496 582.912292,597.497681 
	C586.008789,597.875793 589.076538,598.490051 592.578735,598.997803 
	C597.622192,601.101257 602.318359,603.055603 606.850952,605.334961 
	C615.730469,609.800415 622.930908,616.275574 628.857178,624.231873 
	C629.835327,625.545105 631.191406,626.576965 632.666382,627.901367 
	C635.294739,634.008423 637.592896,639.967529 639.971191,645.894531 
	C646.260071,661.566895 639.431091,684.685242 625.410095,693.962402 
z"/>
<path fill="#FFFFFF" opacity="1.000000" stroke="none" 
	d="
M329.049530,424.830414 
	C340.698730,424.830414 352.347900,424.830414 364.398010,424.830414 
	C364.398010,525.082153 364.398010,624.775391 364.398010,724.734253 
	C252.070038,724.734253 139.858963,724.734253 27.049845,724.734253 
	C27.049845,722.857666 27.049847,721.083435 27.049845,719.309265 
	C27.049803,501.184570 27.047878,283.059906 27.052860,64.935211 
	C27.053308,45.324650 38.877987,33.333000 58.376762,33.326801 
	C150.359055,33.297554 242.341385,33.292118 334.323669,33.332767 
	C352.301849,33.340714 364.714233,45.441166 364.757050,63.293335 
	C364.877350,113.450050 364.795685,163.607239 364.786835,213.764252 
	C364.786774,214.251602 364.693787,214.738922 364.565491,215.999420 
	C359.051636,215.999420 353.470062,215.999435 347.888489,215.999435 
	C342.889435,215.999435 337.890076,215.961700 332.891418,216.007660 
	C323.818085,216.091064 316.866974,222.505325 316.012695,231.576904 
	C315.856873,233.231461 315.839050,234.903549 315.838806,236.567551 
	C315.830414,292.556763 315.830017,348.545990 315.839905,404.535217 
	C315.840240,406.366058 315.959808,408.196930 316.147522,410.854126 
	C317.917633,418.602966 321.804169,423.348663 329.049530,424.830414 
M101.595734,291.291321 
	C102.084854,288.361755 102.462936,285.408386 103.083786,282.507019 
	C104.989990,273.598846 111.470139,267.660767 117.141731,261.230286 
	C128.234360,248.653336 127.406555,228.225540 115.235748,215.894577 
	C102.936676,203.433670 82.251106,202.272659 69.519440,213.328705 
	C54.051502,226.760895 52.452320,247.608887 66.260010,262.748657 
	C73.970718,271.203278 80.312935,279.973236 80.178345,292.751221 
	C82.115997,300.245209 85.990807,303.932343 91.449898,303.476776 
	C97.410324,302.979370 100.663528,299.268616 101.595734,291.291321 
M195.500061,355.357025 
	C171.736862,355.357025 147.973663,355.357025 124.310249,355.357025 
	C124.074020,356.529144 123.891205,357.013916 123.890808,357.498810 
	C123.869553,383.485138 123.800125,409.471741 123.896881,435.457672 
	C123.924095,442.765106 127.876831,446.466217 135.498703,446.832489 
	C138.590607,446.981018 141.695602,446.856995 145.138611,446.856995 
	C145.138611,451.380524 145.093735,455.187195 145.149307,458.992432 
	C145.229477,464.481201 144.958755,470.020660 145.621445,475.442749 
	C146.310776,481.082703 150.589172,484.221710 156.038498,484.134735 
	C161.412491,484.048889 165.274521,480.706940 166.134827,475.095703 
	C166.535522,472.482117 166.595764,469.800781 166.621811,467.148285 
	C166.686600,460.550293 166.643143,453.951202 166.643143,447.141052 
	C174.047867,447.141052 180.779999,447.141052 187.995758,447.141052 
	C187.995758,449.204590 187.991455,450.995361 187.996506,452.786102 
	C188.016251,459.781769 187.845093,466.785156 188.123566,473.770599 
	C188.335983,479.099182 191.565506,482.800903 196.202545,483.930389 
	C200.532303,484.985046 205.907013,483.111877 207.725021,478.961273 
	C209.070099,475.890442 209.436218,472.237244 209.563202,468.818420 
	C209.827225,461.709778 209.642990,454.584503 209.642990,446.861206 
	C212.773880,446.861206 215.393417,446.887512 218.012268,446.856354 
	C226.651199,446.753632 230.838089,442.589172 230.849777,433.918121 
	C230.882797,409.430878 230.752151,384.942566 230.962433,360.457062 
	C231.000076,356.072632 229.426682,355.185272 225.483231,355.280731 
	C215.827209,355.514404 206.161758,355.357330 195.500061,355.357025 
M124.799408,338.442413 
	C124.495010,340.374878 124.190613,342.307312 123.843979,344.507935 
	C159.659943,344.507935 195.019302,344.507935 230.776688,344.507935 
	C228.767365,327.194336 219.854507,315.277069 204.546539,307.597046 
	C206.313385,304.905487 208.083893,302.668213 209.311874,300.164825 
	C210.046494,298.667267 209.931824,296.753113 210.198914,295.026215 
	C208.848404,295.931641 207.192017,296.588196 206.210754,297.794098 
	C204.140335,300.338440 202.423279,303.170349 200.517761,305.947632 
	C188.650421,301.656036 176.487152,300.165710 164.593414,303.279694 
	C156.344177,305.439484 150.713730,305.180359 147.401627,296.497772 
	C147.110977,295.735809 145.314255,295.548401 144.217041,295.094147 
	C144.252411,296.382324 143.871826,297.883850 144.402359,298.918030 
	C145.901077,301.839386 147.773499,304.569031 149.621216,307.573456 
	C137.178268,314.376556 128.335800,323.801147 124.799408,338.442413 
M317.496277,52.999035 
	C305.696564,52.999584 293.895691,52.902439 282.097534,53.037598 
	C275.105804,53.117699 270.018463,58.319721 270.003143,64.970978 
	C269.988281,71.422432 274.913055,76.854576 281.541321,76.928513 
	C297.826111,77.110176 314.115601,77.105637 330.400574,76.932816 
	C337.043427,76.862328 341.981842,71.479233 341.996796,65.029175 
	C342.011749,58.577782 337.087891,53.355785 330.457947,53.045647 
	C326.477844,52.859463 322.482330,53.003441 317.496277,52.999035 
M241.344940,394.499725 
	C241.518219,401.643951 241.279419,408.829346 241.988525,415.920013 
	C242.613052,422.164764 246.976624,425.346954 252.908630,425.086182 
	C258.202667,424.853485 262.701904,420.974243 262.805756,415.198761 
	C263.102051,398.717407 263.054840,382.224579 262.797089,365.741669 
	C262.714111,360.437012 258.970673,356.721100 254.366486,355.981049 
	C249.331406,355.171753 244.493149,357.323273 242.790512,361.746887 
	C241.804535,364.308594 241.469650,367.238525 241.406860,370.015533 
	C241.229935,377.840088 241.345306,385.671265 241.344940,394.499725 
M102.474869,355.850525 
	C95.620773,356.567322 92.152420,359.245209 91.929527,366.032898 
	C91.405067,382.003998 91.542809,397.997101 91.449524,413.981537 
	C91.444786,414.793243 91.776779,415.609314 91.968597,416.419434 
	C93.425499,422.572174 97.351135,425.516724 103.452492,425.038544 
	C108.753532,424.623077 112.837135,420.503387 112.904350,414.657349 
	C113.088280,398.660583 113.100334,382.659485 112.947723,366.662354 
	C112.888420,360.446747 109.669624,357.182495 102.474869,355.850525 
z"/>
<path fill="#FDFDFE" opacity="1.000000" stroke="none" 
	d="
M560.889648,408.524902 
	C559.331055,415.540527 556.206238,420.870667 549.222656,423.527527 
	C476.455566,423.769226 403.939362,423.798157 331.423187,423.819977 
	C330.928009,423.820099 330.432800,423.722046 329.218994,423.373352 
	C322.144165,421.463226 319.276459,416.565399 317.124908,410.993408 
	C317.124908,356.896271 317.124908,302.799164 317.124908,248.433502 
	C398.266113,248.433502 479.156067,248.433502 560.847168,248.433502 
	C560.847168,301.618774 560.847168,354.838593 560.889648,408.524902 
M370.005188,411.228607 
	C370.005188,412.968506 370.005188,414.708374 370.005188,416.448273 
	C370.433197,416.447205 370.861237,416.446167 371.289246,416.445129 
	C371.289246,362.153412 371.289246,307.861694 371.289246,253.569992 
	C370.861237,253.564926 370.433197,253.559875 370.005188,253.554825 
	C370.005188,305.800018 370.005188,358.045197 370.005188,411.228607 
M489.170227,331.949799 
	C468.971039,331.949799 448.771881,331.949799 428.572693,331.949799 
	C428.583771,332.384918 428.594879,332.820038 428.605957,333.255157 
	C450.188080,333.255157 471.770203,333.255157 493.352325,333.255157 
	C493.358002,332.940094 493.363678,332.625061 493.369354,332.309998 
	C492.268738,332.190002 491.168121,332.070007 489.170227,331.949799 
M482.470093,301.004364 
	C464.565399,301.004364 446.660736,301.004364 428.756042,301.004364 
	C428.767029,301.488495 428.778015,301.972626 428.789001,302.456757 
	C450.342621,302.456757 471.896240,302.456757 493.449860,302.456757 
	C493.462799,301.972626 493.475708,301.488495 493.488647,301.004364 
	C490.144989,301.004364 486.801300,301.004364 482.470093,301.004364 
M408.816345,373.117157 
	C407.126617,373.289032 405.436890,373.460938 403.747162,373.632812 
	C403.802673,373.921143 403.858185,374.209473 403.913696,374.497803 
	C424.841370,374.497803 445.769012,374.497803 466.696686,374.497803 
	C466.696594,374.037628 466.696533,373.577423 466.696442,373.117249 
	C447.709961,373.117249 428.723480,373.117249 408.816345,373.117157 
M420.501953,406.050293 
	C428.311005,406.050262 436.120026,406.050262 443.929077,406.050262 
	C451.465729,406.050232 459.002350,406.050232 466.539001,406.050232 
	C466.518951,405.602325 466.498871,405.154388 466.478821,404.706482 
	C445.585999,404.706482 424.693176,404.706482 403.800354,404.706482 
	C403.795166,405.154449 403.790009,405.602386 403.784821,406.050354 
	C409.024231,406.050354 414.263641,406.050354 420.501953,406.050293 
M467.500000,395.151245 
	C477.431763,395.151245 487.363556,395.151245 497.295319,395.151245 
	C497.292419,394.870270 497.289490,394.589325 497.286591,394.308350 
	C466.177399,394.308350 435.068237,394.308350 403.959045,394.308350 
	C403.956665,394.589386 403.954315,394.870453 403.951935,395.151489 
	C424.801300,395.151489 445.650635,395.151489 467.500000,395.151245 
M498.861420,311.900360 
	C468.074524,311.900360 437.287628,311.900360 406.500702,311.900360 
	C407.447510,312.827850 408.409546,312.962646 409.371613,312.963013 
	C438.312439,312.974335 467.253296,312.978394 496.194092,312.949860 
	C497.311401,312.948761 498.428375,312.614807 498.861420,311.900360 
M488.534393,373.074036 
	C484.943726,373.074036 481.353058,373.074036 477.762390,373.074036 
	C477.784210,373.489502 477.806000,373.904968 477.827820,374.320435 
	C492.685425,374.320435 507.543030,374.320435 522.400635,374.320435 
	C522.395935,373.904999 522.391296,373.489563 522.386658,373.074127 
	C511.431702,373.074127 500.476746,373.074127 488.534393,373.074036 
M452.706635,362.945984 
	C450.918488,363.052551 449.130341,363.159149 447.342194,363.265747 
	C447.385620,363.608856 447.429047,363.951996 447.472473,364.295105 
	C462.095520,364.295105 476.718567,364.295105 491.341614,364.295105 
	C491.342407,363.845367 491.343170,363.395630 491.343964,362.945892 
	C478.780457,362.945892 466.216980,362.945892 452.706635,362.945984 
M508.975616,301.005463 
	C507.862640,301.194611 506.749634,301.383728 505.636658,301.572876 
	C505.685211,301.811310 505.733765,302.049744 505.782318,302.288177 
	C520.032471,302.288177 534.282593,302.288177 548.532715,302.288177 
	C548.528381,301.860535 548.524048,301.432861 548.519714,301.005219 
	C535.636169,301.005219 522.752625,301.005219 508.975616,301.005463 
M512.579285,364.882874 
	C523.860229,364.882874 535.141174,364.882874 546.422119,364.882874 
	C546.408630,364.383026 546.395142,363.883209 546.381653,363.383362 
	C532.132263,363.383362 517.882874,363.383362 503.633484,363.383362 
	C503.614288,363.883179 503.595093,364.382965 503.575897,364.882782 
	C506.253906,364.882782 508.931915,364.882782 512.579285,364.882874 
M540.305237,404.074005 
	C530.794617,404.074005 521.283936,404.074005 511.773315,404.074005 
	C511.789764,404.555206 511.806213,405.036438 511.822693,405.517639 
	C523.318542,405.517639 534.814331,405.517639 546.310181,405.517639 
	C546.321350,405.114655 546.332458,404.711639 546.343628,404.308655 
	C544.640503,404.230499 542.937439,404.152313 540.305237,404.074005 
M429.351898,364.931305 
	C431.658447,364.931305 433.964966,364.931305 436.271515,364.931305 
	C436.240387,364.484436 436.209259,364.037598 436.178131,363.590729 
	C425.356201,363.590729 414.534271,363.590729 403.712341,363.590729 
	C403.711670,364.037537 403.710968,364.484375 403.710297,364.931183 
	C411.938568,364.931183 420.166809,364.931183 429.351898,364.931305 
M484.379974,384.997803 
	C486.714355,384.997803 489.048737,384.997803 491.383118,384.997803 
	C491.375153,384.746124 491.367218,384.494476 491.359283,384.242798 
	C469.795197,384.242798 448.231079,384.242798 426.666992,384.242798 
	C426.665680,384.494476 426.664368,384.746124 426.663025,384.997803 
	C445.578918,384.997803 464.494781,384.997803 484.379974,384.997803 
M414.596497,291.002197 
	C411.691071,291.002197 408.785675,291.002197 405.880249,291.002197 
	C405.886810,291.259125 405.893341,291.516083 405.899902,291.773010 
	C426.745636,291.773010 447.591400,291.773010 468.437134,291.773010 
	C468.437073,291.516083 468.437012,291.259125 468.436951,291.002197 
	C450.814240,291.002197 433.191498,291.002197 414.596497,291.002197 
M458.467468,323.164337 
	C461.857758,323.164337 465.248077,323.164337 468.638367,323.164337 
	C468.632690,322.907196 468.627045,322.650085 468.621368,322.392944 
	C447.786011,322.392944 426.950623,322.392944 406.115265,322.392944 
	C406.115448,322.650085 406.115601,322.907227 406.115784,323.164368 
	C423.236053,323.164368 440.356293,323.164368 458.467468,323.164337 
M493.419373,404.117126 
	C488.191071,404.117126 482.962769,404.117126 477.734467,404.117126 
	C477.773560,404.635895 477.812683,405.154633 477.851776,405.673401 
	C485.810059,405.673401 493.768341,405.673401 501.726624,405.673401 
	C501.755585,405.270874 501.784576,404.868317 501.813538,404.465790 
	C499.337067,404.349609 496.860565,404.233398 493.419373,404.117126 
M514.448669,292.142700 
	C517.725037,292.142700 521.001404,292.142700 524.277771,292.142700 
	C524.272644,291.879669 524.267578,291.616608 524.262512,291.353577 
	C509.563782,291.353577 494.865082,291.353577 480.166382,291.353577 
	C480.165314,291.616669 480.164246,291.879761 480.163177,292.142853 
	C491.263367,292.142853 502.363556,292.142853 514.448669,292.142700 
M336.848541,294.121155 
	C344.121307,294.498352 351.394073,294.875549 358.666809,295.252747 
	C358.672974,294.610718 358.679138,293.968719 358.685272,293.326691 
	C351.330475,293.326691 343.975708,293.326691 336.848541,294.121155 
M510.684814,385.004333 
	C522.446655,385.004333 534.208435,385.004333 545.970276,385.004333 
	C545.968689,384.760590 545.967102,384.516815 545.965515,384.273071 
	C531.981323,384.273071 517.997192,384.273071 504.012970,384.273071 
	C504.009979,384.516815 504.006989,384.760590 504.003967,385.004333 
	C505.920410,385.004333 507.836823,385.004333 510.684814,385.004333 
M342.298279,328.242889 
	C336.652100,327.658905 331.005951,327.074921 325.359772,326.490936 
	C325.328766,327.238861 325.297760,327.986816 325.266754,328.734741 
	C330.718048,328.734741 336.169373,328.734741 342.298279,328.242889 
M548.281067,322.590576 
	C536.983704,322.590576 525.686401,322.590576 514.389038,322.590576 
	C514.386475,322.738159 514.383911,322.885773 514.381348,323.033356 
	C525.445435,323.033356 536.509583,323.033356 548.281067,322.590576 
M326.188446,282.091064 
	C326.108398,282.377197 326.012268,282.660980 325.969330,282.952576 
	C325.964111,282.987946 326.245605,283.116241 326.394257,283.116364 
	C335.655579,283.124420 344.916901,283.123596 354.178223,283.123596 
	C354.179840,282.760529 354.181427,282.397461 354.183044,282.034393 
	C345.145294,282.034393 336.107574,282.034393 326.188446,282.091064 
M412.407471,300.966492 
	C410.133057,301.101959 407.858673,301.237396 405.584259,301.372833 
	C405.629395,301.713409 405.674530,302.053955 405.719666,302.394531 
	C409.641693,302.394531 413.563751,302.394531 417.485809,302.394531 
	C417.489594,302.022064 417.493378,301.649597 417.497162,301.277130 
	C416.097931,301.173584 414.698700,301.070038 412.407471,300.966492 
M487.623352,321.996155 
	C485.097900,321.996155 482.572418,321.996155 480.046967,321.996155 
	C480.055450,322.256683 480.063934,322.517212 480.072449,322.777740 
	C487.847595,322.777740 495.622742,322.777740 503.397888,322.777740 
	C503.399872,322.517517 503.401886,322.257294 503.403870,321.997070 
	C498.464783,321.997070 493.525696,321.997070 487.623352,321.996155 
z"/>
<path fill="#FDFDFD" opacity="1.000000" stroke="none" 
	d="
M536.060303,238.589355 
	C535.590637,237.287186 535.132263,236.378647 534.968933,235.419861 
	C534.068848,230.137894 536.759644,225.783463 541.444214,224.821091 
	C545.472717,223.993500 549.260071,226.649994 550.568787,231.221085 
	C551.924988,235.957962 549.475891,241.426712 544.746765,241.988434 
	C542.058350,242.307755 539.064270,240.054504 536.060303,238.589355 
z"/>
<path fill="#57585B" opacity="1.000000" stroke="none" 
	d="
M316.911285,410.930054 
	C319.276459,416.565399 322.144165,421.463226 328.762024,423.269409 
	C329.048492,423.689667 329.073273,423.917358 329.073792,424.487732 
	C321.804169,423.348663 317.917633,418.602966 316.263977,411.305725 
	C316.256714,410.930908 316.697662,410.866699 316.911285,410.930054 
z"/>
<path fill="#444448" opacity="1.000000" stroke="none" 
	d="
M505.645477,607.861023 
	C510.744812,651.260559 515.538452,694.654358 520.477234,738.482117 
	C519.977234,738.706909 519.332031,738.497742 518.377808,738.144653 
	C515.202820,711.444153 512.353821,684.885742 509.464813,658.331726 
	C507.706116,642.166565 505.885803,626.008118 504.025146,609.415161 
	C504.417999,608.607544 504.878876,608.231445 505.645477,607.861023 
z"/>
<path fill="#0ea5e9" opacity="1.000000" stroke="none" 
	d="
M196.000076,355.357269 
	C206.161758,355.357330 215.827209,355.514404 225.483231,355.280731 
	C229.426682,355.185272 231.000076,356.072632 230.962433,360.457062 
	C230.752151,384.942566 230.882797,409.430878 230.849777,433.918121 
	C230.838089,442.589172 226.651199,446.753632 218.012268,446.856354 
	C215.393417,446.887512 212.773880,446.861206 209.642990,446.861206 
	C209.642990,454.584503 209.827225,461.709778 209.563202,468.818420 
	C209.436218,472.237244 209.070099,475.890442 207.725021,478.961273 
	C205.907013,483.111877 200.532303,484.985046 196.202545,483.930389 
	C191.565506,482.800903 188.335983,479.099182 188.123566,473.770599 
	C187.845093,466.785156 188.016251,459.781769 187.996506,452.786102 
	C187.991455,450.995361 187.995758,449.204590 187.995758,447.141052 
	C180.779999,447.141052 174.047867,447.141052 166.643143,447.141052 
	C166.643143,453.951202 166.686600,460.550293 166.621811,467.148285 
	C166.595764,469.800781 166.535522,472.482117 166.134827,475.095703 
	C165.274521,480.706940 161.412491,484.048889 156.038498,484.134735 
	C150.589172,484.221710 146.310776,481.082703 145.621445,475.442749 
	C144.958755,470.020660 145.229477,464.481201 145.149307,458.992432 
	C145.093735,455.187195 145.138611,451.380524 145.138611,446.856995 
	C141.695602,446.856995 138.590607,446.981018 135.498703,446.832489 
	C127.876831,446.466217 123.924095,442.765106 123.896881,435.457672 
	C123.800125,409.471741 123.869553,383.485138 123.890808,357.498810 
	C123.891205,357.013916 124.074020,356.529144 124.310249,355.357025 
	C147.973663,355.357025 171.736862,355.357025 196.000076,355.357269 
z"/>
<path fill="#61CFBB" opacity="1.000000" stroke="none" 
	d="
M80.311150,291.975220 
	C80.312935,279.973236 73.970718,271.203278 66.260010,262.748657 
	C52.452320,247.608887 54.051502,226.760895 69.519440,213.328705 
	C82.251106,202.272659 102.936676,203.433670 115.235748,215.894577 
	C127.406555,228.225540 128.234360,248.653336 117.141731,261.230286 
	C111.470139,267.660767 104.989990,273.598846 103.083786,282.507019 
	C102.462936,285.408386 102.084854,288.361755 101.073639,291.640106 
	C96.379395,291.886688 92.207253,291.784485 88.000183,291.297546 
	C86.785843,284.580017 85.492867,278.265717 84.453522,271.910004 
	C82.880966,262.293579 81.485031,252.648285 80.345963,243.058044 
	C82.049698,243.747696 83.421509,244.394562 84.825333,245.056519 
	C84.431084,241.927582 83.931747,241.720917 79.635178,243.055115 
	C79.655609,247.640945 79.789917,252.197662 80.459572,256.674286 
	C82.204247,268.337402 84.183640,279.965424 85.667892,291.717712 
	C83.614639,291.877075 81.962891,291.926147 80.311150,291.975220 
M99.709923,242.363754 
	C98.672394,242.478851 97.634865,242.593933 96.597336,242.709015 
	C96.648888,243.042252 96.700447,243.375473 96.752007,243.708694 
	C97.807533,243.502319 98.863068,243.295929 99.996475,243.972641 
	C99.098785,252.066589 98.201103,260.160522 97.147064,269.664185 
	C98.134796,268.154144 98.574883,267.773895 98.640556,267.337311 
	C99.744125,260.000824 100.859283,252.664597 101.776619,245.303986 
	C101.866791,244.580475 100.679008,243.697693 99.709923,242.363754 
z"/>
<path fill="#0ea5e9" opacity="1.000000" stroke="none" 
	d="
M124.884537,338.040588 
	C128.335800,323.801147 137.178268,314.376556 149.621216,307.573456 
	C147.773499,304.569031 145.901077,301.839386 144.402359,298.918030 
	C143.871826,297.883850 144.252411,296.382324 144.217041,295.094147 
	C145.314255,295.548401 147.110977,295.735809 147.401627,296.497772 
	C150.713730,305.180359 156.344177,305.439484 164.593414,303.279694 
	C176.487152,300.165710 188.650421,301.656036 200.517761,305.947632 
	C202.423279,303.170349 204.140335,300.338440 206.210754,297.794098 
	C207.192017,296.588196 208.848404,295.931641 210.198914,295.026184 
	C209.931824,296.753113 210.046494,298.667267 209.311874,300.164825 
	C208.083893,302.668213 206.313385,304.905487 204.546539,307.597046 
	C219.854507,315.277069 228.767365,327.194336 230.776688,344.507935 
	C195.019302,344.507935 159.659943,344.507935 123.843979,344.507935 
	C124.190613,342.307312 124.495010,340.374878 124.884537,338.040588 
M193.917603,324.452484 
	C192.826828,327.837860 193.878601,330.746552 197.233185,331.401611 
	C199.085922,331.763397 202.416306,330.432098 203.170731,328.914581 
	C203.946030,327.355103 203.080719,323.965729 201.713989,322.578247 
	C199.276718,320.104065 196.319550,320.754517 193.917603,324.452484 
M156.358414,321.158752 
	C154.481674,322.649811 152.076096,323.830780 150.945419,325.759247 
	C150.356628,326.763458 151.547867,329.722015 152.790039,330.636719 
	C154.070312,331.579407 156.650726,331.761292 158.203827,331.136505 
	C162.533157,329.394897 161.896347,324.483398 156.358414,321.158752 
z"/>
<path fill="#010101" opacity="1.000000" stroke="none" 
	d="
M317.994995,52.999035 
	C322.482330,53.003441 326.477844,52.859463 330.457947,53.045647 
	C337.087891,53.355785 342.011749,58.577782 341.996796,65.029175 
	C341.981842,71.479233 337.043427,76.862328 330.400574,76.932816 
	C314.115601,77.105637 297.826111,77.110176 281.541321,76.928513 
	C274.913055,76.854576 269.988281,71.422432 270.003143,64.970978 
	C270.018463,58.319721 275.105804,53.117699 282.097534,53.037598 
	C293.895691,52.902439 305.696564,52.999584 317.994995,52.999035 
z"/>
<path fill="#0ea5e9" opacity="1.000000" stroke="none" 
	d="
M241.345200,393.999756 
	C241.345306,385.671265 241.229935,377.840088 241.406860,370.015533 
	C241.469650,367.238525 241.804535,364.308594 242.790512,361.746887 
	C244.493149,357.323273 249.331406,355.171753 254.366486,355.981049 
	C258.970673,356.721100 262.714111,360.437012 262.797089,365.741669 
	C263.054840,382.224579 263.102051,398.717407 262.805756,415.198761 
	C262.701904,420.974243 258.202667,424.853485 252.908630,425.086182 
	C246.976624,425.346954 242.613052,422.164764 241.988525,415.920013 
	C241.279419,408.829346 241.518219,401.643951 241.345200,393.999756 
z"/>
<path fill="#0ea5e9" opacity="1.000000" stroke="none" 
	d="
M102.889755,355.857361 
	C109.669624,357.182495 112.888420,360.446747 112.947723,366.662354 
	C113.100334,382.659485 113.088280,398.660583 112.904350,414.657349 
	C112.837135,420.503387 108.753532,424.623077 103.452492,425.038544 
	C97.351135,425.516724 93.425499,422.572174 91.968597,416.419434 
	C91.776779,415.609314 91.444786,414.793243 91.449524,413.981537 
	C91.542809,397.997101 91.405067,382.003998 91.929527,366.032898 
	C92.152420,359.245209 95.620773,356.567322 102.889755,355.857361 
z"/>
<path fill="#0ea5e9" opacity="1.000000" stroke="none" 
	d="
M80.244751,292.363220 
	C81.962891,291.926147 83.614639,291.877075 85.992050,291.791138 
	C87.156845,291.730225 87.595978,291.706238 88.035103,291.682251 
	C92.207253,291.784485 96.379395,291.886688 100.959511,292.076660 
	C100.663528,299.268616 97.410324,302.979370 91.449898,303.476776 
	C85.990807,303.932343 82.115997,300.245209 80.244751,292.363220 
z"/>
<path fill="#949496" opacity="1.000000" stroke="none" 
	d="
M370.005188,410.759521 
	C370.005188,358.045197 370.005188,305.800018 370.005188,253.554825 
	C370.433197,253.559875 370.861237,253.564926 371.289246,253.569992 
	C371.289246,307.861694 371.289246,362.153412 371.289246,416.445129 
	C370.861237,416.446167 370.433197,416.447205 370.005188,416.448273 
	C370.005188,414.708374 370.005188,412.968506 370.005188,410.759521 
z"/>
<path fill="#95D4B9" opacity="1.000000" stroke="none" 
	d="
M489.618866,331.949921 
	C491.168121,332.070007 492.268738,332.190002 493.369354,332.309998 
	C493.363678,332.625061 493.358002,332.940094 493.352325,333.255157 
	C471.770203,333.255157 450.188080,333.255157 428.605957,333.255157 
	C428.594879,332.820038 428.583771,332.384918 428.572693,331.949799 
	C448.771881,331.949799 468.971039,331.949799 489.618866,331.949921 
z"/>
<path fill="#A4BCFB" opacity="1.000000" stroke="none" 
	d="
M482.963867,301.004364 
	C486.801300,301.004364 490.144989,301.004364 493.488647,301.004364 
	C493.475708,301.488495 493.462799,301.972626 493.449860,302.456757 
	C471.896240,302.456757 450.342621,302.456757 428.789001,302.456757 
	C428.778015,301.972626 428.767029,301.488495 428.756042,301.004364 
	C446.660736,301.004364 464.565399,301.004364 482.963867,301.004364 
z"/>
<path fill="#7A7A7C" opacity="1.000000" stroke="none" 
	d="
M409.276672,373.117188 
	C428.723480,373.117249 447.709961,373.117249 466.696442,373.117249 
	C466.696533,373.577423 466.696594,374.037628 466.696686,374.497803 
	C445.769012,374.497803 424.841370,374.497803 403.913696,374.497803 
	C403.858185,374.209473 403.802673,373.921143 403.747162,373.632812 
	C405.436890,373.460938 407.126617,373.289032 409.276672,373.117188 
z"/>
<path fill="#95D4B9" opacity="1.000000" stroke="none" 
	d="
M420.002502,406.050323 
	C414.263641,406.050354 409.024231,406.050354 403.784821,406.050354 
	C403.790009,405.602386 403.795166,405.154449 403.800354,404.706482 
	C424.693176,404.706482 445.585999,404.706482 466.478821,404.706482 
	C466.498871,405.154388 466.518951,405.602325 466.539001,406.050232 
	C459.002350,406.050232 451.465729,406.050232 443.929077,406.050262 
	C436.120026,406.050262 428.311005,406.050262 420.002502,406.050323 
z"/>
<path fill="#769CF9" opacity="1.000000" stroke="none" 
	d="
M467.000000,395.151367 
	C445.650635,395.151489 424.801300,395.151489 403.951935,395.151489 
	C403.954315,394.870453 403.956665,394.589386 403.959045,394.308350 
	C435.068237,394.308350 466.177399,394.308350 497.286591,394.308350 
	C497.289490,394.589325 497.292419,394.870270 497.295319,395.151245 
	C487.363556,395.151245 477.431763,395.151245 467.000000,395.151367 
z"/>
<path fill="#57585B" opacity="1.000000" stroke="none" 
	d="
M499.203461,312.168152 
	C498.428375,312.614807 497.311401,312.948761 496.194092,312.949860 
	C467.253296,312.978394 438.312439,312.974335 409.371613,312.963013 
	C408.409546,312.962646 407.447510,312.827850 406.500702,311.900360 
	C437.287628,311.900360 468.074524,311.900360 499.203461,312.168152 
z"/>
<path fill="#8DACFA" opacity="1.000000" stroke="none" 
	d="
M489.028107,373.074097 
	C500.476746,373.074127 511.431702,373.074127 522.386658,373.074127 
	C522.391296,373.489563 522.395935,373.904999 522.400635,374.320435 
	C507.543030,374.320435 492.685425,374.320435 477.827820,374.320435 
	C477.806000,373.904968 477.784210,373.489502 477.762390,373.074036 
	C481.353058,373.074036 484.943726,373.074036 489.028107,373.074097 
z"/>
<path fill="#8DACFA" opacity="1.000000" stroke="none" 
	d="
M453.180054,362.945923 
	C466.216980,362.945892 478.780457,362.945892 491.343964,362.945892 
	C491.343170,363.395630 491.342407,363.845367 491.341614,364.295105 
	C476.718567,364.295105 462.095520,364.295105 447.472473,364.295105 
	C447.429047,363.951996 447.385620,363.608856 447.342194,363.265747 
	C449.130341,363.159149 450.918488,363.052551 453.180054,362.945923 
z"/>
<path fill="#949496" opacity="1.000000" stroke="none" 
	d="
M509.422363,301.005341 
	C522.752625,301.005219 535.636169,301.005219 548.519714,301.005219 
	C548.524048,301.432861 548.528381,301.860535 548.532715,302.288177 
	C534.282593,302.288177 520.032471,302.288177 505.782318,302.288177 
	C505.733765,302.049744 505.685211,301.811310 505.636658,301.572876 
	C506.749634,301.383728 507.862640,301.194611 509.422363,301.005341 
z"/>
<path fill="#7A7A7C" opacity="1.000000" stroke="none" 
	d="
M512.094604,364.882812 
	C508.931915,364.882782 506.253906,364.882782 503.575897,364.882782 
	C503.595093,364.382965 503.614288,363.883179 503.633484,363.383362 
	C517.882874,363.383362 532.132263,363.383362 546.381653,363.383362 
	C546.395142,363.883209 546.408630,364.383026 546.422119,364.882874 
	C535.141174,364.882874 523.860229,364.882874 512.094604,364.882812 
z"/>
<path fill="#8DACFA" opacity="1.000000" stroke="none" 
	d="
M540.769775,404.074097 
	C542.937439,404.152313 544.640503,404.230499 546.343628,404.308655 
	C546.332458,404.711639 546.321350,405.114655 546.310181,405.517639 
	C534.814331,405.517639 523.318542,405.517639 511.822693,405.517639 
	C511.806213,405.036438 511.789764,404.555206 511.773315,404.074005 
	C521.283936,404.074005 530.794617,404.074005 540.769775,404.074097 
z"/>
<path fill="#95D4B9" opacity="1.000000" stroke="none" 
	d="
M428.873474,364.931244 
	C420.166809,364.931183 411.938568,364.931183 403.710297,364.931183 
	C403.710968,364.484375 403.711670,364.037537 403.712341,363.590729 
	C414.534271,363.590729 425.356201,363.590729 436.178131,363.590729 
	C436.209259,364.037598 436.240387,364.484436 436.271515,364.931305 
	C433.964966,364.931305 431.658447,364.931305 428.873474,364.931244 
z"/>
<path fill="#0ea5e9" opacity="1.000000" stroke="none" 
	d="
M483.895325,384.997803 
	C464.494781,384.997803 445.578918,384.997803 426.663025,384.997803 
	C426.664368,384.746124 426.665680,384.494476 426.666992,384.242798 
	C448.231079,384.242798 469.795197,384.242798 491.359283,384.242798 
	C491.367218,384.494476 491.375153,384.746124 491.383118,384.997803 
	C489.048737,384.997803 486.714355,384.997803 483.895325,384.997803 
z"/>
<path fill="#0ea5e9" opacity="1.000000" stroke="none" 
	d="
M415.082642,291.002197 
	C433.191498,291.002197 450.814240,291.002197 468.436951,291.002197 
	C468.437012,291.259125 468.437073,291.516083 468.437134,291.773010 
	C447.591400,291.773010 426.745636,291.773010 405.899902,291.773010 
	C405.893341,291.516083 405.886810,291.259125 405.880249,291.002197 
	C408.785675,291.002197 411.691071,291.002197 415.082642,291.002197 
z"/>
<path fill="#0ea5e9" opacity="1.000000" stroke="none" 
	d="
M457.972015,323.164368 
	C440.356293,323.164368 423.236053,323.164368 406.115784,323.164368 
	C406.115601,322.907227 406.115448,322.650085 406.115265,322.392944 
	C426.950623,322.392944 447.786011,322.392944 468.621368,322.392944 
	C468.627045,322.650085 468.632690,322.907196 468.638367,323.164337 
	C465.248077,323.164337 461.857758,323.164337 457.972015,323.164368 
z"/>
<path fill="#7A7A7C" opacity="1.000000" stroke="none" 
	d="
M493.901733,404.117188 
	C496.860565,404.233398 499.337067,404.349609 501.813538,404.465790 
	C501.784576,404.868317 501.755585,405.270874 501.726624,405.673401 
	C493.768341,405.673401 485.810059,405.673401 477.851776,405.673401 
	C477.812683,405.154633 477.773560,404.635895 477.734467,404.117126 
	C482.962769,404.117126 488.191071,404.117126 493.901733,404.117188 
z"/>
<path fill="#5ABA91" opacity="1.000000" stroke="none" 
	d="
M513.956177,292.142761 
	C502.363556,292.142853 491.263367,292.142853 480.163177,292.142853 
	C480.164246,291.879761 480.165314,291.616669 480.166382,291.353577 
	C494.865082,291.353577 509.563782,291.353577 524.262512,291.353577 
	C524.267578,291.616608 524.272644,291.879669 524.277771,292.142700 
	C521.001404,292.142700 517.725037,292.142700 513.956177,292.142761 
z"/>
<path fill="#858688" opacity="1.000000" stroke="none" 
	d="
M336.734741,293.723938 
	C343.975708,293.326691 351.330475,293.326691 358.685272,293.326691 
	C358.679138,293.968719 358.672974,294.610718 358.666809,295.252747 
	C351.394073,294.875549 344.121307,294.498352 336.734741,293.723938 
z"/>
<path fill="#5ABA91" opacity="1.000000" stroke="none" 
	d="
M510.219025,385.004333 
	C507.836823,385.004333 505.920410,385.004333 504.003967,385.004333 
	C504.006989,384.760590 504.009979,384.516815 504.012970,384.273071 
	C517.997192,384.273071 531.981323,384.273071 545.965515,384.273071 
	C545.967102,384.516815 545.968689,384.760590 545.970276,385.004333 
	C534.208435,385.004333 522.446655,385.004333 510.219025,385.004333 
z"/>
<path fill="#7A7A7C" opacity="1.000000" stroke="none" 
	d="
M341.959473,328.488831 
	C336.169373,328.734741 330.718048,328.734741 325.266754,328.734741 
	C325.297760,327.986816 325.328766,327.238861 325.359772,326.490936 
	C331.005951,327.074921 336.652100,327.658905 341.959473,328.488831 
z"/>
<path fill="#0ea5e9" opacity="1.000000" stroke="none" 
	d="
M547.927368,322.811951 
	C536.509583,323.033356 525.445435,323.033356 514.381348,323.033356 
	C514.383911,322.885773 514.386475,322.738159 514.389038,322.590576 
	C525.686401,322.590576 536.983704,322.590576 547.927368,322.811951 
z"/>
<path fill="#57585B" opacity="1.000000" stroke="none" 
	d="
M326.629150,282.062744 
	C336.107574,282.034393 345.145294,282.034393 354.183044,282.034393 
	C354.181427,282.397461 354.179840,282.760529 354.178223,283.123596 
	C344.916901,283.123596 335.655579,283.124420 326.394257,283.116364 
	C326.245605,283.116241 325.964111,282.987946 325.969330,282.952576 
	C326.012268,282.660980 326.108398,282.377197 326.629150,282.062744 
z"/>
<path fill="#BCE3D2" opacity="1.000000" stroke="none" 
	d="
M412.853455,300.966492 
	C414.698700,301.070038 416.097931,301.173584 417.497162,301.277130 
	C417.493378,301.649597 417.489594,302.022064 417.485809,302.394531 
	C413.563751,302.394531 409.641693,302.394531 405.719666,302.394531 
	C405.674530,302.053955 405.629395,301.713409 405.584259,301.372833 
	C407.858673,301.237396 410.133057,301.101959 412.853455,300.966492 
z"/>
<path fill="#5ABA91" opacity="1.000000" stroke="none" 
	d="
M488.104980,321.996613 
	C493.525696,321.997070 498.464783,321.997070 503.403870,321.997070 
	C503.401886,322.257294 503.399872,322.517517 503.397888,322.777740 
	C495.622742,322.777740 487.847595,322.777740 480.072449,322.777740 
	C480.063934,322.517212 480.055450,322.256683 480.046967,321.996155 
	C482.572418,321.996155 485.097900,321.996155 488.104980,321.996613 
z"/>
<path fill="#A6E4D8" opacity="1.000000" stroke="none" 
	d="
M88.000183,291.297546 
	C87.595978,291.706238 87.156845,291.730225 86.393570,291.680847 
	C84.183640,279.965424 82.204247,268.337402 80.459572,256.674286 
	C79.789917,252.197662 79.655609,247.640945 79.639465,243.061264 
	C80.001564,243.001801 80.014038,243.015259 80.014038,243.015259 
	C81.485031,252.648285 82.880966,262.293579 84.453522,271.910004 
	C85.492867,278.265717 86.785843,284.580017 88.000183,291.297546 
z"/>
<path fill="#A6E4D8" opacity="1.000000" stroke="none" 
	d="
M100.084396,242.888840 
	C100.679008,243.697693 101.866791,244.580475 101.776619,245.303986 
	C100.859283,252.664597 99.744125,260.000824 98.640556,267.337311 
	C98.574883,267.773895 98.134796,268.154144 97.147064,269.664185 
	C98.201103,260.160522 99.098785,252.066589 100.000069,243.481812 
	C100.003662,242.990982 100.084396,242.888840 100.084396,242.888840 
z"/>
<path fill="#A6E4D8" opacity="1.000000" stroke="none" 
	d="
M79.997269,242.995667 
	C83.931747,241.720917 84.431084,241.927582 84.825333,245.056519 
	C83.421509,244.394562 82.049698,243.747696 80.345963,243.058044 
	C80.014038,243.015259 80.001564,243.001801 79.997269,242.995667 
z"/>
<path fill="#A6E4D8" opacity="1.000000" stroke="none" 
	d="
M99.961128,243.040268 
	C98.863068,243.295929 97.807533,243.502319 96.752007,243.708694 
	C96.700447,243.375473 96.648888,243.042252 96.597336,242.709015 
	C97.634865,242.593933 98.672394,242.478851 99.897156,242.626297 
	C100.084396,242.888840 100.003662,242.990982 99.961128,243.040268 
z"/>
<path fill="#F2F5FE" opacity="1.000000" stroke="none" 
	d="
M194.079865,324.124084 
	C196.319550,320.754517 199.276718,320.104065 201.713989,322.578247 
	C203.080719,323.965729 203.946030,327.355103 203.170731,328.914581 
	C202.416306,330.432098 199.085922,331.763397 197.233185,331.401611 
	C193.878601,330.746552 192.826828,327.837860 194.079865,324.124084 
z"/>
<path fill="#F2F5FE" opacity="1.000000" stroke="none" 
	d="
M156.729004,321.237854 
	C161.896347,324.483398 162.533157,329.394897 158.203827,331.136505 
	C156.650726,331.761292 154.070312,331.579407 152.790039,330.636719 
	C151.547867,329.722015 150.356628,326.763458 150.945419,325.759247 
	C152.076096,323.830780 154.481674,322.649811 156.729004,321.237854 
z"/>
</svg>