<svg version="1.1" id="Layer_1" xmlns="http://www.w3.org/2000/svg" xmlns:xlink="http://www.w3.org/1999/xlink" x="0px" y="0px"
	 width="100%" viewBox="0 0 558 554" enable-background="new 0 0 558 554" xml:space="preserve">
<path fill="#FFFFFF" opacity="1.000000" stroke="none" 
	d="
M344.000000,1.000002 
	C415.636139,1.000000 487.272247,1.000000 558.954224,1.000000 
	C558.954224,185.557419 558.954224,370.114868 558.954224,555.000000 
	C475.978271,555.000000 392.956116,555.000000 309.659790,554.668823 
	C324.670471,551.559631 339.894135,546.969788 355.255341,546.450623 
	C375.575134,545.763855 396.052521,547.707825 416.371216,549.533569 
	C442.060120,551.841919 467.677917,554.365417 493.440552,551.005371 
	C498.041565,550.405212 502.680664,549.828003 507.170380,548.710571 
	C513.055664,547.245789 516.159180,541.742188 515.292114,535.680420 
	C514.386902,529.351685 509.609100,530.242310 505.375580,530.175171 
	C491.567505,529.955994 477.758423,529.803528 463.765015,529.436401 
	C463.607300,528.727295 463.452393,527.864441 463.688690,527.739075 
	C466.923279,526.023621 470.133636,524.224548 473.500946,522.803833 
	C487.121338,517.057251 499.107849,508.781403 509.703400,498.642792 
	C520.742493,488.079895 528.740417,475.150208 535.143799,461.428345 
	C547.456421,435.043640 552.468445,406.935791 552.922913,377.987305 
	C553.076477,368.210052 552.486206,358.410431 551.955811,348.636200 
	C551.462830,339.551514 551.351196,330.351044 549.744568,321.440826 
	C545.904846,300.146576 542.041809,278.802765 536.774414,257.834106 
	C530.957275,234.677383 521.724854,212.992783 505.415863,194.693115 
	C488.856689,176.112823 475.690216,155.266037 467.608704,131.474869 
	C466.928345,129.471970 465.247345,127.808975 464.013947,125.545181 
	C463.928040,120.615349 464.773987,115.832893 460.028625,112.435570 
	C459.792480,110.222237 459.765076,108.374763 459.307343,106.640877 
	C456.901276,97.525925 454.157379,88.494759 451.954071,79.332718 
	C446.292450,55.789890 432.361847,38.524284 412.046997,26.020611 
	C393.138977,14.382841 372.216217,8.336701 350.684052,3.939962 
	C348.353119,3.464001 346.223175,2.003708 344.000000,1.000002 
z"/>
<path fill="#EFF7FD" opacity="1.000000" stroke="none" 
	d="
M343.625000,1.000002 
	C346.223175,2.003708 348.353119,3.464001 350.684052,3.939962 
	C372.216217,8.336701 393.138977,14.382841 412.046997,26.020611 
	C432.361847,38.524284 446.292450,55.789890 451.954071,79.332718 
	C454.157379,88.494759 456.901276,97.525925 459.307343,106.640877 
	C459.765076,108.374763 459.792480,110.222237 459.678619,112.478500 
	C458.870483,112.966263 458.402130,112.992836 457.798218,112.655106 
	C456.215363,104.941360 456.214752,104.876007 448.393951,104.948395 
	C418.281830,105.227112 388.170532,105.610344 358.058075,105.835289 
	C341.444733,105.959396 344.017242,104.895157 343.955414,120.386948 
	C343.601837,122.923378 343.011353,125.047112 343.046600,127.160400 
	C343.290222,141.774338 343.815521,156.384613 343.957123,170.998917 
	C344.124969,188.316727 343.998291,205.637375 343.533752,223.001694 
	C334.223785,223.250809 325.379364,223.455017 316.689789,223.236694 
	C317.089020,172.363235 317.362152,121.912430 317.517242,71.461250 
	C317.528381,67.845261 317.144348,64.091515 316.146149,60.632053 
	C311.234589,43.610401 297.870636,34.325787 278.834442,34.457340 
	C257.854523,34.602322 236.875107,34.942646 215.895355,34.952969 
	C189.259079,34.966076 162.622681,34.732792 136.048691,34.279465 
	C137.391342,32.974377 138.542557,31.708941 139.973465,31.064571 
	C147.674500,27.596617 155.365829,24.084620 163.206696,20.953945 
	C185.121506,12.203885 207.984390,7.188662 231.292984,3.923358 
	C234.927185,3.414247 238.434189,1.997201 242.000000,0.999999 
	C242.750000,1.000000 243.500000,1.000000 244.768967,1.227660 
	C245.858627,1.303547 246.429306,1.151775 247.000000,1.000001 
	C277.687561,1.000000 308.375122,1.000000 339.618774,1.169263 
	C340.449921,1.225682 340.724976,1.112839 341.000000,0.999997 
	C341.750000,1.000000 342.500000,1.000000 343.625000,1.000002 
z"/>
<path fill="#202E45" opacity="1.000000" stroke="none" 
	d="
M463.949707,529.625488 
	C477.758423,529.803528 491.567505,529.955994 505.375580,530.175171 
	C509.609100,530.242310 514.386902,529.351685 515.292114,535.680420 
	C516.159180,541.742188 513.055664,547.245789 507.170380,548.710571 
	C502.680664,549.828003 498.041565,550.405212 493.440552,551.005371 
	C467.677917,554.365417 442.060120,551.841919 416.371216,549.533569 
	C396.052521,547.707825 375.575134,545.763855 355.255341,546.450623 
	C339.894135,546.969788 324.670471,551.559631 309.192810,554.668823 
	C295.312439,555.000000 281.624878,555.000000 267.363861,554.647827 
	C250.975098,546.836670 234.942322,544.319641 217.609650,549.450623 
	C197.883255,555.290283 177.821045,556.045959 157.782257,549.777588 
	C140.702652,544.434937 123.272919,543.603455 105.677757,547.116333 
	C92.454254,549.756348 79.226089,552.372986 66.000000,555.000000 
	C63.958332,555.000000 61.916668,555.000000 59.209953,554.657715 
	C50.145153,552.522339 41.744591,550.732910 33.345848,548.934998 
	C22.563137,546.626892 11.781882,544.311951 1.000002,542.000000 
	C1.000000,531.645752 1.000000,521.291565 1.277254,510.719543 
	C2.755785,514.343872 3.839189,518.227905 5.185754,522.018372 
	C7.244725,527.814331 13.159081,529.129395 18.520815,524.975830 
	C24.270588,525.054016 29.555130,525.188354 34.840481,525.240295 
	C47.710670,525.366882 60.581238,525.455017 73.788864,525.707397 
	C80.167389,526.877991 86.202126,528.736267 92.251099,528.783813 
	C127.577950,529.061523 162.908768,529.044006 198.237015,528.873291 
	C230.042236,528.719543 261.845886,528.240601 294.139709,527.941895 
	C310.614349,528.147827 326.599609,528.305115 342.584625,528.489136 
	C360.568756,528.696167 378.552246,528.971741 396.536713,529.136597 
	C419.007324,529.342590 441.478668,529.466309 463.949707,529.625488 
z"/>
<path fill="#FFFFFF" opacity="1.000000" stroke="none" 
	d="
M241.531342,0.999999 
	C238.434189,1.997201 234.927185,3.414247 231.292984,3.923358 
	C207.984390,7.188662 185.121506,12.203885 163.206696,20.953945 
	C155.365829,24.084620 147.674500,27.596617 139.973465,31.064571 
	C138.542557,31.708941 137.391342,32.974377 135.588425,34.368050 
	C119.265938,34.827614 103.436668,34.333328 87.681229,35.192654 
	C81.705711,35.518566 75.289490,37.981586 70.142799,41.186604 
	C58.988243,48.132931 55.390484,59.520065 55.181980,72.091080 
	C54.966934,85.056259 55.001099,98.025574 54.554054,111.000244 
	C49.068649,112.894585 43.682709,114.373634 40.511398,119.873405 
	C37.043053,119.956535 34.025024,120.007248 30.538588,120.024689 
	C20.380117,119.994293 10.690059,119.997147 1.000000,120.000000 
	C1.000000,80.381577 1.000000,40.763161 1.000000,1.000000 
	C81.020836,1.000000 161.041763,1.000000 241.531342,0.999999 
z"/>
<path fill="#EFF6FC" opacity="1.000000" stroke="none" 
	d="
M73.451645,525.558655 
	C60.581238,525.455017 47.710670,525.366882 34.840481,525.240295 
	C29.555130,525.188354 24.270588,525.054016 18.474770,524.614746 
	C12.438148,513.917114 10.166701,502.591034 7.816443,491.239014 
	C5.854342,481.761810 3.294899,472.408295 0.999998,463.000000 
	C1.000000,459.638702 1.000000,456.277435 1.468660,452.458801 
	C19.631838,451.996918 37.326355,451.992401 55.111900,452.450989 
	C55.247860,465.180939 55.348099,477.447937 55.322403,489.714691 
	C55.295879,502.375580 58.504337,513.588562 69.038284,521.709595 
	C70.581413,522.899231 71.984024,524.271118 73.451645,525.558655 
z"/>
<path fill="#C9EEE5" opacity="1.000000" stroke="none" 
	d="
M55.020874,451.987915 
	C37.326355,451.992401 19.631838,451.996918 1.468660,452.000732 
	C1.000000,435.979095 1.000000,419.958221 1.447430,403.510956 
	C19.677692,403.029999 37.460526,402.975433 55.279922,403.397034 
	C55.217953,419.911469 55.119411,435.949677 55.020874,451.987915 
z"/>
<path fill="#C9EDE4" opacity="1.000000" stroke="none" 
	d="
M1.000000,337.000000 
	C1.000000,331.645081 1.000000,326.290131 1.466031,320.420837 
	C19.621389,319.591644 37.310719,319.276794 55.088444,319.418793 
	C55.214294,323.271515 55.251743,326.667389 55.201519,330.263275 
	C55.113846,330.463287 55.205452,330.890381 55.195156,331.326843 
	C55.126587,333.507935 55.068317,335.252502 54.628891,336.836609 
	C45.612698,335.118835 37.246593,337.131958 28.768364,337.656494 
	C28.769289,338.366974 28.770212,339.077484 28.771137,339.787964 
	C37.570362,339.787964 46.369591,339.787964 55.235886,340.257324 
	C55.298370,344.172180 55.293781,347.617737 55.201519,351.263275 
	C55.113846,351.463287 55.205452,351.890381 55.195198,352.302307 
	C55.110088,353.806976 55.035229,354.899750 54.533894,355.996552 
	C49.673443,356.333008 45.241829,356.909241 40.805061,356.952057 
	C27.537790,357.080078 14.268501,356.999268 1.000000,357.000000 
	C1.000000,351.645081 1.000000,346.290131 1.467585,340.467468 
	C7.404125,339.676422 13.010316,340.663971 18.386789,339.457306 
	C18.368174,338.638214 18.349560,337.819092 18.330944,337.000000 
	C12.553963,337.000000 6.776981,337.000000 1.000000,337.000000 
z"/>
<path fill="#C9EEE5" opacity="1.000000" stroke="none" 
	d="
M1.000000,252.000000 
	C1.000000,248.637894 1.000000,245.275803 1.260423,241.259094 
	C3.007760,238.714355 4.494674,236.824219 6.435299,234.959534 
	C10.463197,234.503174 14.576095,236.380219 17.458347,231.528244 
	C13.977605,231.350052 10.496861,231.171860 7.145235,230.675446 
	C10.899457,224.891815 14.524563,219.426407 18.605568,213.934570 
	C30.374468,213.815628 41.687469,213.723114 53.345993,213.711349 
	C54.163795,213.778915 54.636078,213.765732 55.192848,214.218536 
	C55.280685,217.810944 55.284039,220.937378 55.199455,224.263565 
	C55.111515,224.463333 55.203751,224.890015 55.193199,225.332855 
	C55.124416,227.545792 55.066185,229.315903 54.539978,231.057236 
	C45.570518,231.276428 36.966064,230.252747 28.579271,231.917038 
	C28.603563,232.569550 28.627853,233.222076 28.652145,233.874603 
	C37.474297,233.874603 46.296444,233.874603 55.202831,234.336273 
	C55.287174,238.219879 55.287285,241.641846 55.199455,245.263565 
	C55.111515,245.463333 55.203751,245.890015 55.193291,246.316269 
	C55.109943,248.157974 55.037056,249.573410 54.497772,250.991394 
	C36.354252,251.329285 18.677126,251.664642 1.000000,252.000000 
z"/>
<path fill="#C9EEE5" opacity="1.000000" stroke="none" 
	d="
M1.000000,297.000000 
	C1.000000,292.310760 1.000000,287.621490 1.468654,282.467529 
	C10.620573,281.997559 19.303837,281.992310 28.457085,281.992310 
	C37.629982,282.000763 46.332901,282.003967 55.147743,282.464569 
	C55.269169,289.635834 55.278664,296.349701 55.200378,303.263397 
	C55.112595,303.463226 55.204514,303.889984 55.193874,304.358551 
	C55.115391,308.605286 55.047550,312.383484 54.514168,316.119690 
	C36.365757,316.051849 18.682878,316.025909 1.000000,316.000000 
	C1.000000,311.310760 1.000000,306.621490 1.468169,301.443298 
	C10.558587,300.660736 19.179533,300.318481 27.803452,300.087158 
	C36.370598,299.857330 44.985207,300.419525 53.523823,299.790009 
	C53.503487,298.860016 53.483154,297.929993 53.462822,297.000000 
	C35.975212,297.000000 18.487606,297.000000 1.000000,297.000000 
z"/>
<path fill="#C9EDE4" opacity="1.000000" stroke="none" 
	d="
M1.000000,192.000000 
	C1.000000,187.310745 1.000000,182.621490 1.468657,177.467041 
	C19.667479,176.682938 37.397644,176.364029 55.208725,176.503754 
	C55.289516,183.662689 55.289387,190.362961 55.201622,197.263260 
	C55.113987,197.463272 55.205540,197.890289 55.194988,198.360657 
	C55.106968,202.904160 55.029503,206.977310 54.489952,211.003448 
	C42.360535,210.974503 30.693205,210.992584 19.062309,210.641571 
	C20.740011,206.349121 19.353384,204.283173 15.194548,203.978058 
	C10.464571,203.631058 5.731645,203.324265 1.000000,203.000000 
	C1.000000,200.629440 1.000000,198.258896 1.468653,195.446350 
	C16.869967,195.004471 31.802807,195.040268 46.735069,194.963501 
	C48.808006,194.952850 50.878082,194.386765 52.949478,194.077805 
	C52.888229,193.124512 52.826981,192.171234 52.765732,191.217941 
	C35.498413,192.111938 18.251879,191.915802 1.000000,192.000000 
z"/>
<path fill="#CAEEE5" opacity="1.000000" stroke="none" 
	d="
M1.000000,173.000000 
	C1.000000,164.312439 1.000000,155.624863 1.468647,146.465103 
	C19.625200,145.652451 37.313107,145.311996 55.078789,145.431946 
	C55.172024,149.630844 55.187485,153.369339 55.156502,157.320969 
	C55.110062,157.534103 55.285889,157.933350 55.306183,158.324417 
	C55.313156,159.498322 55.299835,160.281143 55.198421,161.263672 
	C55.110329,161.463348 55.202900,161.889938 55.192078,162.354584 
	C55.113140,166.205566 55.045029,169.591904 54.509720,172.980286 
	C36.361679,172.988220 18.680840,172.994110 1.000000,173.000000 
z"/>
<path fill="#C9EEE5" opacity="1.000000" stroke="none" 
	d="
M1.000000,278.000000 
	C1.000000,270.979034 1.000000,263.958099 1.466814,256.467804 
	C19.656849,255.675995 37.380066,255.353531 55.189423,255.487091 
	C55.279369,260.316742 55.283180,264.690369 55.199020,269.263672 
	C55.111046,269.463379 55.203400,269.889923 55.192772,270.341583 
	C55.128288,273.201538 55.074432,275.609833 54.550629,278.017273 
	C36.387119,278.010925 18.693560,278.005463 1.000000,278.000000 
z"/>
<path fill="#C9EEE5" opacity="1.000000" stroke="none" 
	d="
M1.000000,382.000000 
	C1.000000,375.312347 1.000000,368.624725 1.468657,361.468536 
	C19.632181,361.004761 37.327045,361.009521 55.138111,361.462891 
	C55.265289,365.628998 55.276268,369.346436 55.199287,373.263611 
	C55.111324,373.463348 55.203621,373.889923 55.193043,374.335632 
	C55.126858,376.860504 55.071251,378.939697 54.547859,381.018677 
	C36.386715,381.345612 18.693357,381.672821 1.000000,382.000000 
z"/>
<path fill="#BAEADC" opacity="1.000000" stroke="none" 
	d="
M55.001015,144.971542 
	C37.313107,145.311996 19.625200,145.652451 1.468647,145.996460 
	C1.000000,141.643097 1.000000,137.286194 1.400942,132.456863 
	C4.182833,131.661713 6.563783,131.338974 8.963438,131.423126 
	C8.706054,134.459290 9.379782,136.807358 12.364609,136.764160 
	C13.837790,136.742844 16.009666,135.473785 16.555328,134.205612 
	C17.153555,132.815277 16.242123,130.775345 16.047443,128.662735 
	C19.160988,126.891373 22.286518,125.607452 25.245884,124.014786 
	C27.285378,122.917183 29.094770,121.392029 31.007000,120.057953 
	C34.025024,120.007248 37.043053,119.956535 40.978020,119.926010 
	C46.287952,119.965027 50.680946,119.983849 55.168091,120.461502 
	C55.259888,125.629204 55.257542,130.338074 55.140602,135.475281 
	C55.076797,138.570114 55.127583,141.236618 55.161255,144.174728 
	C55.096432,144.621429 55.048725,144.796494 55.001015,144.971542 
z"/>
<path fill="#FCFDFD" opacity="1.000000" stroke="none" 
	d="
M66.468658,555.000000 
	C79.226089,552.372986 92.454254,549.756348 105.677757,547.116333 
	C123.272919,543.603455 140.702652,544.434937 157.782257,549.777588 
	C177.821045,556.045959 197.883255,555.290283 217.609650,549.450623 
	C234.942322,544.319641 250.975098,546.836670 266.895203,554.647827 
	C200.312439,555.000000 133.624878,555.000000 66.468658,555.000000 
z"/>
<path fill="#C9EDE4" opacity="1.000000" stroke="none" 
	d="
M1.000000,401.000000 
	C1.000000,395.977905 1.000000,390.955811 1.468657,385.467468 
	C19.673645,384.987976 37.409977,384.974701 55.215111,385.413513 
	C55.285500,388.598236 55.287090,391.330902 55.200989,394.263428 
	C55.113297,394.463287 55.205021,394.890106 55.194717,395.318787 
	C55.136967,397.178192 55.089516,398.608948 54.570869,400.029297 
	C36.399788,400.345917 18.699894,400.672974 1.000000,401.000000 
z"/>
<path fill="#EDCAC0" opacity="1.000000" stroke="none" 
	d="
M0.999998,463.468658 
	C3.294899,472.408295 5.854342,481.761810 7.816443,491.239014 
	C10.166701,502.591034 12.438148,513.917114 18.009907,524.633301 
	C13.159081,529.129395 7.244725,527.814331 5.185754,522.018372 
	C3.839189,518.227905 2.755785,514.343872 1.277254,510.250885 
	C1.000000,494.645782 1.000000,479.291534 0.999998,463.468658 
z"/>
<path fill="#FEFEFE" opacity="1.000000" stroke="none" 
	d="
M1.000002,542.476685 
	C11.781882,544.311951 22.563137,546.626892 33.345848,548.934998 
	C41.744591,550.732910 50.145153,552.522339 58.772453,554.657715 
	C39.666588,555.000000 20.333178,555.000000 1.000000,555.000000 
	C1.000000,550.901855 1.000000,546.927612 1.000002,542.476685 
z"/>
<path fill="#F5F8FA" opacity="1.000000" stroke="none" 
	d="
M1.000000,203.468658 
	C5.731645,203.324265 10.464571,203.631058 15.194548,203.978058 
	C19.353384,204.283173 20.740011,206.349121 18.882435,210.913803 
	C18.493971,212.357101 18.321819,213.159042 18.149668,213.960999 
	C14.524563,219.426407 10.899457,224.891815 6.889350,230.710541 
	C6.338757,231.110580 6.173163,231.157303 5.591808,231.163330 
	C3.784031,231.081757 2.392015,231.040878 1.000000,231.000000 
	C1.000000,221.979111 1.000000,212.958206 1.000000,203.468658 
z"/>
<path fill="#C3EDDF" opacity="1.000000" stroke="none" 
	d="
M8.944733,131.016251 
	C6.563783,131.338974 4.182833,131.661713 1.400942,131.992218 
	C1.000000,128.307098 1.000000,124.614182 1.000000,120.460632 
	C10.690059,119.997147 20.380117,119.994293 30.538589,120.024696 
	C29.094770,121.392029 27.285378,122.917183 25.245884,124.014786 
	C22.286518,125.607452 19.160988,126.891373 15.643122,128.653717 
	C13.101520,129.672394 11.023126,130.344330 8.944733,131.016251 
z"/>
<path fill="#E7F7F4" opacity="1.000000" stroke="none" 
	d="
M55.021912,361.014282 
	C37.327045,361.009521 19.632181,361.004761 1.468657,361.000000 
	C1.000000,359.933319 1.000000,358.866669 1.000000,357.399994 
	C14.268501,356.999268 27.537790,357.080078 40.805061,356.952057 
	C45.241829,356.909241 49.673443,356.333008 54.617027,356.410858 
	C55.091728,358.218842 55.056824,359.616547 55.021912,361.014282 
z"/>
<path fill="#E6F7F3" opacity="1.000000" stroke="none" 
	d="
M1.000000,173.399994 
	C18.680840,172.994110 36.361679,172.988220 54.607666,173.357574 
	C55.157810,174.503586 55.142807,175.274353 55.127808,176.045105 
	C37.397644,176.364029 19.667479,176.682938 1.468657,177.000916 
	C1.000000,175.933334 1.000000,174.866653 1.000000,173.399994 
z"/>
<path fill="#E7F7F4" opacity="1.000000" stroke="none" 
	d="
M55.103287,255.031067 
	C37.380066,255.353531 19.656849,255.675995 1.466814,255.999237 
	C1.000000,254.933334 1.000000,253.866653 1.000000,252.399994 
	C18.677126,251.664642 36.354252,251.329285 54.587986,251.389862 
	C55.130825,252.867554 55.117058,253.949295 55.103287,255.031067 
z"/>
<path fill="#D8D0D0" opacity="1.000000" stroke="none" 
	d="
M1.000000,278.399994 
	C18.693560,278.005463 36.387119,278.010925 54.639542,278.383789 
	C55.140968,279.496155 55.083530,280.241211 54.555420,280.991882 
	C49.269669,281.001251 44.450310,280.881378 39.640842,281.047577 
	C35.750088,281.182037 31.871233,281.660950 27.987103,281.987061 
	C19.303837,281.992310 10.620573,281.997559 1.468654,282.001404 
	C1.000000,280.933319 1.000000,279.866669 1.000000,278.399994 
z"/>
<path fill="#708E97" opacity="1.000000" stroke="none" 
	d="
M1.000000,316.399994 
	C18.682878,316.025909 36.365757,316.051849 54.551468,316.302185 
	C55.054298,316.526642 55.015907,316.898224 55.020576,317.211121 
	C55.033607,317.732452 55.041977,317.940887 55.074219,318.354736 
	C55.098099,318.560150 55.000046,318.961945 55.000046,318.961945 
	C37.310719,319.276794 19.621389,319.591644 1.466031,319.953247 
	C1.000000,318.933319 1.000000,317.866669 1.000000,316.399994 
z"/>
<path fill="#89B0AA" opacity="1.000000" stroke="none" 
	d="
M1.000000,297.399994 
	C18.487606,297.000000 35.975212,297.000000 53.462822,297.000000 
	C53.483154,297.929993 53.503487,298.860016 53.523823,299.790009 
	C44.985207,300.419525 36.370598,299.857330 27.803452,300.087158 
	C19.179533,300.318481 10.558587,300.660736 1.468169,300.977173 
	C1.000000,299.933319 1.000000,298.866669 1.000000,297.399994 
z"/>
<path fill="#D8CBCB" opacity="1.000000" stroke="none" 
	d="
M55.146309,384.961395 
	C37.409977,384.974701 19.673645,384.987976 1.468657,385.000610 
	C1.000000,384.250000 1.000000,383.500000 1.000000,382.375000 
	C18.693357,381.672821 36.386715,381.345612 54.635532,381.406494 
	C55.176098,382.850189 55.161205,383.905792 55.146309,384.961395 
z"/>
<path fill="#84ADA7" opacity="1.000000" stroke="none" 
	d="
M1.000000,192.375000 
	C18.251879,191.915802 35.498413,192.111938 52.765732,191.217941 
	C52.826981,192.171234 52.888229,193.124512 52.949478,194.077805 
	C50.878082,194.386765 48.808006,194.952850 46.735069,194.963501 
	C31.802807,195.040268 16.869967,195.004471 1.468653,195.002182 
	C1.000000,194.250000 1.000000,193.500000 1.000000,192.375000 
z"/>
<path fill="#88A0B7" opacity="1.000000" stroke="none" 
	d="
M1.000000,401.333313 
	C18.699894,400.672974 36.399788,400.345917 54.778915,400.213013 
	C55.386551,401.245026 55.314957,402.082947 55.243362,402.920837 
	C37.460526,402.975433 19.677692,403.029999 1.447430,403.042297 
	C1.000000,402.555542 1.000000,402.111115 1.000000,401.333313 
z"/>
<path fill="#D5CCCC" opacity="1.000000" stroke="none" 
	d="
M1.000000,337.375000 
	C6.776981,337.000000 12.553963,337.000000 18.330944,337.000000 
	C18.349560,337.819092 18.368174,338.638214 18.386789,339.457306 
	C13.010316,340.663971 7.404125,339.676422 1.467585,339.999878 
	C1.000000,339.250000 1.000000,338.500000 1.000000,337.375000 
z"/>
<path fill="#EED2C9" opacity="1.000000" stroke="none" 
	d="
M1.000000,231.454102 
	C2.392015,231.040878 3.784031,231.081757 5.587484,231.531769 
	C5.993147,232.938614 5.987371,233.936340 5.981592,234.934082 
	C4.494674,236.824219 3.007760,238.714355 1.260423,240.802246 
	C1.000000,237.969406 1.000000,234.938812 1.000000,231.454102 
z"/>
<path fill="#FFFFFF" opacity="1.000000" stroke="none" 
	d="
M246.666672,1.000001 
	C246.429306,1.151775 245.858627,1.303547 245.143967,1.227660 
	C245.444443,1.000000 245.888901,1.000000 246.666672,1.000001 
z"/>
<path fill="#FFFFFF" opacity="1.000000" stroke="none" 
	d="
M340.750000,0.999997 
	C340.724976,1.112839 340.449921,1.225682 340.087463,1.169263 
	C340.000000,1.000000 340.500000,1.000000 340.750000,0.999997 
z"/>
<path fill="#F0F8FD" opacity="1.000000" stroke="none" 
	d="
M463.765015,529.436401 
	C441.478668,529.466309 419.007324,529.342590 396.536713,529.136597 
	C378.552246,528.971741 360.568756,528.696167 342.584625,528.489136 
	C326.599609,528.305115 310.614349,528.147827 294.331421,527.626343 
	C302.261108,523.594238 310.135132,519.004395 313.358185,510.230743 
	C315.770050,503.665405 317.248077,496.417023 317.419830,489.430420 
	C318.013153,465.294159 317.852356,441.139343 318.408142,416.976440 
	C326.235046,416.635162 333.632538,416.309052 341.021698,416.452545 
	C341.342560,439.705902 341.671753,462.489655 342.000702,485.273376 
	C342.003113,485.439941 342.000824,485.606567 342.002747,485.773163 
	C342.051178,489.924500 343.624725,492.158875 348.303955,492.080780 
	C376.083496,491.617065 403.865967,491.326874 431.647858,491.013916 
	C436.147369,490.963226 438.306580,489.142761 438.074707,484.324646 
	C437.555939,473.544922 437.109528,462.751038 437.065735,451.961182 
	C436.933136,419.308502 437.028503,386.654907 436.945923,354.001892 
	C436.940826,351.986481 436.165436,349.973053 435.968018,347.616913 
	C438.377350,338.596558 436.399597,335.942719 427.720917,335.939667 
	C413.483795,335.934662 399.246704,335.937805 385.005737,335.472778 
	C385.001892,322.805817 385.001892,310.603577 385.001892,298.358337 
	C391.645477,297.922089 398.410126,297.169708 405.182343,297.093628 
	C422.337799,296.900909 439.496704,297.033508 456.654114,296.989990 
	C463.224823,296.973297 465.105713,295.186737 464.990936,288.784515 
	C464.746704,275.162354 464.121582,261.543457 464.079193,247.921906 
	C463.952728,207.277618 464.032227,166.632721 464.031250,125.988068 
	C465.247345,127.808975 466.928345,129.471970 467.608704,131.474869 
	C475.690216,155.266037 488.856689,176.112823 505.415863,194.693115 
	C521.724854,212.992783 530.957275,234.677383 536.774414,257.834106 
	C542.041809,278.802765 545.904846,300.146576 549.744568,321.440826 
	C551.351196,330.351044 551.462830,339.551514 551.955811,348.636200 
	C552.486206,358.410431 553.076477,368.210052 552.922913,377.987305 
	C552.468445,406.935791 547.456421,435.043640 535.143799,461.428345 
	C528.740417,475.150208 520.742493,488.079895 509.703400,498.642792 
	C499.107849,508.781403 487.121338,517.057251 473.500946,522.803833 
	C470.133636,524.224548 466.923279,526.023621 463.688690,527.739075 
	C463.452393,527.864441 463.607300,528.727295 463.765015,529.436401 
M524.984253,315.643280 
	C523.382690,309.782227 518.509644,307.077515 513.496033,305.697327 
	C511.721069,305.208679 508.713928,308.692230 506.453552,310.582642 
	C502.556641,313.841675 494.760345,311.482147 492.612823,306.777374 
	C491.618500,304.599091 489.447723,302.072388 487.310181,301.465607 
	C480.599243,299.560577 473.906769,305.331940 473.977081,312.324890 
	C474.040527,318.636658 467.263306,323.610199 461.222992,321.993652 
	C459.165558,321.442993 456.281555,321.061432 454.727661,322.069977 
	C448.988434,325.795013 448.340576,335.347931 453.068909,340.149658 
	C456.916351,344.056824 455.633575,350.266571 450.443970,352.295135 
	C447.244293,353.545837 445.485352,355.530029 445.990112,359.097260 
	C446.290680,361.221252 446.475983,363.372833 446.946808,365.459259 
	C448.231018,371.150269 449.869904,371.850067 455.640381,371.841644 
	C458.202850,371.837891 461.247284,373.414429 463.121857,375.246704 
	C464.003998,376.108917 463.162903,379.550781 462.200897,381.338440 
	C458.509155,388.198486 458.941193,390.629242 465.376678,394.972260 
	C471.315216,398.979919 471.681824,398.948730 476.646912,393.932800 
	C477.466187,393.105103 478.462982,392.364746 479.019104,391.381226 
	C480.865906,388.114899 483.739960,388.769592 486.475647,389.389740 
	C489.464783,390.067322 492.674347,390.295380 493.218597,394.675293 
	C493.764191,399.065948 496.877686,400.876129 501.196686,399.904968 
	C503.924408,399.291565 507.021057,398.825195 509.083527,397.194336 
	C510.907898,395.751678 512.649109,392.671082 512.422363,390.525543 
	C512.079651,387.283417 512.299622,384.991547 515.144958,383.313812 
	C518.303589,381.451416 520.513855,377.494659 525.492432,380.615723 
	C530.550537,383.786621 533.161194,382.668518 536.011780,377.466888 
	C537.193176,375.311157 537.975342,372.899994 538.678711,370.527771 
	C539.655823,367.232330 538.477173,364.947266 535.475281,363.018188 
	C533.678101,361.863251 531.551880,359.549500 531.509399,357.711945 
	C531.439331,354.675049 531.926270,351.225861 536.705078,350.764313 
	C540.822937,350.366608 542.223206,347.051483 542.015869,343.042725 
	C541.704895,337.032166 538.889038,331.697296 535.527649,331.087585 
	C534.885254,330.971039 534.094238,330.857483 533.554321,331.119110 
	C528.620605,333.510162 526.822388,330.106720 524.088745,326.894501 
	C520.438232,322.604950 524.537903,319.848419 524.984253,315.643280 
z"/>
<path fill="#D0CCF5" opacity="1.000000" stroke="none" 
	d="
M464.013947,125.545181 
	C464.032227,166.632721 463.952728,207.277618 464.079193,247.921906 
	C464.121582,261.543457 464.746704,275.162354 464.990936,288.784515 
	C465.105713,295.186737 463.224823,296.973297 456.654114,296.989990 
	C439.496704,297.033508 422.337799,296.900909 405.182343,297.093628 
	C398.410126,297.169708 391.645477,297.922089 385.001892,298.358337 
	C385.001892,310.603577 385.001892,322.805817 384.973236,335.713013 
	C384.944580,336.417999 384.927094,336.901825 384.510834,336.915497 
	C382.421875,336.972046 380.749146,337.014954 379.055542,336.585999 
	C379.005432,323.094635 378.976227,310.075165 379.366760,297.041199 
	C382.879730,297.444763 384.482178,296.297607 384.309143,292.736755 
	C386.142578,291.656006 387.671600,290.161285 389.246399,290.111450 
	C397.053467,289.864471 404.872589,289.998779 412.687469,289.998749 
	C424.326630,289.998688 435.966064,290.045227 447.604919,289.984222 
	C457.338165,289.933228 459.004944,288.248169 458.998505,278.826569 
	C458.992371,269.847961 458.973846,260.869324 458.954468,251.428909 
	C458.648987,232.506287 458.214355,214.046402 458.084595,195.584381 
	C457.918304,171.923111 458.020294,148.260010 457.927551,124.598015 
	C457.920105,122.695190 457.300568,120.794754 457.000549,118.522476 
	C457.335022,116.440964 457.634430,114.730194 457.933807,113.019409 
	C458.402130,112.992836 458.870483,112.966263 459.688843,112.896759 
	C464.773987,115.832893 463.928040,120.615349 464.013947,125.545181 
z"/>
<path fill="#0ea5e9" opacity="1.000000" stroke="none" 
	d="
M317.978699,416.991608 
	C317.852356,441.139343 318.013153,465.294159 317.419830,489.430420 
	C317.248077,496.417023 315.770050,503.665405 313.358185,510.230743 
	C310.135132,519.004395 302.261108,523.594238 293.841919,527.589478 
	C261.845886,528.240601 230.042236,528.719543 198.237015,528.873291 
	C162.908768,529.044006 127.577950,529.061523 92.251099,528.783813 
	C86.202126,528.736267 80.167389,526.877991 73.788864,525.707397 
	C71.984024,524.271118 70.581413,522.899231 69.038284,521.709595 
	C58.504337,513.588562 55.295879,502.375580 55.322403,489.714691 
	C55.348099,477.447937 55.247860,465.180939 55.111900,452.450989 
	C55.119411,435.949677 55.217953,419.911469 55.279926,403.397034 
	C55.314957,402.082947 55.386551,401.245026 55.250107,400.223419 
	C55.089516,398.608948 55.136967,397.178192 55.311821,395.252441 
	C55.595402,394.475067 55.545223,394.243774 55.288681,394.063538 
	C55.287090,391.330902 55.285500,388.598236 55.215111,385.413513 
	C55.161205,383.905792 55.176098,382.850189 55.103317,381.406738 
	C55.071251,378.939697 55.126858,376.860504 55.310501,374.269531 
	C55.595287,373.474945 55.544853,373.243652 55.287247,373.063904 
	C55.276268,369.346436 55.265289,365.628998 55.138115,361.462891 
	C55.056824,359.616547 55.091728,358.218842 55.043503,356.406799 
	C55.035229,354.899750 55.110088,353.806976 55.312180,352.235809 
	C55.595402,351.475159 55.545326,351.243805 55.289192,351.063263 
	C55.293781,347.617737 55.298370,344.172180 55.272850,340.131989 
	C55.242741,339.537323 55.152466,339.289734 55.297615,339.114685 
	C55.335709,338.540802 55.228661,338.141998 55.142181,337.549377 
	C55.162746,337.355621 55.010048,336.997101 55.010048,336.997101 
	C55.068317,335.252502 55.126587,333.507935 55.312141,331.260376 
	C55.595402,330.475159 55.545326,330.243805 55.289192,330.063263 
	C55.251743,326.667389 55.214294,323.271515 55.088444,319.418793 
	C55.000046,318.961945 55.098099,318.560150 55.230766,318.222900 
	C55.247589,317.556488 55.131748,317.227356 55.015907,316.898224 
	C55.015907,316.898224 55.054298,316.526642 55.017002,316.344147 
	C55.047550,312.383484 55.115391,308.605286 55.311119,304.292297 
	C55.595337,303.474976 55.545055,303.243683 55.288162,303.063568 
	C55.278664,296.349701 55.269169,289.635834 55.188599,282.208893 
	C55.087048,281.325958 55.056568,281.156097 55.026089,280.986237 
	C55.083530,280.241211 55.140968,279.496155 55.109489,278.384644 
	C55.074432,275.609833 55.128288,273.201538 55.310303,270.275543 
	C55.595249,269.474976 55.544758,269.243683 55.286995,269.063995 
	C55.283180,264.690369 55.279369,260.316742 55.189423,255.487076 
	C55.117058,253.949295 55.130825,252.867554 55.054382,251.387329 
	C55.037056,249.573410 55.109943,248.157974 55.310730,246.250153 
	C55.595280,245.474991 55.544868,245.243668 55.287392,245.063797 
	C55.287285,241.641846 55.287174,238.219879 55.237823,234.178894 
	C55.188576,233.559860 55.104816,233.247452 55.256527,233.090851 
	C55.294941,232.566223 55.181641,232.198196 55.088428,231.641296 
	C55.108517,231.452393 55.007954,231.085999 55.007954,231.085999 
	C55.066185,229.315903 55.124416,227.545792 55.310638,225.266724 
	C55.595280,224.474991 55.544868,224.243668 55.287392,224.063797 
	C55.284039,220.937378 55.280685,217.810944 55.214218,213.991913 
	C55.151100,213.299316 55.065586,212.849014 55.084305,212.547577 
	C55.052696,211.847565 55.002365,211.449020 54.952034,211.050461 
	C55.029503,206.977310 55.106968,202.904160 55.311951,198.294159 
	C55.595409,197.475128 55.545341,197.243774 55.289257,197.063248 
	C55.289387,190.362961 55.289516,183.662689 55.208725,176.503754 
	C55.142807,175.274353 55.157810,174.503586 55.074867,173.355530 
	C55.045029,169.591904 55.113140,166.205566 55.309738,162.288605 
	C55.595200,161.474915 55.544632,161.243576 55.286514,161.063980 
	C55.299835,160.281143 55.313156,159.498322 55.410328,158.239990 
	C55.584721,157.457947 55.487640,157.239059 55.202946,157.107834 
	C55.187485,153.369339 55.172024,149.630844 55.078789,145.431946 
	C55.048725,144.796494 55.096432,144.621429 55.361469,143.868256 
	C55.470928,140.542419 55.363060,137.794678 55.255188,135.046951 
	C55.257542,130.338074 55.259888,125.629204 55.258984,120.018211 
	C55.145897,116.408424 55.036064,113.700752 54.926231,110.993080 
	C55.001099,98.025574 54.966934,85.056259 55.181980,72.091080 
	C55.390484,59.520065 58.988243,48.132931 70.142799,41.186604 
	C75.289490,37.981586 81.705711,35.518566 87.681229,35.192654 
	C103.436668,34.333328 119.265938,34.827614 135.526077,34.694328 
	C162.622681,34.732792 189.259079,34.966076 215.895355,34.952969 
	C236.875107,34.942646 257.854523,34.602322 278.834442,34.457340 
	C297.870636,34.325787 311.234589,43.610401 316.146149,60.632053 
	C317.144348,64.091515 317.528381,67.845261 317.517242,71.461250 
	C317.362152,121.912430 317.089020,172.363235 316.275421,223.185242 
	C312.313934,223.587708 308.921661,223.619095 305.345184,223.241760 
	C305.068573,220.005997 304.896851,217.178986 304.895752,214.351913 
	C304.878784,170.359177 304.905487,126.366402 304.849823,82.373741 
	C304.844360,78.056671 304.541473,73.720772 304.071075,69.427094 
	C302.647491,56.432526 293.171204,47.417068 280.238647,47.144306 
	C266.912994,46.863255 253.577011,47.102890 240.247437,46.949989 
	C237.475494,46.918194 236.154816,47.935963 236.106003,50.573944 
	C235.943848,59.335163 229.450180,62.142609 222.377640,62.083099 
	C199.383072,61.889618 176.384628,61.869434 153.390121,62.066818 
	C140.755127,62.175274 137.129623,59.418358 136.106491,48.689568 
	C136.062866,48.231995 135.774902,47.797718 135.497375,47.088306 
	C120.558380,47.088306 105.555534,46.538708 90.634911,47.405094 
	C85.820053,47.684681 80.745651,51.049641 76.625511,54.123211 
	C68.708405,60.029266 68.154755,69.162453 68.146263,78.095284 
	C68.068314,160.081696 68.061493,242.068161 68.043999,324.054626 
	C68.043648,325.716492 68.164261,327.378387 68.153946,329.501190 
	C68.054680,383.459869 68.023659,436.957642 68.012817,490.455383 
	C68.011414,497.382812 71.077972,502.853882 76.188103,507.353760 
	C83.118149,513.456299 91.631439,513.917847 100.154549,513.927734 
	C158.319016,513.995056 216.483597,513.963806 274.648132,513.959473 
	C276.147461,513.959351 277.652893,513.979675 279.145172,513.860840 
	C293.864624,512.688110 304.680450,503.814545 304.846222,491.536560 
	C305.185852,466.380157 304.862244,441.214783 304.887634,415.621643 
	C305.032471,413.154236 305.101410,411.118317 305.615936,409.017395 
	C309.693420,408.976318 313.325287,409.000214 317.043091,409.427612 
	C317.412201,412.217957 317.695465,414.604767 317.978699,416.991608 
z"/>
<path fill="#FDFFFF" opacity="1.000000" stroke="none" 
	d="
M456.965485,118.893211 
	C457.300568,120.794754 457.920105,122.695190 457.927551,124.598015 
	C458.020294,148.260010 457.918304,171.923111 458.084595,195.584381 
	C458.214355,214.046402 458.648987,232.506287 458.676086,251.180557 
	C458.211731,247.873779 455.830658,247.903549 453.166382,247.948135 
	C430.118866,248.333969 407.070129,248.646240 383.801514,248.929047 
	C383.581238,248.877670 383.139801,248.780502 383.110443,248.369522 
	C383.372131,244.520081 383.877228,241.082764 383.895569,237.642838 
	C383.914856,234.023560 382.311707,231.579819 378.104309,231.530334 
	C377.777222,224.121048 376.806122,223.142807 369.839996,223.085815 
	C361.226654,223.015320 352.612854,222.997421 343.999268,222.956802 
	C343.998291,205.637375 344.124969,188.316727 343.957123,170.998917 
	C343.815521,156.384613 343.290222,141.774338 343.046600,127.160400 
	C343.011353,125.047112 343.601837,122.923378 344.422058,120.426155 
	C382.282745,119.662956 419.624115,119.278084 456.965485,118.893211 
M384.500031,177.984726 
	C391.982605,177.984726 399.465149,177.985062 406.947723,177.984634 
	C416.591919,177.984085 426.238342,178.109970 435.879517,177.938828 
	C442.679840,177.818115 446.571686,173.002640 444.373108,167.829926 
	C442.687103,163.863068 439.399200,162.952774 435.422516,162.967194 
	C414.305359,163.043793 393.187653,162.986618 372.070557,163.073715 
	C369.116608,163.085892 366.170868,163.794434 363.210876,163.907684 
	C357.368195,164.131241 357.849762,168.280823 358.017181,172.130676 
	C358.193451,176.183762 360.599854,177.988083 364.544250,177.981888 
	C370.862854,177.971954 377.181458,177.982681 384.500031,177.984726 
M369.626648,187.018127 
	C367.468048,187.063049 365.251953,186.810547 363.162659,187.214218 
	C358.687592,188.078796 357.581390,191.254807 357.960266,195.430634 
	C358.315460,199.345215 360.438629,201.007034 364.175873,201.007446 
	C388.447205,201.010101 412.718811,201.071091 436.989716,200.968216 
	C442.396027,200.945282 445.211853,198.032288 444.972076,193.512970 
	C444.728333,188.919052 442.416992,187.025803 436.925568,187.022903 
	C414.815399,187.011246 392.705231,187.018143 369.626648,187.018127 
M395.534271,227.703720 
	C403.183929,227.605606 410.838654,227.642944 418.481171,227.354950 
	C422.592224,227.200012 425.412476,224.894058 425.816193,220.649826 
	C426.221497,216.388702 423.376984,213.595444 419.716370,213.491440 
	C408.428619,213.170685 397.113464,213.362488 385.824524,213.778183 
	C381.814209,213.925873 379.630676,216.940933 379.770721,220.981430 
	C379.905609,224.872147 382.582336,226.996094 386.096741,227.594162 
	C388.843231,228.061569 391.728271,227.715073 395.534271,227.703720 
M398.505127,145.081558 
	C405.992676,145.051788 413.480377,144.981995 420.967682,145.012299 
	C423.891937,145.024139 425.082214,143.809296 425.145294,140.813950 
	C425.213013,137.599213 423.705505,136.878082 420.890625,136.897751 
	C407.579498,136.990799 394.267273,137.034988 380.956299,136.954117 
	C377.828369,136.935135 376.108978,138.116135 376.254517,141.232864 
	C376.406586,144.490250 378.447632,145.891266 381.612335,145.760559 
	C386.911102,145.541718 392.209320,145.309036 398.505127,145.081558 
z"/>
<path fill="#EFD684" opacity="1.000000" stroke="none" 
	d="
M343.533752,223.001694 
	C352.612854,222.997421 361.226654,223.015320 369.839996,223.085815 
	C376.806122,223.142807 377.777222,224.121048 378.051147,231.941650 
	C378.013336,234.136032 377.979675,235.503296 377.532471,236.937271 
	C374.653748,237.282715 372.190002,237.789398 369.723236,237.804596 
	C347.432495,237.942032 325.141205,237.978714 302.850281,238.093567 
	C300.708069,238.104614 298.568390,238.595612 296.426178,238.606949 
	C285.847046,238.662949 275.267456,238.632431 264.344330,238.632431 
	C264.211578,235.912735 264.091644,233.455322 264.007751,230.609863 
	C264.635498,224.046814 269.705292,224.407608 273.689911,224.226273 
	C284.289886,223.743927 294.914551,223.805313 305.529419,223.650482 
	C308.921661,223.619095 312.313934,223.587708 316.120544,223.607788 
	C325.379364,223.455017 334.223785,223.250809 343.533752,223.001694 
M372.411682,230.940338 
	C373.507629,225.995285 369.736267,226.785126 367.328217,227.171371 
	C365.754028,227.423874 363.302521,229.243317 363.225128,230.484436 
	C362.984009,234.352295 366.385437,232.779175 368.362152,232.892151 
	C369.512421,232.957932 370.718719,232.043716 372.411682,230.940338 
z"/>
<path fill="#0ea5e9" opacity="1.000000" stroke="none" 
	d="
M457.000549,118.522476 
	C419.624115,119.278084 382.282745,119.662956 344.474731,120.008629 
	C344.017242,104.895157 341.444733,105.959396 358.058075,105.835289 
	C388.170532,105.610344 418.281830,105.227112 448.393951,104.948395 
	C456.214752,104.876007 456.215363,104.941360 457.798218,112.655106 
	C457.634430,114.730194 457.335022,116.440964 457.000549,118.522476 
z"/>
<path fill="#EFF8FB" opacity="1.000000" stroke="none" 
	d="
M54.554054,111.000244 
	C55.036064,113.700752 55.145897,116.408424 55.164837,119.559387 
	C50.680946,119.983849 46.287952,119.965027 41.428337,119.893593 
	C43.682709,114.373634 49.068649,112.894585 54.554054,111.000244 
z"/>
<path fill="#8BACB4" opacity="1.000000" stroke="none" 
	d="
M55.152466,339.289734 
	C55.152466,339.289734 55.242741,339.537323 55.205780,339.662659 
	C46.369591,339.787964 37.570362,339.787964 28.771137,339.787964 
	C28.770212,339.077484 28.769289,338.366974 28.768364,337.656494 
	C37.246593,337.131958 45.612698,335.118835 54.628891,336.836609 
	C55.010048,336.997101 55.162746,337.355621 55.119965,337.937683 
	C55.102276,338.776428 55.127369,339.033081 55.152466,339.289734 
z"/>
<path fill="#88A0B7" opacity="1.000000" stroke="none" 
	d="
M55.201519,330.263275 
	C55.545326,330.243805 55.595402,330.475159 55.322433,330.823883 
	C55.205452,330.890381 55.113846,330.463287 55.201519,330.263275 
z"/>
<path fill="#88A0B7" opacity="1.000000" stroke="none" 
	d="
M55.201519,351.263275 
	C55.545326,351.243805 55.595402,351.475159 55.322433,351.823883 
	C55.205452,351.890381 55.113846,351.463287 55.201519,351.263275 
z"/>
<path fill="#6F8A93" opacity="1.000000" stroke="none" 
	d="
M54.489952,211.003448 
	C55.002365,211.449020 55.052696,211.847565 54.802193,212.599487 
	C54.001064,213.178787 53.500771,213.404694 53.000473,213.630600 
	C41.687469,213.723114 30.374468,213.815628 18.605564,213.934570 
	C18.321819,213.159042 18.493971,212.357101 18.846001,211.282898 
	C30.693205,210.992584 42.360535,210.974503 54.489952,211.003448 
z"/>
<path fill="#85A5AE" opacity="1.000000" stroke="none" 
	d="
M55.104816,233.247452 
	C55.104816,233.247452 55.188576,233.559860 55.153587,233.717224 
	C46.296444,233.874603 37.474297,233.874603 28.652145,233.874603 
	C28.627853,233.222076 28.603563,232.569550 28.579271,231.917038 
	C36.966064,230.252747 45.570518,231.276428 54.539978,231.057236 
	C55.007954,231.085999 55.108517,231.452393 55.078087,231.996796 
	C55.066715,232.776611 55.085766,233.012024 55.104816,233.247452 
z"/>
<path fill="#D8D0D0" opacity="1.000000" stroke="none" 
	d="
M6.435304,234.959534 
	C5.987371,233.936340 5.993147,232.938614 6.003245,231.572449 
	C6.173163,231.157303 6.338757,231.110580 6.760235,231.028763 
	C10.496861,231.171860 13.977605,231.350052 17.458347,231.528244 
	C14.576095,236.380219 10.463197,234.503174 6.435304,234.959534 
z"/>
<path fill="#88A0B7" opacity="1.000000" stroke="none" 
	d="
M53.345993,213.711349 
	C53.500771,213.404694 54.001064,213.178787 54.783474,212.900940 
	C55.065586,212.849014 55.151100,213.299316 55.129730,213.525940 
	C54.636078,213.765732 54.163795,213.778915 53.345993,213.711349 
z"/>
<path fill="#88A0B7" opacity="1.000000" stroke="none" 
	d="
M55.199455,245.263565 
	C55.544868,245.243668 55.595280,245.474991 55.321190,245.823883 
	C55.203751,245.890015 55.111515,245.463333 55.199455,245.263565 
z"/>
<path fill="#88A0B7" opacity="1.000000" stroke="none" 
	d="
M55.199455,224.263565 
	C55.544868,224.243668 55.595280,224.474991 55.321190,224.823883 
	C55.203751,224.890015 55.111515,224.463333 55.199455,224.263565 
z"/>
<path fill="#E2E8E6" opacity="1.000000" stroke="none" 
	d="
M54.555420,280.991882 
	C55.056568,281.156097 55.087048,281.325958 55.076672,281.751495 
	C46.332901,282.003967 37.629982,282.000763 28.457083,281.992310 
	C31.871233,281.660950 35.750088,281.182037 39.640842,281.047577 
	C44.450310,280.881378 49.269669,281.001251 54.555420,280.991882 
z"/>
<path fill="#88A0B7" opacity="1.000000" stroke="none" 
	d="
M55.200378,303.263397 
	C55.545055,303.243683 55.595337,303.474976 55.321758,303.823730 
	C55.204514,303.889984 55.112595,303.463226 55.200378,303.263397 
z"/>
<path fill="#88A0B7" opacity="1.000000" stroke="none" 
	d="
M55.201622,197.263260 
	C55.545341,197.243774 55.595409,197.475128 55.322502,197.823792 
	C55.205540,197.890289 55.113987,197.463272 55.201622,197.263260 
z"/>
<path fill="#88A0B7" opacity="1.000000" stroke="none" 
	d="
M55.198421,161.263672 
	C55.544632,161.243576 55.595200,161.474915 55.320560,161.823959 
	C55.202900,161.889938 55.110329,161.463348 55.198421,161.263672 
z"/>
<path fill="#88A0B7" opacity="1.000000" stroke="none" 
	d="
M55.156502,157.320969 
	C55.487640,157.239059 55.584721,157.457947 55.390038,157.848938 
	C55.285889,157.933350 55.110062,157.534103 55.156502,157.320969 
z"/>
<path fill="#88A0B7" opacity="1.000000" stroke="none" 
	d="
M55.199020,269.263672 
	C55.544758,269.243683 55.595249,269.474976 55.320930,269.823883 
	C55.203400,269.889923 55.111046,269.463379 55.199020,269.263672 
z"/>
<path fill="#88A0B7" opacity="1.000000" stroke="none" 
	d="
M55.199287,373.263611 
	C55.544853,373.243652 55.595287,373.474945 55.321083,373.823853 
	C55.203621,373.889923 55.111324,373.463348 55.199287,373.263611 
z"/>
<path fill="#DAF4EB" opacity="1.000000" stroke="none" 
	d="
M8.963438,131.423126 
	C11.023126,130.344330 13.101520,129.672394 15.584233,129.009491 
	C16.242123,130.775345 17.153555,132.815277 16.555328,134.205612 
	C16.009666,135.473785 13.837790,136.742844 12.364609,136.764160 
	C9.379782,136.807358 8.706054,134.459290 8.963438,131.423126 
z"/>
<path fill="#88A0B7" opacity="1.000000" stroke="none" 
	d="
M55.140598,135.475281 
	C55.363060,137.794678 55.470928,140.542419 55.378582,143.596619 
	C55.127583,141.236618 55.076797,138.570114 55.140598,135.475281 
z"/>
<path fill="#88A0B7" opacity="1.000000" stroke="none" 
	d="
M55.200989,394.263428 
	C55.545223,394.243774 55.595402,394.475067 55.322121,394.823761 
	C55.205021,394.890106 55.113297,394.463287 55.200989,394.263428 
z"/>
<path fill="#88A0B7" opacity="1.000000" stroke="none" 
	d="
M55.020576,317.211121 
	C55.131748,317.227356 55.247589,317.556488 55.206886,318.017456 
	C55.041977,317.940887 55.033607,317.732452 55.020576,317.211121 
z"/>
<path fill="#CBF0E4" opacity="1.000000" stroke="none" 
	d="
M435.748474,347.958679 
	C436.165436,349.973053 436.940826,351.986481 436.945923,354.001892 
	C437.028503,386.654907 436.933136,419.308502 437.065735,451.961182 
	C437.109528,462.751038 437.555939,473.544922 438.074707,484.324646 
	C438.306580,489.142761 436.147369,490.963226 431.647858,491.013916 
	C403.865967,491.326874 376.083496,491.617065 348.303955,492.080780 
	C343.624725,492.158875 342.051178,489.924500 342.002747,485.773163 
	C342.000824,485.606567 342.003113,485.439941 342.000702,485.273376 
	C341.671753,462.489655 341.342560,439.705902 341.276550,416.433685 
	C341.709778,415.931396 341.879822,415.917603 342.512360,415.931000 
	C354.351196,415.964050 365.727692,416.001465 377.103821,415.954498 
	C380.077667,415.942200 383.207733,415.943329 384.401489,411.945221 
	C385.161591,410.232178 385.555603,408.598846 385.955566,406.532196 
	C385.950226,404.076813 385.938995,402.054688 386.107239,399.944580 
	C386.361572,399.748535 386.522186,399.576508 386.497162,399.542999 
	C386.348328,399.343445 386.156525,399.175873 385.822937,398.627014 
	C385.419006,395.536804 385.171265,392.817139 385.391296,390.072388 
	C389.699646,390.047363 393.540222,390.047363 397.380829,390.047363 
	C397.349335,389.347076 397.317841,388.646820 397.286346,387.946533 
	C393.179993,387.946533 389.073669,387.946533 384.983521,387.485535 
	C385.019897,382.007843 385.040070,376.991150 385.511658,371.986389 
	C389.491241,371.469910 393.470642,373.176941 396.626801,370.805389 
	C396.573547,370.213470 396.520264,369.621521 396.467010,369.029602 
	C392.665405,369.029602 388.863831,369.029602 385.046997,368.603058 
	C385.002136,361.440369 384.972473,354.704224 384.954529,347.944489 
	C384.966278,347.920898 384.958679,347.868774 385.428284,347.909851 
	C402.514709,347.953552 419.131592,347.956116 435.748474,347.958679 
M381.413147,446.994385 
	C370.876648,447.267273 360.226349,446.040222 349.928680,449.266357 
	C363.918488,449.266357 377.908325,449.266357 391.898163,449.266357 
	C391.920898,448.747284 391.943665,448.228241 391.966431,447.709167 
	C388.770477,447.471008 385.574493,447.232849 381.413147,446.994385 
M360.543518,461.000000 
	C371.477051,461.000000 382.410553,461.000000 393.344086,461.000000 
	C393.334351,460.568176 393.324646,460.136383 393.314911,459.704559 
	C379.114594,459.704559 364.914246,459.704559 350.713928,459.704559 
	C350.711060,460.136383 350.708160,460.568176 350.705292,461.000000 
	C353.658813,461.000000 356.612335,461.000000 360.543518,461.000000 
M366.444214,421.993927 
	C370.436493,421.696747 374.428772,421.399567 378.421051,421.102386 
	C378.388245,420.661804 378.355469,420.221252 378.322662,419.780701 
	C370.284973,417.641022 351.200439,418.764191 349.412323,421.993896 
	C354.949860,421.993896 360.206390,421.993896 366.444214,421.993927 
M367.502045,427.995758 
	C362.018402,427.995758 356.534729,427.995758 351.051086,427.995758 
	C351.051880,428.422729 351.052643,428.849701 351.053436,429.276672 
	C365.017548,430.441345 378.981689,430.426514 392.945831,429.284637 
	C392.946838,428.855011 392.947845,428.425385 392.948822,427.995758 
	C384.799591,427.995758 376.650391,427.995758 367.502045,427.995758 
M396.701172,437.160553 
	C391.725311,437.110931 386.749481,437.027344 381.773560,437.018463 
	C369.941315,436.997406 369.941284,437.011719 367.633087,438.991608 
	C377.289185,438.991608 386.558502,439.013519 395.826996,438.933228 
	C396.343140,438.928802 396.851959,438.079254 396.701172,437.160553 
M374.973999,469.003723 
	C376.056335,468.850311 377.138641,468.696930 378.220978,468.543518 
	C378.157990,468.218842 378.094971,467.894196 378.031952,467.569519 
	C368.587402,467.569519 359.142853,467.569519 349.698303,467.569519 
	C349.690369,468.047577 349.682434,468.525604 349.674500,469.003662 
	C357.811951,469.003662 365.949371,469.003662 374.973999,469.003723 
M358.178284,440.003815 
	C359.685272,439.609985 361.192291,439.216187 362.699280,438.822357 
	C362.584534,438.167816 362.469818,437.513275 362.355072,436.858734 
	C358.086945,437.223541 353.818848,437.588348 349.550720,437.953186 
	C349.579773,438.637451 349.608826,439.321747 349.637848,440.006012 
	C352.189484,440.006012 354.741119,440.006012 358.178284,440.003815 
M422.584290,429.564575 
	C422.688965,428.794983 422.793640,428.025360 422.898285,427.255768 
	C420.328339,427.255768 417.758392,427.255768 415.188416,427.255768 
	C415.185303,428.124786 415.182190,428.993835 415.179077,429.862854 
	C417.396515,429.862854 419.613953,429.862854 422.584290,429.564575 
M404.441711,484.003876 
	C405.887695,483.550812 407.333679,483.097778 408.779663,482.644714 
	C408.599854,482.012421 408.420044,481.380096 408.240234,480.747803 
	C405.374115,481.277557 402.507996,481.807343 399.641846,482.337128 
	C399.713013,482.823029 399.784149,483.308960 399.855316,483.794891 
	C401.116943,483.865021 402.378571,483.935150 404.441711,484.003876 
z"/>
<path fill="#BBC9DF" opacity="1.000000" stroke="none" 
	d="
M524.983582,316.026672 
	C524.537903,319.848419 520.438232,322.604950 524.088745,326.894501 
	C526.822388,330.106720 528.620605,333.510162 533.554321,331.119110 
	C534.094238,330.857483 534.885254,330.971039 535.527649,331.087585 
	C538.889038,331.697296 541.704895,337.032166 542.015869,343.042725 
	C542.223206,347.051483 540.822937,350.366608 536.705078,350.764313 
	C531.926270,351.225861 531.439331,354.675049 531.509399,357.711945 
	C531.551880,359.549500 533.678101,361.863251 535.475281,363.018188 
	C538.477173,364.947266 539.655823,367.232330 538.678711,370.527771 
	C537.975342,372.899994 537.193176,375.311157 536.011780,377.466888 
	C533.161194,382.668518 530.550537,383.786621 525.492432,380.615723 
	C520.513855,377.494659 518.303589,381.451416 515.144958,383.313812 
	C512.299622,384.991547 512.079651,387.283417 512.422363,390.525543 
	C512.649109,392.671082 510.907898,395.751678 509.083527,397.194336 
	C507.021057,398.825195 503.924408,399.291565 501.196686,399.904968 
	C496.877686,400.876129 493.764191,399.065948 493.218597,394.675293 
	C492.674347,390.295380 489.464783,390.067322 486.475647,389.389740 
	C483.739960,388.769592 480.865906,388.114899 479.019104,391.381226 
	C478.462982,392.364746 477.466187,393.105103 476.646912,393.932800 
	C471.681824,398.948730 471.315216,398.979919 465.376678,394.972260 
	C458.941193,390.629242 458.509155,388.198486 462.200897,381.338440 
	C463.162903,379.550781 464.003998,376.108917 463.121857,375.246704 
	C461.247284,373.414429 458.202850,371.837891 455.640381,371.841644 
	C449.869904,371.850067 448.231018,371.150269 446.946808,365.459259 
	C446.475983,363.372833 446.290680,361.221252 445.990112,359.097260 
	C445.485352,355.530029 447.244293,353.545837 450.443970,352.295135 
	C455.633575,350.266571 456.916351,344.056824 453.068909,340.149658 
	C448.340576,335.347931 448.988434,325.795013 454.727661,322.069977 
	C456.281555,321.061432 459.165558,321.442993 461.222992,321.993652 
	C467.263306,323.610199 474.040527,318.636658 473.977081,312.324890 
	C473.906769,305.331940 480.599243,299.560577 487.310181,301.465607 
	C489.447723,302.072388 491.618500,304.599091 492.612823,306.777374 
	C494.760345,311.482147 502.556641,313.841675 506.453552,310.582642 
	C508.713928,308.692230 511.721069,305.208679 513.496033,305.697327 
	C518.509644,307.077515 523.382690,309.782227 524.983582,316.026672 
M513.065918,356.302795 
	C515.530396,347.696625 512.326111,338.708984 504.957886,333.560852 
	C497.775208,328.542328 489.409943,328.748749 481.781494,334.132812 
	C475.281219,338.720551 472.150818,348.543732 474.518188,356.924896 
	C476.688354,364.607788 484.386536,370.651459 492.506195,371.046875 
	C502.610992,371.538940 509.155609,367.058014 513.065918,356.302795 
z"/>
<path fill="#0ea5e9" opacity="1.000000" stroke="none" 
	d="
M435.968018,347.616913 
	C419.131592,347.956116 402.514709,347.953552 385.442749,347.464722 
	C384.967438,343.619598 384.947266,340.260712 384.927094,336.901825 
	C384.927094,336.901825 384.944580,336.417999 384.977081,336.177734 
	C399.246704,335.937805 413.483795,335.934662 427.720917,335.939667 
	C436.399597,335.942719 438.377350,338.596558 435.968018,347.616913 
z"/>
<path fill="#CFCBF4" opacity="1.000000" stroke="none" 
	d="
M342.049866,415.903839 
	C341.879822,415.917603 341.709778,415.931396 341.284851,415.964050 
	C333.632538,416.309052 326.235046,416.635162 318.408142,416.976440 
	C317.695465,414.604767 317.412201,412.217957 317.510376,409.408203 
	C325.946930,408.700256 334.002075,408.415192 342.036987,408.558655 
	C342.027771,411.292725 342.038818,413.598267 342.049866,415.903839 
z"/>
<path fill="#EEF1F7" opacity="1.000000" stroke="none" 
	d="
M342.057251,408.130157 
	C334.002075,408.415192 325.946930,408.700256 317.424469,409.004700 
	C313.325287,409.000214 309.693420,408.976318 305.135529,408.993164 
	C293.153259,409.037048 282.096954,409.040161 270.813660,408.764221 
	C269.063416,406.957886 266.602600,405.640076 266.205170,403.861206 
	C265.276886,399.706329 265.003632,395.322357 265.100983,391.045654 
	C265.188232,387.212555 264.180145,385.797058 260.087769,385.903503 
	C249.272415,386.184814 238.443542,386.080200 227.623932,385.898376 
	C226.206543,385.874573 224.811844,384.500214 223.406647,383.751404 
	C224.811005,383.168030 226.208832,382.097748 227.620743,382.078888 
	C238.274994,381.936310 248.934998,381.855133 259.586700,382.072754 
	C263.728149,382.157379 265.127777,380.743042 265.073029,376.595551 
	C264.881836,362.112335 265.023285,347.624939 264.949188,333.139587 
	C264.942047,331.744720 264.315796,330.352966 263.980164,328.493652 
	C263.987427,317.688477 263.991516,307.349457 264.157959,296.637329 
	C264.211273,292.501190 264.102234,288.738129 263.992767,284.507996 
	C263.994080,276.030701 263.995819,268.020477 263.998474,259.551758 
	C263.661011,255.389648 263.322632,251.686020 262.987885,247.516190 
	C263.318268,241.699295 263.644958,236.348602 263.971680,230.997925 
	C264.091644,233.455322 264.211578,235.912735 264.344330,238.632431 
	C275.267456,238.632431 285.847046,238.662949 296.426178,238.606949 
	C298.568390,238.595612 300.708069,238.104614 302.850281,238.093567 
	C325.141205,237.978714 347.432495,237.942032 369.723236,237.804596 
	C372.190002,237.789398 374.653748,237.282715 377.551727,237.411407 
	C378.009521,241.566742 378.034515,245.314667 378.037231,249.516510 
	C378.009949,251.758331 378.041901,253.547241 377.991394,255.333847 
	C377.914154,258.068695 377.557159,260.901031 381.000000,262.254639 
	C381.010803,262.448242 381.031158,262.835510 380.720306,263.078491 
	C379.898315,265.192017 378.972015,267.056885 378.946075,268.934204 
	C378.816559,278.306213 378.923340,287.681519 378.947021,297.055664 
	C378.976227,310.075165 379.005432,323.094635 379.011719,337.035095 
	C379.066437,341.255493 379.144135,344.554932 379.160522,348.332794 
	C379.099243,361.684937 379.099243,374.558685 379.099243,387.946533 
	C381.422546,387.946533 383.194946,387.946533 384.967316,387.946533 
	C389.073669,387.946533 393.179993,387.946533 397.286346,387.946533 
	C397.317841,388.646820 397.349335,389.347076 397.380829,390.047363 
	C393.540222,390.047363 389.699646,390.047363 384.965698,390.032776 
	C377.476196,389.477814 380.200348,394.520538 380.105408,397.259888 
	C379.818695,405.534546 377.764923,407.887543 369.506866,407.970551 
	C360.357391,408.062531 351.207153,408.080170 342.057251,408.130157 
M296.514069,266.000000 
	C318.298157,265.999908 340.082306,266.021484 361.866333,265.985687 
	C367.887939,265.975800 369.056702,264.771515 368.999451,259.128510 
	C368.939240,253.193604 367.826935,252.009109 362.122040,252.006149 
	C337.344696,251.993256 312.567383,251.992020 287.790039,252.006439 
	C281.897888,252.009857 281.002045,252.907166 281.001251,258.532166 
	C281.000366,264.811584 282.090332,265.972260 288.037659,265.998199 
	C290.531982,266.009094 293.026398,266.000000 296.514069,266.000000 
M365.276581,286.323944 
	C366.149353,285.577545 367.022125,284.831146 368.119507,283.892639 
	C362.656433,281.111694 285.407318,281.353302 281.188324,284.208832 
	C282.806641,284.905273 284.044891,285.840363 285.340912,285.928772 
	C292.276794,286.401947 299.226501,286.933746 306.172455,286.947479 
	C325.625732,286.986023 345.079437,286.780457 365.276581,286.323944 
M307.500000,272.000000 
	C300.007660,272.002716 292.513855,271.935913 285.024750,272.093109 
	C284.051117,272.113556 283.101715,273.288757 282.141113,273.929108 
	C283.055115,274.616241 283.908051,275.420349 284.908112,275.942688 
	C285.432648,276.216644 286.215088,275.999512 286.881073,275.999542 
	C311.689056,276.000000 336.497009,276.001648 361.304993,275.994690 
	C362.467926,275.994354 363.715820,276.159454 364.765076,275.792633 
	C365.511627,275.531647 366.225525,274.580383 366.478607,273.785797 
	C366.586334,273.447510 365.556915,272.393524 364.909943,272.243347 
	C363.638428,271.948212 362.273010,272.008362 360.946381,272.007507 
	C343.464264,271.996246 325.982117,272.000000 307.500000,272.000000 
M307.483856,379.000000 
	C301.879395,379.419769 296.274902,379.839508 290.670441,380.259247 
	C290.711060,380.942566 290.751678,381.625854 290.792297,382.309174 
	C311.648682,384.493683 332.455383,380.730865 353.304871,382.091248 
	C353.307068,381.553467 353.309296,381.015656 353.311493,380.477875 
	C338.357178,379.985260 323.402863,379.492645 307.483856,379.000000 
M337.031311,389.000000 
	C327.424469,389.000031 317.817108,388.948059 308.211334,389.050018 
	C306.560333,389.067535 304.916260,389.740204 303.268951,390.110229 
	C303.383087,390.477448 303.497223,390.844696 303.611359,391.211914 
	C316.141083,391.211914 328.670776,391.211914 341.200470,391.211914 
	C341.247925,390.739807 341.295380,390.267731 341.342834,389.795624 
	C340.194855,389.530701 339.046906,389.265808 337.031311,389.000000 
M319.500000,349.000000 
	C311.553070,349.000000 303.606140,349.000000 295.659210,349.000000 
	C295.679230,349.437469 295.699249,349.874908 295.719238,350.312378 
	C312.247284,350.312378 328.775299,350.312378 345.303345,350.312378 
	C345.303223,349.874908 345.303131,349.437469 345.303009,349.000000 
	C337.035339,349.000000 328.767670,349.000000 319.500000,349.000000 
M291.150116,354.670624 
	C291.198456,353.274719 291.610718,351.766846 291.222504,350.505280 
	C290.296478,347.495972 287.932892,345.215149 285.011078,346.979034 
	C283.090363,348.138580 281.202911,351.445831 281.423615,353.570831 
	C281.756927,356.780457 284.926453,357.538818 288.044495,356.528076 
	C288.971863,356.227478 289.833710,355.724792 291.150116,354.670624 
M288.751831,331.658936 
	C289.698059,329.801727 291.563049,327.812683 291.321014,326.125977 
	C291.098206,324.573029 288.727203,322.440674 287.086884,322.228180 
	C285.443481,322.015289 283.046539,323.480957 281.906555,324.936615 
	C281.110840,325.952667 281.215088,328.943604 282.092834,329.715210 
	C283.568390,331.012329 285.979004,331.245789 288.751831,331.658936 
M286.496460,307.022736 
	C291.430420,305.556549 293.526703,302.326630 290.974060,299.638062 
	C289.615723,298.207458 287.032501,297.153656 285.113068,297.308167 
	C283.749542,297.417908 281.285431,300.230438 281.566803,301.136902 
	C282.241730,303.311401 284.245117,305.073608 286.496460,307.022736 
z"/>
<path fill="#CED9F5" opacity="1.000000" stroke="none" 
	d="
M384.021759,248.980438 
	C407.070129,248.646240 430.118866,248.333969 453.166382,247.948135 
	C455.830658,247.903549 458.211731,247.873779 458.682373,251.642349 
	C458.973846,260.869324 458.992371,269.847961 458.998505,278.826569 
	C459.004944,288.248169 457.338165,289.933228 447.604919,289.984222 
	C435.966064,290.045227 424.326630,289.998688 412.687469,289.998749 
	C404.872589,289.998779 397.053467,289.864471 389.246399,290.111450 
	C387.671600,290.161285 386.142578,291.656006 384.296387,292.269775 
	C384.021393,286.017944 384.042480,279.980957 384.511414,273.962463 
	C395.545898,273.653229 406.134216,273.366272 416.717285,272.947327 
	C418.076294,272.893524 419.408142,272.153961 420.752594,271.732086 
	C420.666199,271.169006 420.579773,270.605927 420.493378,270.042847 
	C408.344269,270.042847 396.195190,270.042847 384.028900,269.650482 
	C383.664673,267.521423 383.317657,265.784698 383.441895,264.027771 
	C400.398407,263.773773 416.883606,263.539948 433.368835,263.306152 
	C433.359436,262.501099 433.350006,261.696045 433.340607,260.890991 
	C416.536469,260.890991 399.732361,260.890991 383.120117,260.530121 
	C383.548584,256.439636 383.785187,252.710037 384.021759,248.980438 
z"/>
<path fill="#B5B0F0" opacity="1.000000" stroke="none" 
	d="
M384.063568,273.943939 
	C384.042480,279.980957 384.021393,286.017944 384.013092,292.521942 
	C384.482178,296.297607 382.879730,297.444763 379.366760,297.041199 
	C378.923340,287.681519 378.816559,278.306213 378.946075,268.934204 
	C378.972015,267.056885 379.898315,265.192017 380.968872,263.222839 
	C382.009064,263.432159 382.489838,263.740082 382.970642,264.048004 
	C383.317657,265.784698 383.664673,267.521423 384.009735,270.040222 
	C384.026367,271.862854 384.044952,272.903412 384.063568,273.943939 
z"/>
<path fill="#83B8C3" opacity="1.000000" stroke="none" 
	d="
M379.221802,347.854401 
	C379.144135,344.554932 379.066437,341.255493 379.032593,337.506958 
	C380.749146,337.014954 382.421875,336.972046 384.510834,336.915497 
	C384.947266,340.260712 384.967438,343.619598 384.973145,347.423645 
	C384.958679,347.868774 384.966278,347.920898 384.544067,347.943176 
	C382.488495,347.928436 380.855164,347.891418 379.221802,347.854401 
z"/>
<path fill="#D9E4F8" opacity="1.000000" stroke="none" 
	d="
M263.995636,297.010406 
	C263.991516,307.349457 263.987427,317.688477 263.514099,328.507751 
	C198.106049,329.005371 133.167252,329.022797 68.228439,329.040253 
	C68.164261,327.378387 68.043648,325.716492 68.043999,324.054626 
	C68.061493,242.068161 68.068314,160.081696 68.146263,78.095284 
	C68.154755,69.162453 68.708405,60.029266 76.625511,54.123211 
	C80.745651,51.049641 85.820053,47.684681 90.634911,47.405094 
	C105.555534,46.538708 120.558380,47.088306 135.497375,47.088306 
	C135.774902,47.797718 136.062866,48.231995 136.106491,48.689568 
	C137.129623,59.418358 140.755127,62.175274 153.390121,62.066818 
	C176.384628,61.869434 199.383072,61.889618 222.377640,62.083099 
	C229.450180,62.142609 235.943848,59.335163 236.106003,50.573944 
	C236.154816,47.935963 237.475494,46.918194 240.247437,46.949989 
	C253.577011,47.102890 266.912994,46.863255 280.238647,47.144306 
	C293.171204,47.417068 302.647491,56.432526 304.071075,69.427094 
	C304.541473,73.720772 304.844360,78.056671 304.849823,82.373741 
	C304.905487,126.366402 304.878784,170.359177 304.895752,214.351913 
	C304.896851,217.178986 305.068573,220.005997 305.345184,223.241760 
	C294.914551,223.805313 284.289886,223.743927 273.689911,224.226273 
	C269.705292,224.407608 264.635498,224.046814 264.007721,230.609863 
	C263.644958,236.348602 263.318268,241.699295 262.520996,247.522964 
	C209.619949,247.997513 157.189484,247.999008 104.759010,248.000916 
	C103.427460,248.000961 101.839989,247.544281 100.820915,248.109802 
	C99.038414,249.098999 96.390602,250.648087 96.308388,252.088318 
	C96.183205,254.281448 97.346817,257.423187 99.047241,258.614014 
	C100.977119,259.965515 104.100784,259.946442 106.706230,259.949890 
	C159.136612,260.019592 211.567093,260.006622 263.997559,260.010284 
	C263.995819,268.020477 263.994080,276.030701 263.524963,284.515869 
	C210.577103,284.993927 158.096649,284.996918 105.616203,285.000458 
	C104.283394,285.000549 102.941391,284.907867 101.619629,285.030426 
	C98.617638,285.308868 96.113182,286.048798 95.949753,289.903870 
	C95.798538,293.470917 96.208771,296.233398 100.645401,296.382538 
	C102.785988,296.454468 104.917961,296.959534 107.054085,296.961243 
	C159.367920,297.002747 211.681778,297.002869 263.995636,297.010406 
M237.881516,134.395355 
	C225.165390,121.523041 216.223877,119.735558 199.486496,127.290611 
	C190.670303,131.270142 182.485657,130.556320 174.324478,125.678146 
	C172.251175,124.438873 169.827377,123.353821 167.466904,123.097382 
	C152.393082,121.459724 140.683914,129.573425 132.958740,142.268661 
	C128.030685,150.367218 127.538826,159.208755 128.821655,168.671036 
	C131.506561,188.475342 138.624268,205.947845 152.197769,220.810013 
	C158.701233,227.930878 165.735458,229.531586 174.428177,225.381073 
	C183.226654,221.180099 191.844772,220.558670 201.128998,225.259247 
	C208.064392,228.770615 215.783234,228.067734 222.259644,222.838577 
	C231.805634,215.130981 236.959564,204.566574 240.600235,193.221863 
	C241.024460,191.899948 239.307266,189.414902 237.965759,188.097427 
	C234.783035,184.971725 230.964722,182.478317 227.879547,179.271194 
	C220.769241,171.879837 220.076065,157.682449 226.279068,150.284286 
	C229.262131,146.726471 232.568542,143.439087 235.536148,139.869278 
	C236.721100,138.443878 237.387115,136.587082 237.881516,134.395355 
M202.500000,278.989044 
	C220.439407,278.660645 238.377991,278.206879 256.318787,278.086029 
	C261.215942,278.053009 260.946320,275.227448 261.068909,271.873505 
	C261.204529,268.162598 259.708801,266.940979 256.064789,266.947296 
	C210.279068,267.026672 164.493057,266.965454 118.707733,267.120758 
	C116.821495,267.127167 113.912048,268.469147 113.276581,269.956696 
	C112.025932,272.884247 113.217293,276.115906 116.366020,277.461670 
	C118.724266,278.469543 121.492249,278.916595 124.080521,278.926880 
	C149.886703,279.029297 175.693420,278.989014 202.500000,278.989044 
M211.613281,103.701607 
	C211.613281,100.285843 211.613281,96.870071 211.613281,91.790085 
	C206.644073,94.057487 202.301300,95.506226 198.531342,97.868958 
	C190.411880,102.957672 186.023331,110.428284 186.008408,120.204552 
	C186.003754,123.262825 187.496750,124.563057 190.454971,123.673798 
	C200.492828,120.656349 208.480194,115.362312 211.613281,103.701607 
z"/>
<path fill="#FEFFFF" opacity="1.000000" stroke="none" 
	d="
M68.153946,329.501190 
	C133.167252,329.022797 198.106049,329.005371 263.510925,328.973877 
	C264.315796,330.352966 264.942047,331.744720 264.949188,333.139587 
	C265.023285,347.624939 264.881836,362.112335 265.073029,376.595551 
	C265.127777,380.743042 263.728149,382.157379 259.586700,382.072754 
	C248.934998,381.855133 238.274994,381.936310 227.620743,382.078888 
	C226.208832,382.097748 224.811005,383.168030 223.406647,383.751404 
	C224.811844,384.500214 226.206543,385.874573 227.623932,385.898376 
	C238.443542,386.080200 249.272415,386.184814 260.087769,385.903503 
	C264.180145,385.797058 265.188232,387.212555 265.100983,391.045654 
	C265.003632,395.322357 265.276886,399.706329 266.205170,403.861206 
	C266.602600,405.640076 269.063416,406.957886 270.848328,409.134277 
	C271.825073,415.730927 275.883087,417.120911 280.997162,416.951202 
	C288.936554,416.687744 296.873657,416.355957 304.811737,416.053101 
	C304.862244,441.214783 305.185852,466.380157 304.846222,491.536560 
	C304.680450,503.814545 293.864624,512.688110 279.145172,513.860840 
	C277.652893,513.979675 276.147461,513.959351 274.648132,513.959473 
	C216.483597,513.963806 158.319016,513.995056 100.154549,513.927734 
	C91.631439,513.917847 83.118149,513.456299 76.188103,507.353760 
	C71.077972,502.853882 68.011414,497.382812 68.012817,490.455383 
	C68.023659,436.957642 68.054680,383.459869 68.153946,329.501190 
M138.921722,477.800415 
	C140.308884,474.984253 142.777145,472.211853 142.893188,469.344238 
	C143.357315,457.875458 143.178391,446.376251 143.061188,434.890076 
	C142.992310,428.141785 140.320862,425.289551 133.702316,425.189240 
	C122.051247,425.012695 110.393806,425.036713 98.742218,425.201385 
	C92.530769,425.289154 90.003403,427.906738 89.940086,434.184387 
	C89.820877,446.003296 89.853889,457.825012 89.963631,469.644287 
	C90.018356,475.538849 92.031456,478.328217 97.751419,478.422363 
	C111.204216,478.643768 124.668129,478.188721 138.921722,477.800415 
M142.286377,401.303528 
	C142.490662,400.676575 142.870346,400.050507 142.873413,399.422577 
	C142.936615,386.427368 143.105820,373.429688 142.909164,360.437744 
	C142.835403,355.565247 139.656631,353.060455 134.108002,353.003876 
	C122.444778,352.885010 110.778603,352.871918 99.115517,352.994171 
	C92.536972,353.063110 90.005005,355.628021 89.951256,362.120575 
	C89.856064,373.618134 89.866737,385.117340 89.944077,396.615143 
	C89.988594,403.233856 92.389328,405.912903 98.897873,406.016205 
	C110.726280,406.203949 122.568176,406.294159 134.384750,405.872986 
	C136.897675,405.783417 139.326355,403.330719 142.286377,401.303528 
M163.532257,394.002441 
	C159.516266,394.662231 154.965393,392.572571 150.145401,396.357056 
	C153.196869,397.119690 154.932709,397.927155 156.670853,397.932159 
	C185.131134,398.013885 213.591827,398.027588 242.051865,397.914734 
	C243.752701,397.907959 245.448792,396.705902 247.147079,396.060059 
	C246.961349,395.374176 246.775635,394.688324 246.589905,394.002441 
	C219.233612,394.002441 191.877304,394.002441 163.532257,394.002441 
M167.512177,443.001221 
	C172.501511,442.999481 177.492844,442.913147 182.479340,443.031250 
	C185.018890,443.091400 186.200211,442.191833 186.016602,439.575165 
	C185.846924,437.156830 186.584427,434.109192 182.766998,434.061798 
	C173.954117,433.952332 165.129456,433.832031 156.335922,434.259003 
	C155.148361,434.316681 153.483734,437.420471 153.246429,439.268677 
	C153.107803,440.348419 155.221237,442.592163 156.567841,442.813507 
	C159.807434,443.345947 163.192123,442.995514 167.512177,443.001221 
M184.681900,370.493073 
	C187.458328,364.779633 185.919052,362.017517 179.911026,361.999084 
	C172.784409,361.977234 165.657684,361.996124 158.531006,361.992920 
	C155.841431,361.991699 153.006622,361.631714 152.983932,365.732483 
	C152.962708,369.563385 154.853363,371.066040 158.524612,371.017975 
	C166.973572,370.907349 175.423859,370.898804 184.681900,370.493073 
M212.500000,470.000000 
	C222.308029,469.999878 232.116638,470.053101 241.923508,469.946411 
	C243.530075,469.928925 245.128983,469.207550 246.731430,468.811493 
	C237.073700,465.534332 154.794510,466.746399 151.680115,470.000000 
	C172.203354,470.000000 191.851685,470.000000 212.500000,470.000000 
M183.500000,386.000000 
	C190.811432,385.999176 198.125916,386.109650 205.431915,385.909973 
	C207.021713,385.866516 208.581161,384.712646 210.154587,384.070190 
	C209.166092,382.507385 208.738647,382.124237 208.309906,382.122803 
	C191.030380,382.064148 173.750595,382.005432 156.471375,382.076660 
	C155.079803,382.082397 153.692047,383.011627 152.302521,383.511658 
	C152.385452,383.948425 152.468384,384.385193 152.551315,384.821960 
	C162.412766,387.269135 172.527420,385.432861 183.500000,386.000000 
M235.514191,455.000000 
	C231.200043,455.000000 226.885880,455.000000 222.571732,455.000000 
	C226.670197,458.985321 278.536224,458.893646 282.383026,455.000000 
	C266.473267,455.000000 251.490784,455.000000 235.514191,455.000000 
M175.500000,455.000000 
	C167.523239,455.000000 159.546478,455.000000 151.569717,455.000000 
	C151.513321,455.572266 151.456924,456.144501 151.400528,456.716766 
	C153.023880,457.143860 154.645264,457.933289 156.270889,457.942108 
	C173.054245,458.033051 189.838486,458.032318 206.621750,457.933777 
	C207.992798,457.925720 209.358521,457.011078 210.726730,456.517731 
	C210.582092,456.011810 210.437469,455.505920 210.292847,455.000000 
	C199.028564,455.000000 187.764282,455.000000 175.500000,455.000000 
z"/>
<path fill="#DDD2F7" opacity="1.000000" stroke="none" 
	d="
M304.887634,415.621643 
	C296.873657,416.355957 288.936554,416.687744 280.997162,416.951202 
	C275.883087,417.120911 271.825073,415.730927 271.075348,409.413330 
	C282.096954,409.040161 293.153259,409.037048 304.689941,409.058136 
	C305.101410,411.118317 305.032471,413.154236 304.887634,415.621643 
z"/>
<path fill="#88A0B7" opacity="1.000000" stroke="none" 
	d="
M55.256527,233.090851 
	C55.085766,233.012024 55.066715,232.776611 55.057999,232.185684 
	C55.181641,232.198196 55.294941,232.566223 55.256527,233.090851 
z"/>
<path fill="#88A0B7" opacity="1.000000" stroke="none" 
	d="
M55.297615,339.114685 
	C55.127369,339.033081 55.102276,338.776428 55.099396,338.131470 
	C55.228661,338.141998 55.335709,338.540802 55.297615,339.114685 
z"/>
<path fill="#D4DFF7" opacity="1.000000" stroke="none" 
	d="
M384.000061,177.984711 
	C377.181458,177.982681 370.862854,177.971954 364.544250,177.981888 
	C360.599854,177.988083 358.193451,176.183762 358.017181,172.130676 
	C357.849762,168.280823 357.368195,164.131241 363.210876,163.907684 
	C366.170868,163.794434 369.116608,163.085892 372.070557,163.073715 
	C393.187653,162.986618 414.305359,163.043793 435.422516,162.967194 
	C439.399200,162.952774 442.687103,163.863068 444.373108,167.829926 
	C446.571686,173.002640 442.679840,177.818115 435.879517,177.938828 
	C426.238342,178.109970 416.591919,177.984085 406.947723,177.984634 
	C399.465149,177.985062 391.982605,177.984726 384.000061,177.984711 
M368.937744,170.534790 
	C367.699921,166.825745 364.933105,165.846466 362.057220,167.939865 
	C361.011078,168.701385 360.907715,172.238998 361.734009,173.781616 
	C363.420807,176.930588 366.500519,175.783646 368.937744,170.534790 
z"/>
<path fill="#D3DEF7" opacity="1.000000" stroke="none" 
	d="
M370.110840,187.018158 
	C392.705231,187.018143 414.815399,187.011246 436.925568,187.022903 
	C442.416992,187.025803 444.728333,188.919052 444.972076,193.512970 
	C445.211853,198.032288 442.396027,200.945282 436.989716,200.968216 
	C412.718811,201.071091 388.447205,201.010101 364.175873,201.007446 
	C360.438629,201.007034 358.315460,199.345215 357.960266,195.430634 
	C357.581390,191.254807 358.687592,188.078796 363.162659,187.214218 
	C365.251953,186.810547 367.468048,187.063049 370.110840,187.018158 
M361.502991,192.246628 
	C362.002594,194.278717 362.190186,196.488739 363.187256,198.237122 
	C363.496277,198.778961 366.589783,198.616043 367.361572,197.793488 
	C368.391541,196.695831 369.130371,194.416809 368.709259,193.037460 
	C367.487732,189.036041 364.619659,190.441498 361.502991,192.246628 
z"/>
<path fill="#E18562" opacity="1.000000" stroke="none" 
	d="
M395.042999,227.716980 
	C391.728271,227.715073 388.843231,228.061569 386.096741,227.594162 
	C382.582336,226.996094 379.905609,224.872147 379.770721,220.981430 
	C379.630676,216.940933 381.814209,213.925873 385.824524,213.778183 
	C397.113464,213.362488 408.428619,213.170685 419.716370,213.491440 
	C423.376984,213.595444 426.221497,216.388702 425.816193,220.649826 
	C425.412476,224.894058 422.592224,227.200012 418.481171,227.354950 
	C410.838654,227.642944 403.183929,227.605606 395.042999,227.716980 
z"/>
<path fill="#94E0BF" opacity="1.000000" stroke="none" 
	d="
M398.006439,145.081879 
	C392.209320,145.309036 386.911102,145.541718 381.612335,145.760559 
	C378.447632,145.891266 376.406586,144.490250 376.254517,141.232864 
	C376.108978,138.116135 377.828369,136.935135 380.956299,136.954117 
	C394.267273,137.034988 407.579498,136.990799 420.890625,136.897751 
	C423.705505,136.878082 425.213013,137.599213 425.145294,140.813950 
	C425.082214,143.809296 423.891937,145.024139 420.967682,145.012299 
	C413.480377,144.981995 405.992676,145.051788 398.006439,145.081879 
z"/>
<path fill="#DDD2F7" opacity="1.000000" stroke="none" 
	d="
M378.059509,249.062592 
	C378.034515,245.314667 378.009521,241.566742 377.965271,237.344696 
	C377.979675,235.503296 378.013336,234.136032 378.100159,232.357437 
	C382.311707,231.579819 383.914856,234.023560 383.895569,237.642838 
	C383.877228,241.082764 383.372131,244.520081 382.687469,248.445435 
	C380.882385,248.975754 379.470947,249.019165 378.059509,249.062592 
z"/>
<path fill="#B5B0F0" opacity="1.000000" stroke="none" 
	d="
M378.037201,249.516510 
	C379.470947,249.019165 380.882385,248.975754 382.716827,248.856415 
	C383.139801,248.780502 383.581238,248.877670 383.801514,248.929047 
	C383.785187,252.710037 383.548584,256.439636 382.871521,260.667999 
	C381.950409,261.464844 381.469788,261.762939 380.989197,262.061035 
	C377.557159,260.901031 377.914154,258.068695 377.991394,255.333847 
	C378.041901,253.547241 378.009949,251.758331 378.037201,249.516510 
z"/>
<path fill="#F6E9BA" opacity="1.000000" stroke="none" 
	d="
M372.155762,231.255386 
	C370.718719,232.043716 369.512421,232.957932 368.362152,232.892151 
	C366.385437,232.779175 362.984009,234.352295 363.225128,230.484436 
	C363.302521,229.243317 365.754028,227.423874 367.328217,227.171371 
	C369.736267,226.785126 373.507629,225.995285 372.155762,231.255386 
z"/>
<path fill="#B4C4E2" opacity="1.000000" stroke="none" 
	d="
M342.036987,408.558655 
	C351.207153,408.080170 360.357391,408.062531 369.506866,407.970551 
	C377.764923,407.887543 379.818695,405.534546 380.105408,397.259888 
	C380.200348,394.520538 377.476196,389.477814 384.497925,390.057800 
	C385.171265,392.817139 385.419006,395.536804 385.655823,398.715271 
	C385.578674,399.280090 385.431274,399.437958 385.460175,399.483215 
	C385.588409,399.683960 385.767212,399.852448 385.927734,400.032593 
	C385.938995,402.054688 385.950226,404.076813 385.668945,406.769287 
	C383.594238,408.291443 381.835144,409.817047 380.026062,409.878784 
	C372.082367,410.149872 364.123108,409.925476 356.172119,410.049316 
	C354.149261,410.080780 352.136047,410.730988 350.118408,411.096893 
	C350.166748,411.406219 350.215057,411.715576 350.263367,412.024902 
	C361.520721,412.024902 372.778046,412.024902 384.035400,412.024902 
	C383.207733,415.943329 380.077667,415.942200 377.103821,415.954498 
	C365.727692,416.001465 354.351196,415.964050 342.512360,415.931000 
	C342.038818,413.598267 342.027771,411.292725 342.036987,408.558655 
z"/>
<path fill="#B7C7E3" opacity="1.000000" stroke="none" 
	d="
M379.160522,348.332794 
	C380.855164,347.891418 382.488495,347.928436 384.532349,347.966766 
	C384.972473,354.704224 385.002136,361.440369 385.023560,368.970581 
	C385.030304,370.501282 385.045288,371.237854 385.060272,371.974457 
	C385.040070,376.991150 385.019897,382.007843 384.983521,387.485535 
	C383.194946,387.946533 381.422546,387.946533 379.099243,387.946533 
	C379.099243,374.558685 379.099243,361.684937 379.160522,348.332794 
z"/>
<path fill="#EBF9F5" opacity="1.000000" stroke="none" 
	d="
M381.895844,446.994568 
	C385.574493,447.232849 388.770477,447.471008 391.966431,447.709167 
	C391.943665,448.228241 391.920898,448.747284 391.898163,449.266357 
	C377.908325,449.266357 363.918488,449.266357 349.928680,449.266357 
	C360.226349,446.040222 370.876648,447.267273 381.895844,446.994568 
z"/>
<path fill="#F1FAF8" opacity="1.000000" stroke="none" 
	d="
M360.054688,461.000000 
	C356.612335,461.000000 353.658813,461.000000 350.705292,461.000000 
	C350.708160,460.568176 350.711060,460.136383 350.713928,459.704559 
	C364.914246,459.704559 379.114594,459.704559 393.314911,459.704559 
	C393.324646,460.136383 393.334351,460.568176 393.344086,461.000000 
	C382.410553,461.000000 371.477051,461.000000 360.054688,461.000000 
z"/>
<path fill="#E4F7F1" opacity="1.000000" stroke="none" 
	d="
M365.953552,421.993896 
	C360.206390,421.993896 354.949860,421.993896 349.412323,421.993896 
	C351.200439,418.764191 370.284973,417.641022 378.322662,419.780701 
	C378.355469,420.221252 378.388245,420.661804 378.421051,421.102386 
	C374.428772,421.399567 370.436493,421.696747 365.953552,421.993896 
z"/>
<path fill="#F6FCFA" opacity="1.000000" stroke="none" 
	d="
M368.001587,427.995758 
	C376.650391,427.995758 384.799591,427.995758 392.948822,427.995758 
	C392.947845,428.425385 392.946838,428.855011 392.945831,429.284637 
	C378.981689,430.426514 365.017548,430.441345 351.053436,429.276672 
	C351.052643,428.849701 351.051880,428.422729 351.051086,427.995758 
	C356.534729,427.995758 362.018402,427.995758 368.001587,427.995758 
z"/>
<path fill="#D5D6F3" opacity="1.000000" stroke="none" 
	d="
M384.401489,411.945221 
	C372.778046,412.024902 361.520721,412.024902 350.263367,412.024902 
	C350.215057,411.715576 350.166748,411.406219 350.118408,411.096893 
	C352.136047,410.730988 354.149261,410.080780 356.172119,410.049316 
	C364.123108,409.925476 372.082367,410.149872 380.026062,409.878784 
	C381.835144,409.817047 383.594238,408.291443 385.662994,407.202576 
	C385.555603,408.598846 385.161591,410.232178 384.401489,411.945221 
z"/>
<path fill="#EBF9F5" opacity="1.000000" stroke="none" 
	d="
M397.032684,437.391815 
	C396.851959,438.079254 396.343140,438.928802 395.826996,438.933228 
	C386.558502,439.013519 377.289185,438.991608 367.633087,438.991608 
	C369.941284,437.011719 369.941315,436.997406 381.773560,437.018463 
	C386.749481,437.027344 391.725311,437.110931 397.032684,437.391815 
z"/>
<path fill="#F6FCFA" opacity="1.000000" stroke="none" 
	d="
M374.530396,469.003693 
	C365.949371,469.003662 357.811951,469.003662 349.674500,469.003662 
	C349.682434,468.525604 349.690369,468.047577 349.698303,467.569519 
	C359.142853,467.569519 368.587402,467.569519 378.031952,467.569519 
	C378.094971,467.894196 378.157990,468.218842 378.220978,468.543518 
	C377.138641,468.696930 376.056335,468.850311 374.530396,469.003693 
z"/>
<path fill="#E7F7F4" opacity="1.000000" stroke="none" 
	d="
M357.735535,440.004913 
	C354.741119,440.006012 352.189484,440.006012 349.637848,440.006012 
	C349.608826,439.321747 349.579773,438.637451 349.550720,437.953186 
	C353.818848,437.588348 358.086945,437.223541 362.355072,436.858734 
	C362.469818,437.513275 362.584534,438.167816 362.699280,438.822357 
	C361.192291,439.216187 359.685272,439.609985 357.735535,440.004913 
z"/>
<path fill="#F1FAF8" opacity="1.000000" stroke="none" 
	d="
M385.511658,371.986389 
	C385.045288,371.237854 385.030304,370.501282 385.038757,369.397156 
	C388.863831,369.029602 392.665405,369.029602 396.467010,369.029602 
	C396.520264,369.621521 396.573547,370.213470 396.626801,370.805389 
	C393.470642,373.176941 389.491241,371.469910 385.511658,371.986389 
z"/>
<path fill="#EBF9F5" opacity="1.000000" stroke="none" 
	d="
M422.207825,429.713715 
	C419.613953,429.862854 417.396515,429.862854 415.179077,429.862854 
	C415.182190,428.993835 415.185303,428.124786 415.188416,427.255768 
	C417.758392,427.255768 420.328339,427.255768 422.898285,427.255768 
	C422.793640,428.025360 422.688965,428.794983 422.207825,429.713715 
z"/>
<path fill="#EBF9F5" opacity="1.000000" stroke="none" 
	d="
M404.040955,484.004578 
	C402.378571,483.935150 401.116943,483.865021 399.855316,483.794891 
	C399.784149,483.308960 399.713013,482.823029 399.641846,482.337128 
	C402.507996,481.807343 405.374115,481.277557 408.240234,480.747803 
	C408.420044,481.380096 408.599854,482.012421 408.779663,482.644714 
	C407.333679,483.097778 405.887695,483.550812 404.040955,484.004578 
z"/>
<path fill="#D5D6F3" opacity="1.000000" stroke="none" 
	d="
M386.107208,399.944580 
	C385.767212,399.852448 385.588409,399.683960 385.460175,399.483215 
	C385.431274,399.437958 385.578674,399.280090 385.812012,399.085815 
	C386.156525,399.175873 386.348328,399.343445 386.497162,399.542999 
	C386.522186,399.576508 386.361572,399.748535 386.107208,399.944580 
z"/>
<path fill="#F0F8FD" opacity="1.000000" stroke="none" 
	d="
M512.977783,356.696777 
	C509.155609,367.058014 502.610992,371.538940 492.506195,371.046875 
	C484.386536,370.651459 476.688354,364.607788 474.518188,356.924896 
	C472.150818,348.543732 475.281219,338.720551 481.781494,334.132812 
	C489.409943,328.748749 497.775208,328.542328 504.957886,333.560852 
	C512.326111,338.708984 515.530396,347.696625 512.977783,356.696777 
z"/>
<path fill="#F4F7FC" opacity="1.000000" stroke="none" 
	d="
M264.157959,296.637329 
	C211.681778,297.002869 159.367920,297.002747 107.054085,296.961243 
	C104.917961,296.959534 102.785988,296.454468 100.645401,296.382538 
	C96.208771,296.233398 95.798538,293.470917 95.949753,289.903870 
	C96.113182,286.048798 98.617638,285.308868 101.619629,285.030426 
	C102.941391,284.907867 104.283394,285.000549 105.616203,285.000458 
	C158.096649,284.996918 210.577103,284.993927 263.525391,284.982971 
	C264.102234,288.738129 264.211273,292.501190 264.157959,296.637329 
z"/>
<path fill="#F4F6FC" opacity="1.000000" stroke="none" 
	d="
M263.998474,259.551758 
	C211.567093,260.006622 159.136612,260.019592 106.706230,259.949890 
	C104.100784,259.946442 100.977119,259.965515 99.047241,258.614014 
	C97.346817,257.423187 96.183205,254.281448 96.308388,252.088318 
	C96.390602,250.648087 99.038414,249.098999 100.820915,248.109802 
	C101.839989,247.544281 103.427460,248.000961 104.759010,248.000916 
	C157.189484,247.999008 209.619949,247.997513 262.517334,247.989182 
	C263.322632,251.686020 263.661011,255.389648 263.998474,259.551758 
z"/>
<path fill="#FFFFFF" opacity="1.000000" stroke="none" 
	d="
M296.017395,266.000000 
	C293.026398,266.000000 290.531982,266.009094 288.037659,265.998199 
	C282.090332,265.972260 281.000366,264.811584 281.001251,258.532166 
	C281.002045,252.907166 281.897888,252.009857 287.790039,252.006439 
	C312.567383,251.992020 337.344696,251.993256 362.122040,252.006149 
	C367.826935,252.009109 368.939240,253.193604 368.999451,259.128510 
	C369.056702,264.771515 367.887939,265.975800 361.866333,265.985687 
	C340.082306,266.021484 318.298157,265.999908 296.017395,266.000000 
z"/>
<path fill="#FDFFFF" opacity="1.000000" stroke="none" 
	d="
M364.904785,286.497589 
	C345.079437,286.780457 325.625732,286.986023 306.172455,286.947479 
	C299.226501,286.933746 292.276794,286.401947 285.340912,285.928772 
	C284.044891,285.840363 282.806641,284.905273 281.188324,284.208832 
	C285.407318,281.353302 362.656433,281.111694 368.119507,283.892639 
	C367.022125,284.831146 366.149353,285.577545 364.904785,286.497589 
z"/>
<path fill="#FFFFFF" opacity="1.000000" stroke="none" 
	d="
M308.000000,272.000000 
	C325.982117,272.000000 343.464264,271.996246 360.946381,272.007507 
	C362.273010,272.008362 363.638428,271.948212 364.909943,272.243347 
	C365.556915,272.393524 366.586334,273.447510 366.478607,273.785797 
	C366.225525,274.580383 365.511627,275.531647 364.765076,275.792633 
	C363.715820,276.159454 362.467926,275.994354 361.304993,275.994690 
	C336.497009,276.001648 311.689056,276.000000 286.881073,275.999542 
	C286.215088,275.999512 285.432648,276.216644 284.908112,275.942688 
	C283.908051,275.420349 283.055115,274.616241 282.141113,273.929077 
	C283.101715,273.288757 284.051117,272.113556 285.024750,272.093109 
	C292.513855,271.935913 300.007660,272.002716 308.000000,272.000000 
z"/>
<path fill="#FCFDFE" opacity="1.000000" stroke="none" 
	d="
M307.966187,379.000000 
	C323.402863,379.492645 338.357178,379.985260 353.311493,380.477875 
	C353.309296,381.015656 353.307068,381.553467 353.304871,382.091248 
	C332.455383,380.730865 311.648682,384.493683 290.792297,382.309174 
	C290.751678,381.625854 290.711060,380.942566 290.670441,380.259247 
	C296.274902,379.839508 301.879395,379.419769 307.966187,379.000000 
z"/>
<path fill="#FBFCFE" opacity="1.000000" stroke="none" 
	d="
M381.000000,262.254639 
	C381.469788,261.762939 381.950409,261.464844 382.679626,261.028870 
	C399.732361,260.890991 416.536469,260.890991 433.340607,260.890991 
	C433.350006,261.696045 433.359436,262.501099 433.368835,263.306152 
	C416.883606,263.539948 400.398407,263.773773 383.441895,264.027771 
	C382.489838,263.740082 382.009064,263.432159 381.279724,262.979858 
	C381.031158,262.835510 381.010803,262.448242 381.000000,262.254639 
z"/>
<path fill="#FCFDFE" opacity="1.000000" stroke="none" 
	d="
M337.465118,389.000427 
	C339.046906,389.265808 340.194855,389.530701 341.342834,389.795624 
	C341.295380,390.267731 341.247925,390.739807 341.200470,391.211914 
	C328.670776,391.211914 316.141083,391.211914 303.611359,391.211914 
	C303.497223,390.844696 303.383087,390.477448 303.268951,390.110229 
	C304.916260,389.740204 306.560333,389.067535 308.211334,389.050018 
	C317.817108,388.948059 327.424469,389.000031 337.465118,389.000427 
z"/>
<path fill="#F8FBFC" opacity="1.000000" stroke="none" 
	d="
M320.000000,349.000000 
	C328.767670,349.000000 337.035339,349.000000 345.303009,349.000000 
	C345.303131,349.437469 345.303223,349.874908 345.303345,350.312378 
	C328.775299,350.312378 312.247284,350.312378 295.719238,350.312378 
	C295.699249,349.874908 295.679230,349.437469 295.659210,349.000000 
	C303.606140,349.000000 311.553070,349.000000 320.000000,349.000000 
z"/>
<path fill="#E3B2B9" opacity="1.000000" stroke="none" 
	d="
M290.937836,354.992676 
	C289.833710,355.724792 288.971863,356.227478 288.044495,356.528076 
	C284.926453,357.538818 281.756927,356.780457 281.423615,353.570831 
	C281.202911,351.445831 283.090363,348.138580 285.011078,346.979034 
	C287.932892,345.215149 290.296478,347.495972 291.222504,350.505280 
	C291.610718,351.766846 291.198456,353.274719 290.937836,354.992676 
z"/>
<path fill="#E3B2B9" opacity="1.000000" stroke="none" 
	d="
M288.374023,331.792816 
	C285.979004,331.245789 283.568390,331.012329 282.092834,329.715210 
	C281.215088,328.943604 281.110840,325.952667 281.906555,324.936615 
	C283.046539,323.480957 285.443481,322.015289 287.086884,322.228180 
	C288.727203,322.440674 291.098206,324.573029 291.321014,326.125977 
	C291.563049,327.812683 289.698059,329.801727 288.374023,331.792816 
z"/>
<path fill="#E3B2B9" opacity="1.000000" stroke="none" 
	d="
M286.104431,307.012451 
	C284.245117,305.073608 282.241730,303.311401 281.566803,301.136902 
	C281.285431,300.230438 283.749542,297.417908 285.113068,297.308167 
	C287.032501,297.153656 289.615723,298.207458 290.974060,299.638062 
	C293.526703,302.326630 291.430420,305.556549 286.104431,307.012451 
z"/>
<path fill="#FBFCFE" opacity="1.000000" stroke="none" 
	d="
M384.511414,273.962463 
	C384.044952,272.903412 384.026367,271.862854 384.026917,270.432587 
	C396.195190,270.042847 408.344269,270.042847 420.493378,270.042847 
	C420.579773,270.605927 420.666199,271.169006 420.752594,271.732086 
	C419.408142,272.153961 418.076294,272.893524 416.717285,272.947327 
	C406.134216,273.366272 395.545898,273.653229 384.511414,273.962463 
z"/>
<path fill="#F4F7FC" opacity="1.000000" stroke="none" 
	d="
M238.085449,134.661011 
	C237.387115,136.587082 236.721100,138.443878 235.536148,139.869278 
	C232.568542,143.439087 229.262131,146.726471 226.279068,150.284286 
	C220.076065,157.682449 220.769241,171.879837 227.879547,179.271194 
	C230.964722,182.478317 234.783035,184.971725 237.965759,188.097427 
	C239.307266,189.414902 241.024460,191.899948 240.600235,193.221863 
	C236.959564,204.566574 231.805634,215.130981 222.259644,222.838577 
	C215.783234,228.067734 208.064392,228.770615 201.128998,225.259247 
	C191.844772,220.558670 183.226654,221.180099 174.428177,225.381073 
	C165.735458,229.531586 158.701233,227.930878 152.197769,220.810013 
	C138.624268,205.947845 131.506561,188.475342 128.821655,168.671036 
	C127.538826,159.208755 128.030685,150.367218 132.958740,142.268661 
	C140.683914,129.573425 152.393082,121.459724 167.466904,123.097382 
	C169.827377,123.353821 172.251175,124.438873 174.324478,125.678146 
	C182.485657,130.556320 190.670303,131.270142 199.486496,127.290611 
	C216.223877,119.735558 225.165390,121.523041 238.085449,134.661011 
z"/>
<path fill="#F2F5FC" opacity="1.000000" stroke="none" 
	d="
M202.000000,278.989014 
	C175.693420,278.989014 149.886703,279.029297 124.080521,278.926880 
	C121.492249,278.916595 118.724266,278.469543 116.366020,277.461670 
	C113.217293,276.115906 112.025932,272.884247 113.276581,269.956696 
	C113.912048,268.469147 116.821495,267.127167 118.707733,267.120758 
	C164.493057,266.965454 210.279068,267.026672 256.064789,266.947296 
	C259.708801,266.940979 261.204529,268.162598 261.068909,271.873505 
	C260.946320,275.227448 261.215942,278.053009 256.318787,278.086029 
	C238.377991,278.206879 220.439407,278.660645 202.000000,278.989014 
z"/>
<path fill="#F4F7FC" opacity="1.000000" stroke="none" 
	d="
M211.450882,104.088699 
	C208.480194,115.362312 200.492828,120.656349 190.454971,123.673798 
	C187.496750,124.563057 186.003754,123.262825 186.008408,120.204552 
	C186.023331,110.428284 190.411880,102.957672 198.531342,97.868958 
	C202.301300,95.506226 206.644073,94.057487 211.613281,91.790085 
	C211.613281,96.870071 211.613281,100.285843 211.450882,104.088699 
z"/>
<path fill="#7294E1" opacity="1.000000" stroke="none" 
	d="
M138.524628,477.903931 
	C124.668129,478.188721 111.204216,478.643768 97.751419,478.422363 
	C92.031456,478.328217 90.018356,475.538849 89.963631,469.644287 
	C89.853889,457.825012 89.820877,446.003296 89.940086,434.184387 
	C90.003403,427.906738 92.530769,425.289154 98.742218,425.201385 
	C110.393806,425.036713 122.051247,425.012695 133.702316,425.189240 
	C140.320862,425.289551 142.992310,428.141785 143.061188,434.890076 
	C143.178391,446.376251 143.357315,457.875458 142.893188,469.344238 
	C142.777145,472.211853 140.308884,474.984253 138.524628,477.903931 
z"/>
<path fill="#0ea5e9" opacity="1.000000" stroke="none" 
	d="
M142.040115,401.635132 
	C139.326355,403.330719 136.897675,405.783417 134.384750,405.872986 
	C122.568176,406.294159 110.726280,406.203949 98.897873,406.016205 
	C92.389328,405.912903 89.988594,403.233856 89.944077,396.615143 
	C89.866737,385.117340 89.856064,373.618134 89.951256,362.120575 
	C90.005005,355.628021 92.536972,353.063110 99.115517,352.994171 
	C110.778603,352.871918 122.444778,352.885010 134.108002,353.003876 
	C139.656631,353.060455 142.835403,355.565247 142.909164,360.437744 
	C143.105820,373.429688 142.936615,386.427368 142.873413,399.422577 
	C142.870346,400.050507 142.490662,400.676575 142.040115,401.635132 
M118.823509,391.567627 
	C119.455994,391.366760 120.099884,391.195862 120.719170,390.960327 
	C126.461342,388.776337 129.561081,382.170959 127.606438,376.305389 
	C125.720222,370.645111 118.407639,367.021301 112.722351,368.929535 
	C106.769112,370.927704 103.710495,375.674011 105.138977,382.142487 
	C106.473679,388.186432 109.839577,391.948761 118.823509,391.567627 
z"/>
<path fill="#F2F5F8" opacity="1.000000" stroke="none" 
	d="
M164.026642,394.002441 
	C191.877304,394.002441 219.233612,394.002441 246.589905,394.002441 
	C246.775635,394.688324 246.961349,395.374176 247.147079,396.060059 
	C245.448792,396.705902 243.752701,397.907959 242.051865,397.914734 
	C213.591827,398.027588 185.131134,398.013885 156.670853,397.932159 
	C154.932709,397.927155 153.196869,397.119690 150.145401,396.357056 
	C154.965393,392.572571 159.516266,394.662231 164.026642,394.002441 
z"/>
<path fill="#EFF2F6" opacity="1.000000" stroke="none" 
	d="
M167.015228,443.001221 
	C163.192123,442.995514 159.807434,443.345947 156.567841,442.813507 
	C155.221237,442.592163 153.107803,440.348419 153.246429,439.268677 
	C153.483734,437.420471 155.148361,434.316681 156.335922,434.259003 
	C165.129456,433.832031 173.954117,433.952332 182.766998,434.061798 
	C186.584427,434.109192 185.846924,437.156830 186.016602,439.575165 
	C186.200211,442.191833 185.018890,443.091400 182.479340,443.031250 
	C177.492844,442.913147 172.501511,442.999481 167.015228,443.001221 
z"/>
<path fill="#F0F3F7" opacity="1.000000" stroke="none" 
	d="
M184.277756,370.670959 
	C175.423859,370.898804 166.973572,370.907349 158.524612,371.017975 
	C154.853363,371.066040 152.962708,369.563385 152.983932,365.732483 
	C153.006622,361.631714 155.841431,361.991699 158.531006,361.992920 
	C165.657684,361.996124 172.784409,361.977234 179.911026,361.999084 
	C185.919052,362.017517 187.458328,364.779633 184.277756,370.670959 
z"/>
<path fill="#EFF2F6" opacity="1.000000" stroke="none" 
	d="
M212.000000,470.000000 
	C191.851685,470.000000 172.203354,470.000000 151.680115,470.000000 
	C154.794510,466.746399 237.073700,465.534332 246.731430,468.811493 
	C245.128983,469.207550 243.530075,469.928925 241.923508,469.946411 
	C232.116638,470.053101 222.308029,469.999878 212.000000,470.000000 
z"/>
<path fill="#F1F3F7" opacity="1.000000" stroke="none" 
	d="
M183.000000,386.000000 
	C172.527420,385.432861 162.412766,387.269135 152.551315,384.821960 
	C152.468384,384.385193 152.385452,383.948425 152.302521,383.511658 
	C153.692047,383.011627 155.079803,382.082397 156.471375,382.076660 
	C173.750595,382.005432 191.030380,382.064148 208.309906,382.122803 
	C208.738647,382.124237 209.166092,382.507385 210.154587,384.070190 
	C208.581161,384.712646 207.021713,385.866516 205.431915,385.909973 
	C198.125916,386.109650 190.811432,385.999176 183.000000,386.000000 
z"/>
<path fill="#EFF2F6" opacity="1.000000" stroke="none" 
	d="
M236.011246,455.000000 
	C251.490784,455.000000 266.473267,455.000000 282.383026,455.000000 
	C278.536224,458.893646 226.670197,458.985321 222.571732,455.000000 
	C226.885880,455.000000 231.200043,455.000000 236.011246,455.000000 
z"/>
<path fill="#EFF2F6" opacity="1.000000" stroke="none" 
	d="
M176.000000,455.000000 
	C187.764282,455.000000 199.028564,455.000000 210.292847,455.000000 
	C210.437469,455.505920 210.582092,456.011810 210.726730,456.517731 
	C209.358521,457.011078 207.992798,457.925720 206.621750,457.933777 
	C189.838486,458.032318 173.054245,458.033051 156.270889,457.942108 
	C154.645264,457.933289 153.023880,457.143860 151.400528,456.716766 
	C151.456924,456.144501 151.513321,455.572266 151.569717,455.000000 
	C159.546478,455.000000 167.523239,455.000000 176.000000,455.000000 
z"/>
<path fill="#EFF6FC" opacity="1.000000" stroke="none" 
	d="
M368.945618,170.911926 
	C366.500519,175.783646 363.420807,176.930588 361.734009,173.781616 
	C360.907715,172.238998 361.011078,168.701385 362.057220,167.939865 
	C364.933105,165.846466 367.699921,166.825745 368.945618,170.911926 
z"/>
<path fill="#EEF1F7" opacity="1.000000" stroke="none" 
	d="
M361.761963,191.962708 
	C364.619659,190.441498 367.487732,189.036041 368.709259,193.037460 
	C369.130371,194.416809 368.391541,196.695831 367.361572,197.793488 
	C366.589783,198.616043 363.496277,198.778961 363.187256,198.237122 
	C362.190186,196.488739 362.002594,194.278717 361.761963,191.962708 
z"/>
<path fill="#ADE8D0" opacity="1.000000" stroke="none" 
	d="
M118.447250,391.704468 
	C109.839577,391.948761 106.473679,388.186432 105.138977,382.142487 
	C103.710495,375.674011 106.769112,370.927704 112.722351,368.929535 
	C118.407639,367.021301 125.720222,370.645111 127.606438,376.305389 
	C129.561081,382.170959 126.461342,388.776337 120.719170,390.960327 
	C120.099884,391.195862 119.455994,391.366760 118.447250,391.704468 
z"/>
</svg>